<svg xmlns="http://www.w3.org/2000/svg" viewBox="0 0 800 480"><defs><style>.cls-1,.cls-3,.cls-5,.cls-7{fill:none;}.cls-2{fill:#42b5e5;}.cls-3{stroke:#27aae1;}.cls-3,.cls-5,.cls-7{stroke-linecap:round;stroke-linejoin:round;}.cls-4{font-size:24px;}.cls-11,.cls-4,.cls-6{fill:#fff;}.cls-4,.cls-6{font-family:AppleSpice, AppleSpice;}.cls-5{stroke:#ee4036;}.cls-6{font-size:36px;}.cls-7{stroke:#37b34a;}.cls-8{fill:#9e429c;}.cls-9{fill:#b38d65;}.cls-10{fill:#f8f8f8;}</style></defs><title>AngularModule</title><g id="Background"><rect class="cls-1" width="800" height="480"/></g><g id="Слой_4" data-name="Слой 4"><polygon class="cls-2" points="262.17 449.97 262.79 448.73 261.9 442.15 262.17 449.97"/><path class="cls-2" d="M262,382.43c-.77-6-1.36-17.59-2.69-17.76l1.32,10.92c-1,1.54-.83,8.73-.42,15.09l-.15-7.21c.16,1.86.78.66.94,2.52-.37,11,1,13.84.08,24.05l-.11-.58.75,8c-.12,2.54-.6,1.54-.79.73.62,7.17,1.24,12.59,1.31,22.31,1.72-7.55-1.69-21.32,0-28.84l.11.57C261.58,402.88,262.61,392,262,382.43Z"/><path class="cls-2" d="M260.91,418.22l-.06-.63A1.23,1.23,0,0,0,260.91,418.22Z"/><path class="cls-2" d="M258.56,26.46l-.3-.51C258.38,26.91,258.5,27.87,258.56,26.46Z"/><path class="cls-2" d="M256.45,147.95l0-.58C256.06,146.62,256.17,147,256.45,147.95Z"/><path class="cls-2" d="M29.74,448.2l0,.15,0,.25,0,.52-.09,1.07-.18,2.21a9.72,9.72,0,0,0,.35-2c0-.36,0-.73,0-1.11v-.58Z"/><path class="cls-2" d="M188.33,454.75l.24,0Z"/><path class="cls-2" d="M115.53,450l-.32-.36C114.9,449.88,115.08,450,115.53,450Z"/><path class="cls-2" d="M167.08,448.64c1.44.08,2.85.13,4.29.12A20,20,0,0,0,167.08,448.64Z"/><path class="cls-2" d="M186.76,454.93c.47-.07,1-.13,1.56-.17A15.64,15.64,0,0,0,186.76,454.93Z"/><path class="cls-2" d="M37.93,450.35a1.4,1.4,0,0,1-.57-1C37.25,449.7,37.38,450,37.93,450.35Z"/><path class="cls-2" d="M179.8,447.71a15.09,15.09,0,0,0,2.7.31A8.45,8.45,0,0,0,179.8,447.71Z"/><path class="cls-2" d="M261.8,371.94c0,1.47.07,3.12.2,5.13A40.15,40.15,0,0,0,261.8,371.94Z"/><path class="cls-2" d="M33,166.7a3,3,0,0,0,.38.92C33.3,166.47,33.17,166.41,33,166.7Z"/><path class="cls-2" d="M35,337l0,.56c0-.15.09-.36.14-.71Z"/><path class="cls-2" d="M34.25,287.32a6.23,6.23,0,0,0,.22.66C34.37,287.5,34.3,287.37,34.25,287.32Z"/><path class="cls-2" d="M36.52,374.61a14.33,14.33,0,0,0,.35,1.74Z"/><path class="cls-2" d="M36,410.59c.32-1.62.66.11,1,1.8.35-9-.89-11.94-.17-21.29l-.42,4.39c-.78-6-1.07-17.16-.22-22.56l.34,1.68c-.84-5.73.47-14.78-.21-17.21-.39,2.36-.66-.1-1,3.56l-1-14.58,1.28-1.11-.53-7.66c-.49,1.9.28-10.28-.95-10.46.41-4.38,1,1.79,1.53,3.34-.43-4.31.12-4.78-.68-8.78l1.08-4.29-1-11.24c.11.57.19-.13.3.41-1-5.13.4-13.07-1.34-19.6.07.34.12.24.19.33-.94-3.57-.41-12.44-.26-15.68-.3-5.8-1.12-2.39-1.6-2.63.08-16.83.07-11.45-1.45-25.56,1.31-8.47,2.42,10,3.28-.8-.71-1.43-1.35-8.88-1.73-17.28.39-7.71.6-20.6,1.48-28.07l-.92.78-.66-10.82,1.43,6.13c-.34-1.72-1-7.15-1.5-10.76-1-11.23,1.95-6.4.42-15.11a5.82,5.82,0,0,1,.29-.83c-.75-2.8-.59-10.18-1-18.67L33.29,151l-.18,5.51c1.12-3-.32-9.11-.31-14.47-.48-5.6-1.42-2.8-1.81-5.79,0-2-.36-5,0-6.66.3-4.93,1.4-.54,1.92,1-1.28-4.25-1.14-5.72-1.76-15.22.57-.51.83.18,1,1.44a14.31,14.31,0,0,0-1-4.76l.64-3.24c.85-10.82-2.35-10.69-2.14-23.62.69,3.44-.29-11.13.42-15.11.25,4.48,1.72-2.17,2.47.54.3-10.33-1.46-4.1-1.85-12.46l1.53,3.36c-.75-8.05-.82-2-1.39-10.18.46,2.26.35-3.65.89,1.22,0-10.73-.09-7.94,0-17.38l-.72-.38a4.11,4.11,0,0,0-.72-.23c-.13-1.18.13-1.73.39-1.8.29.11.51.23.67.31h-.34c0,.41,0,.84.16.85s.38-.16.42-.29c.34.07.44-.16.81-.29l.14,0a.93.93,0,0,1,.27,0c.34,0,.68,0,1,0a10.88,10.88,0,0,1,2.33.33c-1.06-.44-2.26-1.06,1.65-1.19-1.24.89,6,.74,6.3,1.1-2.49-.57,8.38-.39,8.89-1.35,4.54.6-1.41.71-1.66,1.19,3.7-1.17,15.8-.36,19.21-1,.07.09.26.15.25.2,4.77-.74,12.7-1,22.19-2.12l-3.25.87c9.6.23,5.81-1.81,13.77-1.9-1.66,1.19,13.17-.27,9.64,1.08,4.74-.73,9.79-1.1,12.88-2.15,4.54.6-8.57,1.71-2.31,2l6.74-.7,1.22.62c.27-.48,6.19-.59,5.88-1,1.07.75,3.79,1.25,3.5,1.83,4.27-.28,10.29.36,13.85-.35l.32.37c4.09-1.46,13-.45,15.06-1.94l2.66.75c6.51-.22,5.25-1.69,8.26-2.08,2.6-.09,5.78-.3,8.53-.2-8.48,1.05,4.29,1.08,6.07,1.58,3.34,0,13.17-.27,15.86-1-4,.8-1.5,1.37-8.73,1.53,3.89,1.38,11-.48,19.1-.38l-.07.67c11.54-.59,11.88-1.74,16.86-2.95,1.38.8.24,1-3,1.9,2.56.13,5.61.14,8.86.09l5-.1,3.57-.12.1,3.49.06,4.62c-.55,2.74-.91.95-1.2-1.93.75,9,.12,20,1.65,25.66-.61-2.2-.33,3.61-.57,6.93.3,0,.7.62.66,1,.66,5.47,1.36,17.58.93,24l-.46-2.31c-.05,14.8,2.53,21.27,1.68,37.43-.27,2.91-1.24-3-1.12,3,.57,2.87,1.67,1.91,1.46,9.45l-1-.5,1,5.13c.76-2.65.37-11,1.33-5.18-.8,6.75,1,5.87,0,14.07a28.78,28.78,0,0,0-1.29-5.69c-.91,17.18,1.24,24,.26,41.42.87,8.65,1.16,19.78,1.93,25.77-1-.48-1.81-.41-2.61-4.41,0,7.39,2.17,10.84.84,16,1.35,3.53,1.09,20.51,2.95,22.25-.37.31.09,8-1,.22.73,10.09-1.42,13.3-1.36,17.93.09,2.6,1.12-3,1.23,2.94-.07.73-.25.9-.32,1.63l.46,2.27c-.39,2.36-.94-2.56-1.42-2.78-.28,8.29,1.23,13.67,1.47,23.48l-.34-1.68.06,10-.11-.57.75,8-.48-.24c.16,1.86.46,2.29.55,4.89l-.6-.83c.94,2.55,1.55,12,1.62,16.69l-.25.89,1.32,10.91c-.55,5.83-1.49-7.42-.9,4.13l-1.23-3c.57,8.21-.05,9.44.43,15,.57-2.54.44-6.43,1-3.56-1.28,6.48.48,10.3,1.12,16.49-.07-3.14-.08-5.27-.8-7.41,0-3.32.62-1.21.65-3.25l-.73-4.71.8-1.35-.75-8.07c1,.49,0-7.42,1.08-4.28-.48-5.63.17-8.87-.86-14,.53-3.82.78,6,.82,2-1.06-22.54-1.21-45.84-1.18-69.33l.46,2.28c-.46-2.28-.85-5.29-1.19-7,.71-4,1.5-19.4,0-24.79.07-.75.3.42.41,1-.27-7.82.56-21.92.27-33-1.58-4.69.74-16.75-1.39-20.94l.46,2.3c-.53,3.79-1.51-5.39-2-6.94,1.31-3.14,1-.23,2.22-4l-.41,4.42,1.1-1c-3-14.1,1-26.33-1.22-35.1.12.53.3.39.41,1,.55-5.85-.91-9.95-1.34-14.24.55-.5.94,2.55,1.4,4.8.3-10.29-1.43-27.55-.69-38.91-.8-4-1,1.52-1.6-2.63.16-3.5.74-6,1.17-1.69,1.26-9.82-1.32-32.36-.23-47.38a37.26,37.26,0,0,0-1-5.65,19.41,19.41,0,0,1-.38-2.17c-.13-1.53-.27-3.7-.43-6.81l-4,.19c2-.27,1.61-.66,1.41-1s-.07-.71,4.22-.89c0,.79.07,1.86.09,3.15q.3.61.6,1.33l0-5.15-13.62.12c-3.08,0-6.15.11-9.06.22-5.81.23-10.92.66-14,1.47-.39-1.21-2.19-.21-6.74-.81-1.85.16.17.18.92.25-4.41,1.1-6.68,0-9.84.25l1.12-.23-8.64.87c-1.44-.14-3.61-.35-3.92-.71l.06.85c-4.65.07-2.26-1.06-8.06-.76l1.23.62c-3.68-.35-9.54.61-10.32-.3-.16-.18.57-.11,1.87-.16-5.77-1.22-14.88.61-22,.1L160,25.78c-6.92.52-4.24-.23-4-.71-4.64.07-5.66-.37-11.77-.44-3,.39-1.57.53-2.54.94l-6.24-.25,4-.8c-9.56,2.12-24.06.08-30.43,2-3.65-.35,3.25-.87,1.07-1.07-11.38-.74-25.38,1.64-34.87.74-7.27-.37-15.06-.3-23-.18l-12.1.19-6.1,0h-10l0,5.46.36-.43,0,4.6,0,3L24.14,45c.87,3.28.59,11.56,1.62,16.69-.3-.42-.73.67-1-.49C25,66.4,25.45,72,25,75.1l-.34-1.73c-.08,11.47.1,27.4.88,33.41.14,3.92-.53,3.83-1,4.88a129.57,129.57,0,0,0,1.14,16.42,44.8,44.8,0,0,1-.59,4.55l.93,2.51c-.09,2.78-.73.65-.94,2.85,1.21,10.33.4,22.41.56,29.67l.44-1c.39,3-.17,8.84-.67,5.28-.35,14.37,1.68,21.29,1.7,40.71-1.6,2.73.7,17.5-1.09,20.38.57,8.2-.09,13.49,1,19.19-.18.17-.25.89-.3-.42-.64,3.26,0,14.06.58,22.28l-.55.47c1.23,3,1.07,17.16,2.3,20.11-.25.91-.53-1.56-.76-2.71-1.08,4.31.64,7.5.45,13-.3-.42-.62,1.21-.85.06-1.06,18.37,1.47,45,.89,68.93,0,6.66,1.24-2.43,1.25,6.27-.58,2.52-1.28-4.24-1.47,1.28.8,4,.66,5.46.66,10.82-.41-1-.66-.09-1-3.84-.46,3.09,1.12,13.11.2,19.27.36-.31.59.81.82,2,1.16,9.05-.79,20.79-.19,21.63,0,0,.21,3.17.3.41,0,3.33-.09,8.12-.69,7.29a29.74,29.74,0,0,1,1,5.88L29,443.47c.17,1.51.63,3.25.73,4.73l.39-2.36a14,14,0,0,0-.11,1.59v.88l0,1.54c.06,2.12.16,4.26.24,6.14,3.92-.16,6.77-.21,6.56.45l-2.32.06,3.19.11,1.88.13,3.56.25a41.71,41.71,0,0,1,10.49-1c1.86,1.35,12.19.14,18.28.21l-.27.48c4.76-.73,16.95-.58,14.74-.79,4.63-.07,10.89.19,8.59.65,3.76-.32,11.72-.41,13.69-1.23l7.58,1.06c4.52-1.76,15.14.42,15.57-1.39,4.22.23,3.25.64,6.18.92,5.86-1,11.93-.89,18-.82l.16.19c6.1.07,13.25-.93,21.8-1.13l1.82,1.35c4.48-.25,5.56-1.33,9.81-1.09,1,.2.05.28-1.08.37a86.94,86.94,0,0,1,13,.25c6.44-1.07,11.39-.77,17.07-1.91,5,1.15-7.48.63-3.16,1.71,9.17.53,18.53-.27,28.61-1,.87.25-.25.48-.67.78,0,0,20.43-3.57,16.6-4.83,2.52-.93,5.39-1.51-3.24-2.15-2.85.57-10.92,1.32-12.45.34l-.5,1c-11.53.59-1-1.95-14.92-1.75l2.93.28c-2.61.09-4.71.73-7.66.45-.89-.25,1-.41,2.13-.64l-11.48,1.44c-.49-.55-.06-.85,2.23-1.3-10.55.18,2.15,1.72-10.75,1.51-2.34-.39.82-.6,2.52-.94-6-.74-10,.06-16.15.66-.1-.85,4-.8-1.12-1.28,1,.43,1.67,1.17-2.24,1.3,1.88-.88-3-.42-6.8-.59.78.29.49.69-1,.86-1.87.16-3.47-.16-6.09-.07l4.69.78c-6.56.89-10.3-.3-15.29-.6a9.08,9.08,0,0,1,2.27-.34c-5.27-.28-10.69-.9-17.33-.07l.57-.11c-12.52,1,3.88,1.38-10.69,2.35-4.8-.12,2.26-2.81-8.8-1.68,5.26.67-7.13,1.85-13.44,2.26l6.51-1.74c-2.55,0-7,.53-8.36.38l.32.37c.5,1.4-8.16-.09-12.73.82,5.66-2,6-1.62,7-3.55a64.48,64.48,0,0,1-17.68,2l6.67-1.56c-10.85-.19-23.58,2.14-32.48,3.49,2.39-1.12-1.28-1.46,2.59-2.45l-10.42.36,2.93-1.23c-4.25,1.28-8.94.5-8.22,2.08a8.12,8.12,0,0,1,3-.39c-.25.48-2,1.49-7.43,1.49-3.64-.35,2.13-.64,1.11-1.08-3.45.69-3.67-.35-7.26.16l3.22.64a12.11,12.11,0,0,1-4.36.47c-.81,0-1.65,0-2.51,0-.43,0-.86,0-1.3,0a10.16,10.16,0,0,0-1.06.13c.45-.05.73-.11,1.08-.17a8.67,8.67,0,0,0,.88-.18c.44-.12.62-.24.61-.37s-.77-.51-1.57-.78l.23.12h-.44l-.3,0-.66.11c-.46.08-1,.16-1.47.21a3.42,3.42,0,0,1,.15-1.7,1.4,1.4,0,0,0,1.28.06q-.47-.07-.94-.91c.14-1.44.58-2.48.85,0,.62-11.92-2.73.37-1.76-15.23.48.26.83,2,.6,6.19.78.67,1.21-.38,1.44-4.6.06-.08.1,0,.14,0C37,426.47,36.91,415.91,36,410.59Z"/><path class="cls-2" d="M37.06,434.57c0,4.33.1,8,.29,9.68C37.58,443.44,37.85,434.34,37.06,434.57Z"/><path class="cls-2" d="M252.1,35l-.15-1.6Z"/><path class="cls-2" d="M252.92,69.37a8.22,8.22,0,0,0,.26-1.81C252.93,67.56,252.74,68,252.92,69.37Z"/><path class="cls-2" d="M32.09,116.93v0Z"/><path class="cls-2" d="M136.71,32.16c3-.45,4.12-.8,4.28-1.13C139.09,31.16,137.53,31.47,136.71,32.16Z"/><path class="cls-2" d="M70.74,32.5c-.42.07-.87.13-1.24.21C70.47,32.62,70.74,32.56,70.74,32.5Z"/><path class="cls-2" d="M32.85,127.23c-.45-2.9-.48-7-.76-10.3C32.35,119.77,32,125.25,32.85,127.23Z"/><polygon class="cls-2" points="254.84 111.27 254.16 107.84 254.66 111.44 254.84 111.27"/><path class="cls-2" d="M254,79.14c.14-1.44-.34-7.08-.66-5.44A50.59,50.59,0,0,1,254,79.14Z"/><polygon class="cls-2" points="183.39 28.84 182.02 29.55 184.86 28.98 183.39 28.84"/><polyline class="cls-3" points="62.97 69.22 64.65 68.25 52.16 78.56 73.71 66.12 53.27 80.55 81.98 63.97 54.05 82.63 80.3 67.47 51.92 86.73 82.15 69.28 50.79 90.08 84.73 70.48 52.57 92.95 87.74 72.64 51.37 96.85 93.54 72.5 54.36 98.68 95.11 75.16 53.9 101.52 94.71 77.96 52.43 106.62 99.53 79.43 55.31 109.45 99.9 83.7 61.16 110.3 97.98 89.04 65.03 112.13 101.36 91.15 70.51 113.48 102.97 94.73 71.21 116.81 95.08 103.03 76.91 116.34 95.16 105.81"/><text class="cls-4" transform="translate(69.35 94.58)">A</text><polyline class="cls-3" points="119.47 56.72 121.15 55.75 108.66 66.06 130.21 53.62 109.77 68.05 138.48 51.47 110.55 70.13 136.8 54.97 108.42 74.23 138.65 56.78 107.29 77.58 141.23 57.98 109.07 80.45 144.24 60.15 107.87 84.35 150.04 60 110.86 86.18 151.61 62.66 110.4 89.02 151.21 65.46 108.93 94.12 156.03 66.93 111.81 96.95 156.4 71.2 117.66 97.8 154.48 76.54 121.53 99.63 157.86 78.65 127.01 100.98 159.47 82.23 127.71 104.31 151.57 90.53 133.41 103.84 151.66 93.31"/><text class="cls-4" transform="translate(125.85 82.08)">B </text><polyline class="cls-3" points="184.97 85.88 186.65 84.91 174.16 95.22 195.71 82.78 175.27 97.21 203.98 80.64 176.05 99.29 202.3 84.14 173.92 103.39 204.15 85.94 172.79 106.74 206.73 87.15 174.57 109.61 209.74 89.31 173.37 113.51 215.54 89.16 176.36 115.35 217.11 91.82 175.9 118.18 216.71 94.62 174.43 123.28 221.53 96.09 177.31 126.11 221.9 100.37 183.16 126.96 219.98 105.71 187.03 128.79 223.36 107.82 192.51 130.14 224.97 111.4 193.21 133.48 217.07 119.7 198.91 133.01 217.16 122.47"/><text class="cls-4" transform="translate(191.35 111.25)">C </text><polyline class="cls-5" points="48.17 168.39 52.34 165.98 52.93 168.74 66.67 160.81 49.82 174.09 82.69 155.11 50.68 177.83 100.81 148.89 55 178.44 106.04 148.97 51.71 184.16 108.05 151.63 54.47 185.62 109.41 153.9 58.66 186.5 105.1 159.69 59.73 190.31 106.64 163.23 57.77 196.02 108.34 166.82 57.93 199.81 112.97 168.03 58.98 202.36 115.53 169.71 59.91 204.41 112.84 173.85 60.06 208.06 112.08 178.03 66.33 208.77 114.56 180.93 61.48 215.65 115.27 184.59 63.27 217.06 115.95 186.65 63.35 220.53 118.2 188.86 68.6 221.61 121.57 191.03 74.52 222.76 124.11 194.13 89.51 217.06 122.85 197.82 108.13 209.88 122.08 201.82 117.98 206.64 124.37 202.95"/><text class="cls-6" transform="translate(79.9 195.23) rotate(-19.45)">A</text><polyline class="cls-5" points="156.78 157.66 160.27 155.65 160.72 158.49 166.41 155.2 156.68 164.37 173.06 154.91 156.42 168.76 179.98 155.16 159.92 169.84 183.85 156.02 155.62 176.14 191.72 155.3 157.58 178.06 197.77 154.86 160.9 179.45 198.52 157.72 160.8 183.94 206.87 157.34 157.63 190.34 214.34 157.6 156.77 194.72 217.94 159.41 156.99 197.75 219.68 161.56 157.24 200.19 216.3 166.09 156.39 204.42 214.55 170.84 161.52 205.78 215.89 174.4 155.6 213.28 215.53 178.68 156.74 215.07 215.56 181.11 156.27 218.86 216.89 183.86 167.84 216.29 219.17 186.65 173.28 217.71 220.5 190.45 180.44 216.54 218.46 194.59 189.66 214.78 216.76 199.13 193.04 215.28 218.4 200.64 193.53 217.87 220.05 202.56 205.05 214.19 218.63 206.35 205.42 216.52 215.76 210.55 208.85 216.93 217.91 211.7 217.5 215.3 218.9 214.49"/><text class="cls-6" transform="matrix(1, -0.03, 0.03, 1, 178.78, 192.72)">B</text><polyline class="cls-5" points="113.05 232.69 116.46 230.73 115.57 234.34 120.29 231.62 109.89 241.16 124.31 232.84 107.68 246.69 128.07 234.91 109.75 248.59 129.64 237.11 103.7 255.9 134.67 238.03 104.25 258.64 138.45 238.9 106.05 260.9 136.75 243.18 103.92 266.57 141.8 244.69 98.65 274.18 147.12 246.2 96 279.59 154.82 245.63 94.77 283.46 159.88 245.87 93.83 286.59 159.24 248.82 93.4 290.57 161.43 251.3 103.1 289.3 167.34 252.21 101.48 294.31 166.73 256.64 105.2 294.61 165.64 259.72 108.07 296.47 165.35 263.4 116.58 295.67 165.75 267.28 118.63 299.05 164.98 272.29 123.59 299.15 161.58 277.22 130.16 298.92 158.24 282.7 131.72 300.47 158.76 284.86 130.07 304.29 159.08 287.54 139.38 301.88 156.3 292.12 137.86 305.31 152.26 297 139.51 306.75 153.32 298.78 145.24 306.8 150.58 303.72 147.59 309.84 151.05 307.84"/><text class="cls-6" transform="matrix(0.95, 0.33, -0.33, 0.95, 121.18, 273.02)">C</text><polyline class="cls-7" points="68.43 332.16 69.18 331.73 61.83 340.07 74.87 332.54 64.74 341.7 79.72 333.05 58.51 347.76 88.64 330.36 60.72 349.05 91.02 331.55 52.76 356.43 92.19 333.66 56.91 357.22 101.58 331.43 54.77 362.19 102.35 334.73 57.21 363.34 101.73 337.63 61.33 365.31 106.01 339.51 62.43 367.43 105.01 342.84 60.86 372.38 104.47 347.21 67.01 372.8 111.69 347.01 67.79 376.49 109.5 352.41 63.61 382.78 112.53 354.54 67.95 383.34 112.96 357.35 72.91 383.14 112.02 360.56 76.7 385.05 110.27 365.67 87.98 382.98 101.86 374.97 88.94 385.53 103.05 377.38 98.94 383.18 100.06 382.54"/><text class="cls-6" transform="translate(73 372.33)">A</text><polyline class="cls-7" points="130.79 376.49 131.54 376.05 124.19 384.4 137.23 376.87 127.1 386.02 142.08 377.37 120.87 392.08 151 374.69 123.08 393.37 153.38 375.88 115.12 400.75 154.55 377.99 119.27 401.55 163.94 375.76 117.13 406.52 164.71 379.05 119.57 407.67 164.09 381.96 123.69 409.63 168.37 383.84 124.79 411.75 167.37 387.17 123.22 416.71 166.83 391.53 129.37 417.13 174.05 391.33 130.15 420.82 171.87 396.74 125.97 427.11 174.89 398.86 130.31 427.66 175.32 401.68 135.26 427.47 174.38 404.88 139.06 429.37 172.63 409.99 150.34 427.31 164.22 419.29 151.3 429.85 165.41 421.7 161.3 427.51 162.42 426.86"/><text class="cls-6" transform="translate(135.36 416.66)">B</text><polyline class="cls-7" points="190.79 302.13 191.54 301.7 184.19 310.05 197.23 302.52 187.1 311.67 202.08 303.02 180.87 317.73 211 300.33 183.07 319.02 213.38 301.52 175.12 326.4 214.55 303.63 179.27 327.19 223.94 301.4 177.13 332.17 224.71 304.7 179.57 333.31 224.09 307.61 183.69 335.28 228.37 309.48 184.79 337.4 227.37 312.81 183.22 342.35 226.83 317.18 189.37 342.77 234.05 316.98 190.15 346.47 231.87 322.38 185.97 352.75 234.89 324.51 190.31 353.31 235.32 327.32 195.26 353.11 234.38 330.53 199.06 355.02 232.63 335.64 210.34 352.95 224.22 344.94 211.3 355.5 225.41 347.35 221.3 353.15 222.42 352.51"/><text class="cls-6" transform="translate(195.36 342.31)">C</text><polygon class="cls-8" points="393.32 200.67 394.22 201.48 399.73 201.64 393.32 200.67"/><path class="cls-8" d="M448.22,211.18c5,.19,14.54,1.44,14.93.16l-9.12-.43c-1.07-1.21-6.94-2.19-12.18-2.8l5.89,1c-1.54-.14-.68.66-2.22.52-8.9-2.11-11.44-1.16-19.55-3.72l.49,0-6.66-.53c-2-.52-1.14-.83-.44-.89A161.2,161.2,0,0,1,401,202.21c5.81,2.88,17.63,1.71,23.42,4.6l-.48,0C431.68,207.53,440.37,210.28,448.22,211.18Z"/><path class="cls-8" d="M419.35,204.46l.52,0C419.84,204.45,419.61,204.44,419.35,204.46Z"/><path class="cls-8" d="M736.06,263.73l.61-.18-.61,0a.75.75,0,0,0-.3,0c-.05,0-.07,0,0,.07l.09,0A1.23,1.23,0,0,0,736.06,263.73Z"/><path class="cls-8" d="M639.72,242.8l.46.12C640.87,242.63,640.53,242.67,639.72,242.8Z"/><path class="cls-8" d="M433.66,14.65l-1.82-.75A2.7,2.7,0,0,0,433.66,14.65Z"/><path class="cls-8" d="M400.37,139.43l0,.2Z"/><path class="cls-8" d="M416.51,81.18l.41-.19C416.76,80.7,416.63,80.82,416.51,81.18Z"/><path class="cls-8" d="M409.73,123.31c-.3,1.16-.58,2.29-.8,3.46A13.71,13.71,0,0,0,409.73,123.31Z"/><path class="cls-8" d="M400.44,138.13c0,.4,0,.85-.08,1.3A10.79,10.79,0,0,0,400.44,138.13Z"/><path class="cls-8" d="M428.11,20.12a1.43,1.43,0,0,1,.43.18,7,7,0,0,1,.62.63,2.66,2.66,0,0,0-.72-.76A.64.64,0,0,0,428.11,20.12Z"/><path class="cls-8" d="M408.63,133.82a10.46,10.46,0,0,0-.73,2.14A5.88,5.88,0,0,0,408.63,133.82Z"/><path class="cls-8" d="M456.78,212.64c-1.2-.2-2.55-.42-4.2-.61A27.52,27.52,0,0,0,456.78,212.64Z"/><path class="cls-8" d="M661.7,62.38a2.23,2.23,0,0,0-.82.23C661.83,62.69,661.91,62.57,661.7,62.38Z"/><path class="cls-8" d="M523,37.43l-.46,0a5.26,5.26,0,0,0,.55.25Z"/><path class="cls-8" d="M563.5,44.52a4.54,4.54,0,0,0-.58.11C563.33,44.61,563.44,44.56,563.5,44.52Z"/><path class="cls-8" d="M492.17,33a10,10,0,0,0-1.48.07Z"/><path class="cls-8" d="M463,26.74c1.25.57-.21.64-1.65.71,7.23,1.76,9.87,1,17.32,3.19l-3.49-1.1c5,.19,14.13,1.66,18.37,3.35l-1.42.06c4.81.08,11.92,2.79,14,2.51-1.85-.76.2-.63-2.71-1.55l12,1.34.66,1.44,6.32.69c-1.45-.79,8.3,1.9,8.68.72,3.48,1.1-1.64.71-3,1,3.58.26,3.86.87,7.26.72l3.28,1.73,9.31.84c-.48,0,.07.2-.39.23,4.36-.2,10.54,2.45,16.17,1.78-.28,0-.22.08-.31.14,3.08-.36,10.18,1.57,12.78,2.23,4.77.63,2.15-.72,2.43-1.16,13.65,2.74,9.29,1.88,21,2.61,6.64,2.63-8.54.8,0,3.34,1.29-.47,7.46.08,14.36,1,6.19,1.6,16.62,3.85,22.52,5.89l-.46-1,8.91,1.07-5.25.44c1.46-.06,6,.15,9,.22,9.3.84,4.84,2.93,12.19,2.8a4.32,4.32,0,0,1,.62.41c2.41-.3,8.38,1,15.34,2l-2.62.75L670,64.08c2.21,1.57,7.46,1.13,11.81,2,4.64.41,2.54-.95,5-.86,1.64.35,4.16.44,5.42,1,4,1.08.18,1.46-1.17,1.73,3.69-.58,4.86-.22,12.69.68.31.64-.3.79-1.35.72a10.1,10.1,0,0,0,4.05-.22L709,70.27c8.63,2.55,9.12-.62,19.58,1.63-2.92.13,9.1,1.47,12.19,2.8-3.68-.46,1.44,2-.9,2.35,8.34,1.93,3.6-.79,10.47.15l-3,1c6.68.53,1.74-.5,8.53.24-1.92.09,2.9.92-1.16.68l7.46,1.42,2.46.46,3.9.78a6,6,0,0,1,.7-1.33c1,.06,1.36.4,1.32.66s-.31.41-.42.54l0-.28c-.34-.05-.68-.11-.75,0s0,.39.09.44c-.12.28.09.36.16.67a.86.86,0,0,1,0,.24.81.81,0,0,1,0,.13l-.06.28A7.58,7.58,0,0,1,768.9,85c.6-.78,1.4-1.64.91,1.56-.68-1.17-1.67,4.74-2.08,4.91,1-1.91-.95,6.88-.08,7.48-1.31,3.58-.47-1.28-.91-1.57.56,3.22-2.14,12.9-2,15.8-.1,0-.19.19-.24.17,0,4-1,10.5-1.43,18.42l-.34-2.8c-1.75,7.75.86,5.05-.31,11.54-.91-1.57-1.82,10.74-2.59,7.63,0,4-.47,8.16.07,10.86-1.31,3.58-.33-7.28-1.57-2.24l-.37,5.61-.8.87c.43.31-.4,5.14,0,5-.9.73-1.82,2.85-2.35,2.5-.4,3.52-2,8.29-1.85,11.32l-.41.19c.79,3.6-1.61,10.65-.47,12.59l-1.16,2c-.81,5.33.83,4.58.74,7.1-.32,2.13-.62,4.75-1.15,7,.31-7.08-1.74,3.29-2.51,4.63-.51,2.71-1.82,10.75-1.5,13.07-.15-3.41-1.11-1.47-.12-7.37-2,2.91-1.27,9-2.65,15.58l-.64-.18c-1.24,9.48-.17,10,.23,14.24-1,1-1.05,0-1.39-2.82-.43,1.68-.84,3.64-1.23,5.74-.45,2.46-.6,3.46-.85,5.09l-1.86-.28-2.26-.36c-1.84-.3-3.6-.61-5.22-.92-2.12-1-.6-1,1.79-.88-7.41-.68-16.3-3.06-21.15-2.44,1.9-.25-2.87-.9-5.52-1.65a.9.9,0,0,1-1,.49c-4.57-.22-14.53-1.44-19.67-2.88l2-.08c-12-2.39-17.75-.87-30.72-4.27-2.31-.73,2.64-.74-2.2-1.57-2.44.11-1.86,1.34-7.95-.06l.58-.87-4.36.2c2,1.16,8.9,2.11,4,2.13-5.33-1.86-4.95,0-11.43-2.21a20.33,20.33,0,0,0,4.87-.36c-13.78-3.61-19.74-2.58-33.69-6.29-7.18-.52-16.28-2-21.29-2.17.57-.87.67-1.71,4.07-1.86-6-1.2-9.21.42-13.17-1.71-3.12.77-16.86-2.17-18.62-.62-.18-.41-6.48-1.17,0-1-8.33-.88-10.54-3.5-14.31-4.17-2.12-.32,2.21,1.58-2.62.75-.58-.18-.68-.39-1.27-.57l-1.93.09c-1.85-.76,2.25-.52,2.52-1-6.68-1.59-11.33-1-19.34-2.26l1.43-.07-8.12-1.52.48,0-6.67-.54.28-.43a36.8,36.8,0,0,1-4.07-.23l.78-.45c-2.24.52-10.07-.38-13.86-1l-.68-.39-9.11-.42c-4.63-1.47,6.3-.29-3.19-1.54l2.63-.75c-6.77-.74-7.66-1.54-12.3-2,2,1,5.14,1.45,2.7,1.55-5-2.29-8.46-1.15-13.6-1.51,2.57.43,4.3.75,6.17.38,2.7.51.86.8,2.52,1.15l4,0,.95,1,6.69.54c-.58.87,6,1.2,3.28,1.74,4.67.42,7.17,1.57,11.53,1.36,3,1.12-5-.19-1.75.5,18.5,2.52,37.46,6.06,56.53,9.8l-1.93.09c1.93-.09,4.45,0,5.9-.07,3.11,1.33,15.47,4.54,20.14,3.91.6.19-.4.23-.88.25,6.4,1,17.7,4,26.79,5.49,4.1-.81,13.46,3.37,17.26,1.94l-2,.09c-3-1.12,4.66-.63,6-.9,2.31,1.78,0,1,2.81,2.81l-3.51-1.11.6,1.24c12-.76,21.21,5.12,28.74,4.35-.46,0-.38.23-.86.25,4.65,1.47,8.25.68,11.82.93.3.62-2.25.52-4.16.61,8.3,1.92,22.65,3,31.73,5.47,3.39-.16-1.05-1.21,2.44-1.16,2.82.71,4.73,1.67,1.15,1.42,7.74,2.79,26.53,3.82,38.53,7.26a26.68,26.68,0,0,0,5-.1,16.29,16.29,0,0,1,2.32,0l.95.07.55.05.88.11,4.51.6c-1.54,0-.52.64,0,1.13s.13.77-5.4-.18l-.17,0-.1.06-.2.11-.4.23,9.62,1.78,2-11.23c.38-2.24.73-4.44,1-6.52a46,46,0,0,0,.56-10.15c1.26-.09.55-1.74,1.86-5.33.14-1.53-.21.1-.39.7-.38-3.79,1-5.43,1.31-8l0,1,.51-7.18c.36-1.15.91-2.87,1.32-3.05l-.84-.11c.67-3.79,1.39-1.64,2-6.4l-.8.88c.92-2.92.91-7.87,1.93-8.33.2-.1,0,.48-.14,1.55,2.11-4.46,1.75-12.2,3.38-17.89L757,187c.58-5.72.9-3.4,1.33-3.1.67-3.78,1.26-4.53,2.29-9.48.09-2.52-.27-1.37-.52-2.23l1.24-5,.15,3.4c-.58-8.16,3.72-19.56,2.85-25.09.92-2.9.34,2.8.89,1.07,2.53-9.11,2.41-20.92,4.79-28.46,1.51-5.84,2.68-12.17,3.82-18.69l1.73-9.87.92-5,1.7-8.83-4.41-.89q.12.21.22.41l-4.36-.86-2.47-.52-4.93-1c-2.82.34-9.5-1.25-13.86-1,.39-.23-.41-.83.58-.87-4.25-.64-8.9-1.06-11.31-2l1.47-.06c-9.3-1.89-22.28-4.23-27.3-4.42-3.21-.49-3-1.13-3.79-1.72a89,89,0,0,0-13.55-1.48,31.11,31.11,0,0,1-3.59-1.3l-2.21.52c-2.24-.53-.39-.82-2.14-1.37-8.62-.44-18.28-3.15-24.2-4.14l.77.59c-2.51-.09-7.15-1.56-4.16-1.49-11.61-2.62-17.61-1.71-33.38-4.77-1.92-2-14.34-2.08-16.35-4.29-6.76-.73-10.94-2.23-15.79-2-.11-.21-.67-.39.39-.23-2.53-1.14-11.43-2.21-18.2-2.95l-.28-.61c-2.63.74-14.14-1.67-16.77-.92-.69-.39,1.36-.27,2.34-.31-3.3-1.74-6.21-.56-10.66-1.61.39-.23-.87-.8.11-.84-14.72-3.95-36.81-5.67-56.15-10-5.42-1,1.74,1.6-5.33.24-1.94-1,3.69-.59-.77-1.64-3.39.15-4.56-.21-8.91-1.06.86-.25.2-.64,3.3-.36-2.43-.94-10.85-1-15.69-2.85.19.41-.77.45-1.74.5-7.57-.29-16.74-4.06-17.53-3.61,0,0-2.61-.3-.39.23-2.71-.51-6.57-1.38-5.79-1.83a20.71,20.71,0,0,1-5,0l1.28-.48c-1.26-.07-2.76.1-4,0l1.84.76a12.85,12.85,0,0,0-2.34-.56l-1.33-.19-.71-.09-1.1-.16a31.23,31.23,0,0,1-6.45-1.26c-.12.17-.25.17-.38-.06l.06-.39,1.48.24-1.57-.37-1,4.34-.54,2.28-.27,1.16-.07.29,0,.16-.09.3a28.77,28.77,0,0,1-.65,8.71c-1.62,1.26-2.07,9.88-3.1,14.81l-.43-.31c0,4-2.1,13.87-1.55,12.12-.67,3.77-1.91,8.81-2,6.86-.28,3.11-1.45,9.6-1,11.35l-2.24,6c1,4-2.81,12.22-1.1,12.9-.89,3.39-1.14,2.52-1.88,4.84,0,4.94-1,9.85-2,14.8l-.21.1c-1,4.94-1.18,10.94-2.33,17.92L401,132.41c-.46,3.68.43,4.76-.48,8.17-.35.77-.29,0-.19-.95a59.61,59.61,0,0,1-2.3,10.5c0,5.43-1,9.4-.82,14.22-1.92,3.87.56-6.19-1.18-2.89-2,7.35-2.67,15.1-3.55,23.42-.38.66-.43-.3-.66-.69,0,0,.27,17.26,2.12,14.38.52,2.22.63,4.66,2.62-2.23-.11-2.42.43-9.12,1.64-10.17l-.86-.58c1.24-9.48,2.08-.48,4.08-11.8l-.74,2.33c.32-2.14,0-4,.76-6.3.39-.67.25.89.29,1.85l.4-9.59c.62-.3.84.11.93,2.05,1.5-8.61-2,1.43.22-9,.75-1.83.45.78.52,2.22,1.67-4.72,1.52-8.13,1.91-13.24.85.08.16,3.38,1.44-.67-.59.75-1.41,1.14-.93-2.06.57,1.69.88-2.35,1.65-5.41-.4.58-.76.27-.69-1,.14-1.55.71-2.79,1-4.93l-1.51,3.66c.16-5.5,1.93-8.31,3-12.31a6.32,6.32,0,0,1,0,1.91c1.11-4.22,2.57-8.52,2.81-14.07l0,.48c1-10.36-2,2.9-.62-9.12.87-3.88,2.41,2.36,3-6.84-1.49,4.15-.69-6.13-.09-11.34l.68,5.61c.39-2.07.58-5.75.95-6.86l-.41.19c-1.45.14,1.38-6.61,1.21-10.49,1.06,5,.65,5.16,2.38,6.35a44.61,44.61,0,0,1,.8-14.74L421,68.2c1.9-8.78,1.62-19.56,1.71-27,.72,2.15,1.64-.77,2,2.56L426,35.2l.75,2.61c-.59-3.69.92-7.35-.74-7.06a5.65,5.65,0,0,1-.09,2.51c-.44-.29-1.14-1.94-.29-6.31.92-2.89.29,1.85.88,1.1-.13-2.93.92-2.92,1-5.92l-1.14,2.49a5.35,5.35,0,0,1-.1-1.68c0-.29.06-.59.12-.9l.08-.46.08-.36A15,15,0,0,0,427,18.1h.17c-.09,0-.17,0-.17,0-.06,1.43.09,1.89.31,2s.51,0,.79,0l-.12,0c0-.16,0-.33,0-.53.41,0,.89-.07,1.42,0a3.55,3.55,0,0,1,.75.11c.08,0,.33.09.49.15a3.1,3.1,0,0,1,.49.22l-1,.47a1.86,1.86,0,0,0-.33.59,1.41,1.41,0,0,1,.22-.2s.21,0,.33-.06l.41,0,1.65-.18c1.15.37,1.91,1-.12.84,9.56,2.5.21-2.74,12.7.68-.3.43-1.75.5-5.14-.39-.69.66.08,1.25,3.47,2.15.05.07,0,.1,0,.14C450,25.2,458.55,26.8,463,26.74Z"/><path class="cls-8" d="M443.36,24c-3.53-.64-6.51-1.17-7.92-1.25C436.07,23.11,443.4,24.81,443.36,24Z"/><path class="cls-8" d="M732.29,256.38l1.32.11Z"/><path class="cls-8" d="M704.2,251.75a5.74,5.74,0,0,0,1.43.54C705.66,252,705.34,251.79,704.2,251.75Z"/><path class="cls-8" d="M702.3,69.33h0Z"/><path class="cls-8" d="M754.39,166.95c0,2.52.14,3.5.43,3.69A5.71,5.71,0,0,0,754.39,166.95Z"/><path class="cls-8" d="M764.49,113.31c0-.35,0-.73,0-1C764.41,113.06,764.43,113.29,764.49,113.31Z"/><path class="cls-8" d="M693.8,68.45c2.44,0,5.75.63,8.51.88C699.95,69.14,695.56,67.94,693.8,68.45Z"/><polygon class="cls-8" points="669.8 247.02 672.72 246.89 669.7 246.81 669.8 247.02"/><path class="cls-8" d="M696.06,251.28c1.15.37,5.81.79,4.54.21A34.93,34.93,0,0,1,696.06,251.28Z"/><polygon class="cls-8" points="750.27 205.48 749.79 204.24 749.9 206.66 750.27 205.48"/><polygon class="cls-9" points="368.25 463.02 369.2 463.51 373.58 461.98 368.25 463.02"/><path class="cls-9" d="M414.68,456.18c4-1.36,11.89-3.08,11.81-4.42l-7.31,2.39c-1.21-.82-6.13,0-10.44,1.07l4.94-.86c-1.26.34-.34.84-1.59,1.18-7.65.72-9.36,2.4-16.53,2.45l.38-.17-5.41,1.54c-1.76.13-1.15-.44-.62-.71a113.91,113.91,0,0,1-15.15,3.5c5.46,1,14.41-3.77,19.84-2.81l-.37.17C400.55,457.78,408.22,457.73,414.68,456.18Z"/><path class="cls-9" d="M389.89,458.64l.42-.12S390.1,458.54,389.89,458.64Z"/><path class="cls-9" d="M657.29,417.92l.22-.33C657.13,417.76,656.78,417.93,657.29,417.92Z"/><path class="cls-9" d="M575.11,427.55l.4,0C576,427,575.71,427.18,575.11,427.55Z"/><path class="cls-9" d="M357.25,310l-1.66-.16A2,2,0,0,0,357.25,310Z"/><path class="cls-9" d="M356.13,412.3l0,.16Z"/><path class="cls-9" d="M353.6,361.52l.33-.28C353.69,361.06,353.6,361.2,353.6,361.52Z"/><path class="cls-9" d="M360.07,396.76c.07,1,.15,2,.31,3A9.7,9.7,0,0,0,360.07,396.76Z"/><path class="cls-9" d="M355.8,411.25c.12.31.23.68.33,1A7.67,7.67,0,0,0,355.8,411.25Z"/><path class="cls-9" d="M351.78,316.94l1.53.73C353.24,317.37,352.48,317.16,351.78,316.94Z"/><path class="cls-9" d="M362.25,405.37a7.49,7.49,0,0,0,0,1.9A4.23,4.23,0,0,0,362.25,405.37Z"/><path class="cls-9" d="M421.86,454.95c-1,.18-2.14.38-3.5.71A19.43,19.43,0,0,0,421.86,454.95Z"/><path class="cls-9" d="M551.37,285.44a1.77,1.77,0,0,0-.57.47C551.56,285.7,551.58,285.56,551.37,285.44Z"/><path class="cls-9" d="M434.51,304.25l-.38.09a3.86,3.86,0,0,0,.51.07Z"/><path class="cls-9" d="M468.59,298.56a3.46,3.46,0,0,0-.42.28C468.48,298.7,468.56,298.62,468.59,298.56Z"/><path class="cls-9" d="M408.9,309.43a7.31,7.31,0,0,0-1.14.52Z"/><path class="cls-9" d="M384.07,312.45c1.16.16,0,.67-1.09,1.17,6.23-.54,8.08-2.05,14.61-2.27l-3.08,0c4-1.36,11.64-2.75,15.48-2.44l-1.1.5c3.81-1.4,10.23-1,11.81-1.91-1.68-.15,0-.66-2.6-.65l9.88-2.41,1,1.16,5.19-1.28c-1.38-.3,7.11-.74,7.05-2,3.07,0-1.08,1.17-2.07,1.84,2.9-.85,3.31-.35,5.94-1.54l3.11.64,7.59-2.06c-.37.17.12.17-.23.34,3.37-1.52,9-.9,13.28-3.26-.22.1-.15.14-.2.22,2.32-1.28,8.49-1.63,10.75-1.8,3.95-.86,1.48-1.34,1.57-1.84,11.58-1.58,7.89-1.06,17.36-4,6,.46-6.48,3.38,1,3.16.88-.84,5.9-2.21,11.63-3.42,5.36-.37,14.26-1.44,19.53-1.31l-.68-.83,7.34-1.72-4,2c1.13-.51,4.77-1.69,7.17-2.55,7.58-2.05,4.7,1.29,10.45-1.08a3.36,3.36,0,0,1,.61.2c1.81-1,6.92-1.58,12.69-2.79l-1.84,1.51-3.82.36c2.22.82,6.22-1.21,9.9-1.74,3.78-1,1.71-1.68,3.71-2.36,1.4-.17,3.41-.86,4.58-.7,3.44-.19.59,1.33-.4,2,2.73-1.68,3.76-1.69,10.2-3.24.44.51,0,.84-.84,1.1a7.39,7.39,0,0,0,3.13-1.44l2.32.32c7.57-.23,7-3.38,15.92-4.45-2.26,1,7.61-1.39,10.45-1.08-3,.69,1.75,1.49,0,2.5,7.15-.72,2.6-1.85,8.29-3.06l-2.08,1.85c5.42-1.54,1.22-1,6.79-2.38-1.49.68,2.57,0-.7,1,3.69-.53,5.05-.74,6.3-.94l2.07-.31,1.5-.21,1-.13.29,0a7.89,7.89,0,0,1,.37-1.51c.83-.25,1.17,0,1.17.23s-.16.45-.22.6l0-.23c-.29.05-.57.1-.61.25s.06.38.14.4c0,.27.19.24.35.43a.55.55,0,0,1,.11.51s0,0,0,.08v.2a5.74,5.74,0,0,1-.11.87c.33-.79.82-1.72,1.34,1-1-.72-.13,4.24-.47,4.5.32-1.8,1.21,5.7,2.21,5.91-.14,3.21-.84-.86-1.34-1,1.52,2.36,1.92,10.81,2.93,13.06-.08.06-.12.2-.18.2,1.2,3.17,2.25,8.58,4.28,14.94l-1.18-2.11c.72,6.64,2.36,3.72,3.23,9.18-1.34-1,1.56,9-.12,6.79,1.19,3.15,2,6.57,3.39,8.53-.14,3.21-2.54-5.64-2.17-1.29l1.36,4.53-.49.93c.5.11,1.2,4.17,1.53,3.9-.63.85-.86,2.8-1.46,2.68.7,2.9.66,7.14,1.71,9.47l-.33.28c1.85,2.59,1.73,8.88,3.4,10.06l-.48,1.94c.86,4.44,2.19,3.35,2.87,5.37.34,1.77.86,3.93,1,5.84-1.87-5.67-.64,3.12-1,4.41.35,2.29,1.56,9,2.57,10.75-1.18-2.64-1.51-.82-2.37-5.77-1,2.89,1.55,7.48,2.26,13.08l-.67,0a29.75,29.75,0,0,0,2.3,7.3,24.81,24.81,0,0,1,2.34,4.23c-.76.46-1.19-.91-2.33-2.73,0,.56.05,1.14.12,1.76-.89.1-1.77.24-2.69.4l-4.21.75c-2.93.54-5.85,1.09-8.36,1.46-2-.27-.79-.81,1.14-1.38-6,1.62-13.77,2.09-17.4,4.16,1.42-.82-2.53,0-4.85.12a.79.79,0,0,1-.6.75c-3.66,1.19-11.89,3.08-16.37,3.28l1.52-.68c-10.18,1.41-14.24,4.6-25.49,5.35-2,0,1.86-1.51-2.21-.82-1.89.85-1.06,1.84-6.28,2.38l.2-1-3.37,1.52c1.94.49,7.65-.72,3.76.8-4.76-.13-3.89,1.53-9.68,1.41a14.92,14.92,0,0,0,3.72-1.83c-12,.8-16.33,3.6-28.45,4.34-5.82,1.71-13.43,3.1-17.43,4.46.19-1,0-1.83,2.64-3-5.09.7-7.13,3.22-10.89,2.41-2.22,1.68-13.94,3.1-14.86,5.11-.27-.33-5.46.87-.31-1-6.83,1.72-9.37-.09-12.54.43-1.77.34,2.22.82-1.84,1.51-.51,0-.65-.16-1.17-.15l-1.49.67c-1.68-.15,1.62-1.18,1.7-1.68-5.75.54-9.21,2.57-15.92,3.78l1.1-.5-6.86,1,.37-.17-5.42,1.53.09-.5a26.2,26.2,0,0,1-3.28,1l.48-.67c-1.61,1.18-8.05,2.72-11.23,3.25l-.65-.16-7.3,2.39c-4.1,0,4.88-2.2-3-.48l1.84-1.51c-5.56,1.37-6.5.88-10.29,1.91,1.84.32,4.49-.2,2.6.64-4.65-.63-7,1.49-11.17,2.73,2.15-.38,3.61-.6,5-1.52,2.28-.35.92.49,2.33.32l3.13-1.19,1.05.66,5.44-1.54c-.19,1,5.11-.71,3.11.64,3.8-1,6.13-.71,9.5-2.24,2.71.15-4,1.36-1.23,1,15.34-3.28,31.35-5.72,47.5-8l-1.5.68c1.5-.68,3.51-1.36,4.63-1.87,2.86.31,13.57-.43,17-2.46.53,0-.24.34-.61.51,5.34-1,15.16-1.61,22.77-3,3-2,11.63-.92,14.19-3.44l-1.51.68c-2.69-.15,3.48-2,4.46-2.7,2.36,1,.31,1,3.06,1.81l-3.1,0,.84,1c9.24-4.4,18.26-1.64,24-4.67-.35.17-.23.33-.61.5,4.11,0,6.7-1.88,9.59-2.73.43.49-1.61,1.18-3.09,1.85,7.12-.72,18.73-4.13,26.66-4.52,2.62-1.19-1.2-.82,1.57-1.85,2.44-.18,4.24.14,1.34,1,6.94.28,22.06-4.49,32.55-4.91,5.28-1.7,1.84-1.51,10.06-3.4-1.86.84,2.26,1.48-2.68,2.35l-.49.67,5.92-.89,4.56-.74,6-1c-.43-2.46-.86-4.86-1.29-7.11l-.32-1.66-.07-.32,0-.2-.1-.4-.4-1.55a22.56,22.56,0,0,0-1.78-4.83c1.16-.45,0-1.54.13-4.76-.34-1.25-.16.14-.16.67-1.52-2.87-.7-4.59-1.21-6.73l.34.74L666.72,384c0-1,0-2.54.32-2.81l-.83.17c-.52-3.19.82-1.72,0-5.66l-.49.94c0-2.58-1.55-6.47-.72-7.15.16-.14.17.37.34,1.26.63-4.15-2.07-10.14-2.27-15.12l-1.16,1.47c-1.2-4.68-.19-2.95.31-2.85-.53-3.18-.2-4-.73-8.16-.68-2-.68-1-1.18-1.6l-.36-4.33,1.19,2.63c-3-6.25-2.45-16.54-5-20.63,0-2.56,1.18,2.1,1.17.57-.39-7.94-4.12-17.21-4.17-23.87-.35-5.06-1.19-10.4-2.1-15.88l-1.38-8.3-.69-4.47-1.15-7.82-3.73.51.24.34-3.77.54L639,264l-1.05.13-4.2.53c-2.12,1.18-7.86,1.72-11.23,3.25.24-.34-.57-.66.19-1-3.54.69-7.33,1.72-9.52,1.57l1.14-.51c-7.9,1.05-18.83,2.8-22.85,4.16-2.68.52-2.72-.14-3.5-.47a62.94,62.94,0,0,0-11.12,2.74,22.34,22.34,0,0,1-3.22-.14L572,275.43c-1.92.18-.56-.66-2.1-.65-6.92,2.22-15.36,2.61-20.32,3.48l.78.33c-2,.68-6.11.71-3.73-.14-9.94,1.07-14.39,3.77-27.74,5.7-2.12-1.32-11.93,2.42-14.18.94-5.55,1.37-9.29,1.24-13,2.93-.15-.16-.65-.16.24-.34-2.34-.31-9.67,1.41-15.23,2.78l-.4-.49c-1.84,1.51-11.64,2.75-13.48,4.26-.66-.16,1-.67,1.75-1-3.13-.64-5.06,1.37-8.89,1.73.24-.34-.93-.49-.17-.83-12.79.77-30.71,5.89-47.27,7.68-4.58.7,1.86,1-4.12,1.86-1.82-.32,2.72-1.68-1.1-1.32-2.63,1.18-3.66,1.19-7.34,1.72.61-.5,0-.67,2.49-1.35-2.2-.15-8.85,2.4-13.22,2.1.27.33-.47.67-1.22,1-6,2-14.42,1.27-14.9,1.94,0,0-2.15.52-.24.33-2.29.35-5.6.71-5.12,0a14.93,14.93,0,0,1-3.9,1.53l.86-.84c-1,.31-2.14.94-3.14,1.19l1.68.15c-2.7-.14-7.6,2.06-7.66.73l.88-.17-2.49.1-1.25.05H348l-.59.06-1.19.12c-2,.63-3.76,1.21-5.89,1.74a63.21,63.21,0,0,1,1.17,6.47,3.37,3.37,0,0,0-.2,1.32,2.63,2.63,0,0,1,0,.35v.29c0,.2,0,.42,0,.65a26.18,26.18,0,0,0,.48,3.28c.48,2.44,1.16,5.22,1.43,7.32l-.5-.11c1.19,3.16,2.25,11.57,2.24,10,.52,3.17.89,7.52.21,6,.69,2.54,1.56,8,2.57,9.23l-.3,5.38c2.19,2.84,1.08,10.48,2.91,10.5.19,2.94-.31,2.33-.3,4.39,1.53,3.88,2.06,8.07,2.59,12.28l-.17.14c.53,4.21,2.23,9,3.27,14.82l-1.16,1.46c.69,3,1.86,3.62,2.05,6.58-.1.71-.27.08-.47-.69a42.1,42.1,0,0,1,1,9c1.7,4.26,1.89,7.72,3.58,11.45-.64,3.63-1.37-5-2-1.92.38,6.39,2.09,12.7,3.8,19.53-.16.64-.5-.1-.83-.34,0,0,5.54,13.51,6.41,10.69,1.17,1.59,2,3.48,1.81-2.55-.85-1.88-2.38-7.31-1.56-8.51l-1-.2c-1.72-7.84,1.82-1,.25-10.53l0,2.06c-.35-1.78-1.19-3.13-1.2-5.2.16-.65.5.62.84,1.37l-2.55-7.68c.5-.42.83-.17,1.51,1.33-1.22-7.23-1.48,1.74-2.55-7.17.15-1.67.67.48,1.17,1.59.14-4.23-1-6.86-2.24-11,.83-.2,1.18,2.61,1.16-1-.33.77-1,1.33-1.51-1.34,1.06,1.16.12-2.12-.09-4.77-.21.58-.64.44-1-.56-.34-1.26-.18-2.41-.53-4.2l-.31,3.34c-1.53-4.38-.72-7.13-.91-10.61a4.55,4.55,0,0,1,.56,1.51c-.24-3.66-.17-7.49-1.64-11.93l.17.37c-2.23-8.46-1,2.88-3.38-7-.36-3.32,3,1.13.79-6.31-.14,3.72-2.53-4.62-3.56-8.9l2.36,4.21c-.27-1.75-1.21-4.71-1.2-5.69l-.33.28c-1.33.55-.71-5.63-2.07-8.63,2.53,3.59,2.2,3.87,4.2,4.28a31.87,31.87,0,0,1-3.75-11.85l2.2,4.35c-.89-7.49-4.44-15.9-6.65-21.81,1.34,1.47,1.32-1.1,2.67,1.41l-1.38-7.11,1.51,1.83a15.34,15.34,0,0,1-1.51-4,4.6,4.6,0,0,0-.24-.68.89.89,0,0,0-.22-.15,1.48,1.48,0,0,0-.84-.12,3.32,3.32,0,0,0,.34.37,3.82,3.82,0,0,1,.27,1.21c-.25,0-.67-.36-1.09-1.07a5.94,5.94,0,0,1-.95-2.79.8.8,0,0,1,.08-.34c.36,0,.39.13.33.23.28.52.6,1.33.86,1.23a2.92,2.92,0,0,1-.36-.87,3.71,3.71,0,0,1,1,0,1.51,1.51,0,0,0,1-.22,12.18,12.18,0,0,0-1.72-.41c.21-.49,1.1-.65,1.93-.74a15.4,15.4,0,0,0,3.48-.64c-2.86.86-1.82,1.23-.64,1.6l-.18-.09c1.77-.34,4-1.36,5.33-1l-1.31,1.5L358.1,316c1,0,1.8.32.16.83,8.29-.56-.67-2.66,10.21-3.24-.11.5-1.22,1-4.17,1.2-.35.83.45,1.16,3.38,1,.06,0,0,.09,0,.14C373.3,315,380.55,313.88,384.07,312.45Z"/><path class="cls-9" d="M367.74,315.87a64.87,64.87,0,0,0-6.62,1.24C361.72,317.27,368,316.63,367.74,315.87Z"/><path class="cls-9" d="M652.16,412.1l1.08-.3Z"/><path class="cls-9" d="M628.62,416.3a4.14,4.14,0,0,0,1.29.08C629.87,416.14,629.53,416,628.62,416.3Z"/><path class="cls-9" d="M585.45,279.61l.1,0Z"/><path class="cls-9" d="M653.26,342.05c.74,2,1.2,2.71,1.54,2.77A4.29,4.29,0,0,0,653.26,342.05Z"/><path class="cls-9" d="M646.42,296.73c-.11-.28-.21-.58-.33-.82C646.27,296.57,646.35,296.74,646.42,296.73Z"/><path class="cls-9" d="M578.49,281.37c1.92-.73,4.72-1.16,7-1.77C583.54,280.15,579.72,280.35,578.49,281.37Z"/><polygon class="cls-9" points="600.09 422.35 602.35 421.33 599.95 422.18 600.09 422.35"/><path class="cls-9" d="M622.07,418.35c1,0,4.82-1,3.64-1.19A24.9,24.9,0,0,1,622.07,418.35Z"/><polygon class="cls-9" points="661.15 373.65 660.31 372.82 661.16 374.69 661.15 373.65"/><polyline class="cls-3" points="485.97 56.72 487.65 55.75 475.15 66.06 496.71 53.62 476.27 68.05 504.98 51.47 477.05 70.13 503.3 54.97 474.92 74.23 505.15 56.78 473.79 77.58 507.73 57.98 475.57 80.45 510.74 60.15 474.37 84.35 516.54 60 477.36 86.18 518.11 62.66 476.9 89.02 517.71 65.46 475.43 94.12 522.53 66.93 478.31 96.95 522.9 71.2 484.16 97.8 520.98 76.54 488.03 99.63 524.36 78.65 493.51 100.98 525.98 82.23 494.21 104.31 518.08 90.53 499.91 103.84 518.16 93.31"/><text class="cls-4" transform="translate(492.35 82.08)">C </text><polyline class="cls-5" points="448.97 120.56 452.37 118.59 451.48 122.21 456.21 119.48 445.81 129.03 460.22 120.71 443.6 134.55 463.98 122.78 445.67 136.45 465.56 124.97 439.62 143.77 470.59 125.89 440.17 146.5 474.37 126.76 441.97 148.76 472.66 131.04 439.83 154.43 477.71 132.56 434.56 162.05 483.04 134.06 431.92 167.46 490.74 133.5 430.68 171.32 495.8 133.73 429.74 174.45 495.15 136.69 429.32 178.44 497.35 139.16 439.02 177.17 503.26 140.08 437.4 182.18 502.65 144.5 441.12 182.47 501.56 147.58 443.99 184.34 501.27 151.26 452.5 183.54 501.67 155.15 454.55 186.91 500.9 160.15 459.51 187.02 497.5 165.08 466.08 186.78 494.16 170.57 467.63 188.34 494.68 172.72 465.99 192.16 495 175.41 475.3 189.75 492.22 179.98 473.78 193.18 488.18 184.86 475.43 194.62 489.23 186.65 481.15 194.67 486.49 191.59 483.51 197.71 486.97 195.71"/><text class="cls-6" transform="matrix(0.95, 0.33, -0.33, 0.95, 457.1, 160.89)">C</text><polyline class="cls-7" points="538.42 106.56 539.17 106.13 531.81 114.48 544.85 106.95 534.72 116.1 549.71 107.45 528.49 122.16 558.62 104.77 530.7 123.45 561 105.96 522.75 130.83 562.17 108.06 526.9 131.62 571.56 105.83 524.75 136.6 572.33 109.13 527.19 137.74 571.72 112.04 531.31 139.71 576 113.92 532.42 141.83 575 117.25 530.85 146.78 574.45 121.61 537 147.21 581.68 121.41 537.78 150.9 579.49 126.81 533.59 157.18 582.51 128.94 537.94 157.74 582.94 131.75 542.89 157.54 582 134.96 546.68 159.45 580.25 140.07 557.96 157.38 571.84 149.37 558.92 159.93 573.03 151.78 568.93 157.59 570.05 156.94"/><text class="cls-6" transform="translate(542.98 146.74)">B</text><polyline class="cls-3" points="631.97 125.54 633.65 124.57 621.15 134.88 642.71 122.43 622.27 136.87 650.98 120.29 623.05 138.94 649.3 123.79 620.92 143.04 651.15 125.6 619.79 146.4 653.73 126.8 621.57 149.27 656.74 128.96 620.37 153.17 662.54 128.82 623.36 155 664.11 131.47 622.9 157.84 663.71 134.28 621.43 162.94 668.53 135.75 624.31 165.76 668.9 140.02 630.16 166.61 666.98 145.36 634.03 168.45 670.36 147.47 639.51 169.8 671.98 151.05 640.21 173.13 664.08 159.35 645.91 172.66 664.16 162.13"/><text class="cls-4" transform="translate(638.35 150.9)">A</text><polyline class="cls-5" points="377.45 334.05 380.94 332.03 381.39 334.87 387.07 331.59 377.34 340.75 393.73 331.3 377.09 345.15 400.64 331.55 380.59 346.23 404.52 332.41 376.29 352.53 412.39 331.69 378.25 354.45 418.44 331.25 381.56 355.84 419.19 334.11 381.46 360.33 427.54 333.73 378.3 366.73 435 333.99 377.44 371.11 438.61 335.79 377.65 374.14 440.34 337.95 377.9 376.58 436.97 342.48 377.06 380.81 435.21 347.23 382.19 382.17 436.56 350.78 376.27 389.67 436.2 355.07 377.41 391.46 436.23 357.5 376.94 395.24 437.55 360.25 388.5 392.68 439.84 363.04 393.95 394.1 441.17 366.83 401.11 392.93 439.13 370.98 410.33 391.17 437.43 375.52 413.71 391.67 439.07 377.02 414.2 394.26 440.71 378.95 425.72 390.57 439.29 382.73 426.09 392.9 436.43 386.94 429.52 393.32 438.58 388.09 438.16 391.69 439.56 390.88"/><text class="cls-6" transform="matrix(1, -0.03, 0.03, 1, 399.44, 369.11)">B</text><polyline class="cls-7" points="477.12 338.39 477.87 337.95 470.51 346.3 483.55 338.77 473.42 347.92 488.41 339.27 467.19 353.98 497.32 336.59 469.4 355.27 499.7 337.78 461.44 362.65 500.87 339.89 465.6 363.45 510.26 337.66 463.45 368.42 511.03 340.95 465.89 369.56 510.42 343.86 470.01 371.54 514.7 345.74 471.12 373.65 513.7 349.07 469.55 378.61 513.15 353.43 475.69 379.03 520.38 353.23 476.48 382.72 518.19 358.64 472.29 389 521.21 360.76 476.64 389.56 521.64 363.58 481.59 389.37 520.7 366.78 485.38 391.27 518.95 371.89 496.66 389.21 510.54 381.19 497.62 391.75 511.73 383.6 507.63 389.41 508.75 388.76"/><text class="cls-6" transform="translate(481.68 378.56)">C</text><polyline class="cls-3" points="535.97 291.72 537.65 290.75 525.15 301.06 546.71 288.62 526.27 303.05 554.98 286.48 527.05 305.13 553.3 289.98 524.92 309.23 555.15 291.78 523.79 312.58 557.73 292.99 525.57 315.46 560.74 295.15 524.37 319.35 566.54 295 527.36 321.19 568.11 297.66 526.9 324.02 567.71 300.46 525.43 329.12 572.53 301.93 528.31 331.95 572.9 306.21 534.16 332.8 570.98 311.55 538.03 334.63 574.36 313.66 543.51 335.98 575.98 317.24 544.21 339.32 568.08 325.54 549.91 338.85 568.16 328.31"/><text class="cls-4" transform="translate(542.35 317.09)">A</text><polyline class="cls-7" points="550.1 358.14 550.85 357.71 543.49 366.06 556.54 358.52 546.41 367.68 561.39 359.03 540.18 373.74 570.31 356.34 542.38 375.03 572.68 357.54 534.43 382.41 573.86 359.64 538.58 383.2 583.25 357.41 536.44 388.18 584.01 360.71 538.88 389.32 583.4 363.62 542.99 391.29 587.68 365.49 544.1 393.41 586.68 368.82 542.53 398.36 586.13 373.19 548.68 398.78 593.36 372.99 549.46 402.48 591.17 378.39 545.27 408.76 594.19 380.52 549.62 409.32 594.63 383.33 554.57 409.12 593.69 386.54 558.37 411.03 591.93 391.65 569.65 408.96 583.52 400.95 570.6 411.51 584.72 403.36 580.61 409.16 581.73 408.52"/><text class="cls-6" transform="translate(554.67 398.31)">A</text><path class="cls-10" d="M381.12,110.65c-.93-.85-1.41-2.23-2.47-3.09-.58-.47-1.43-.55-2.06-1s-.86-1.13-1.44-1.65a69.52,69.52,0,0,0-16.49-10.51c0-.76-1.64-.52-1-1.24-4.46-2.27-8.81-5.68-13.81-3.92,0,1.09-1.18,1.35-1.44,2.47-.84,3.58,1,9.35.62,12.78,1,2.4.44,4.63.41,7a62.24,62.24,0,0,0-6.6,0c-4.45.27-8.36-.54-11.54.41.18-1-.33-.21-.41-.62-6.25,0-10.49.3-18.14-.21a35,35,0,0,0,6.6-.82c1.79-.29,3.94-.05,4.95-1.65a.91.91,0,0,1-.41-.82c-4.93-1.49-10.15.64-14.64.82a12.75,12.75,0,0,0-3.3.62c-4.54,1.11-9.8,1-13.4,2.27.11.87-.7.82-1.24,1a7.09,7.09,0,0,1-2.06,2.89c-.5,2.3.12,4.29-.41,6.6.64,2.45,1.11,5.63,1.65,9.07.39,2.44,1.85,5.92,3.09,7.21,1.64,1.72,4.7.58,8.25,1.44,5.69-1.59,10.68-1.38,15.87-1.44,3.44,0,7.34-1,11.13-1,3.54,0,7.89.16,9.48.21,4.06.11,8.49-.05,12,.41.39,5.36,1.37,8.41,2.27,15.87,5.85,2.72,9.78-.38,11.75-4.74,0,.16.17.24.41.21,2.22-3.28,5.44-5.56,7.21-9.28,2.54-1.65,3.06-5.32,6-6.6.39-1.61,2.09-1.9,2.47-3.5,4.17-3.18,6.43-8.28,10.1-12a15.91,15.91,0,0,0,.83-3.09C384.84,112.21,382.59,112,381.12,110.65Zm-.41,4.33c.28,1.47-1.26,3.92-2.47,5.57a78.69,78.69,0,0,1-9.28,10.1c-2.62,3.56-5.07,7.3-8.25,10.31a4.81,4.81,0,0,1-2.47,2.89c-1.41,3.41-4.8,5.67-7.22,7.42-.53-.27-.62-.46-1.24-.21-1.57-5.14.51-12.71-3.71-16.28-9.64.21-19.84-.91-29.27-.41-2.47.13-4.77,1-7,.41-3.56.42-9,1.22-14,1.65-4.71.4-6.76-1.6-7.83-5.77.22-4.32-2.15-7.57-1.24-11.75-1.75-6.16,10.53-6.12,16.7-7,.86-.12,1.54-.54,2.27-.41-.72.19-1.38,1.24-1,1.85,1.32,2,5.09.8,8.66,1,2.57.17,6.06,0,8.86,0s5.76.62,8.66.62c4.23,0,8-.53,13,.21-.05,0,1.47,0,1.28,0a23,23,0,0,0,2.43-.82c-.09-4.51-.12-9.47-1-13.6.26-2.57-.88-6.17.82-8.66,4.95.49,7.21,4.73,11.13,5.57,3.55,2.62,7.7,3.82,10.51,7.42a17.2,17.2,0,0,1,6.8,5.57,6.52,6.52,0,0,1,3.5,3.3c.88-.05,1,.6,1.65.82C381,114.94,380.84,115,380.71,115Z"/><path class="cls-11" d="M377,286.45c-2.24.8-5.15-1.5-7.07-2.51-5-2.65-12-5.14-16.13-7.2-.17-.09-.85.44-.58-.46-3.71,0-8.29-2.24-12.4-3.63a83.62,83.62,0,0,0-11.3-2.89c-.65-1.53-.94-2.28-.4-4,7-2.21,11.95-3.27,17.63-6.47,1.44-11.85-8.55-22.08-16.88-28.59a24.76,24.76,0,0,0-10.44-4.25c-2.32-.43-4.67-1.62-6.37-1.65-3.22,0-7.13,1.14-10.27,2.4a20.19,20.19,0,0,0-9.49,7.56c-.29.09-.88-.63-.59.19-2.57.07-2.06-1.86-3-4-1.31-3-5.15-6.6-7.59-7.54-.7-1.39-.39-1.56-1.07-2.69,1.51-1.55,1.1-4,1.71-6.17.67-2.33,2.35-4.06,3.22-6.21,3.48-2.36,4.43-6,7.68-8.5,1.29.27,3.77-.11,3.49,2.13-3.07,1.75-4.72,5.2-7,7.86a1,1,0,0,0,0-.65c-1.29,2.56-3.19,4.61-4,7.77a10.65,10.65,0,0,0-.56,3c.59,3,6.12,5.68,7,9a38.11,38.11,0,0,1,13.53-7.12,41.79,41.79,0,0,1,5.17-1.43c2.6-.25,5.63,1.44,8.19,1.94,4,.78,6.86,1.31,10.19,3.46,6.28,4.07,12.05,10.89,16.91,17.12,3,5.62,4.21,14.17,3.64,19.61-.09.39-.86.43-.79.9-1.42.27-3.21.71-4.45,1-.26.06,0,.21.24.14-2.25.81-4.08,1.6-7.58,2.63,1.08,1,2.78,1.36,4.28,1.88,4.5,1.57,9.83,2.85,14.28,4.76,6.37,2,12.11,5.13,18.21,7.62,5.78-10.57,7.61-23.2,8.32-36.39-5,2.63-11.42,4.74-15.3,7.68a6.61,6.61,0,0,0-1.26,1.48,4.14,4.14,0,0,1-2.42.55c-.85-.73-.7-1.4-1.46-2.56.77-2.18.63-5.64.12-8.47-1.6-8.74-5.71-19.2-12.23-25.53a47.66,47.66,0,0,0-29.35-13.38c-8.7-.76-23.39.05-26.46,8.63a2.51,2.51,0,0,1-3.3-1.54c1.91-3.37,4.79-7.48,9.9-9,6.44-1.9,14.38-2.08,19.91-2,17.07,2.29,34.38,11.19,41.44,30.3a71.17,71.17,0,0,1,3.87,17.59c4.45-1.5,8.56-4.67,13.2-6.79,2.48-1.13,4.85-1.65,6.1-2.59,1.24.44,1.16,2,1.53,2.76-1.54,7.64-1.6,16.74-3.66,24.53C381.47,273.65,379.09,279.94,377,286.45Z"/></g></svg>