<svg xmlns="http://www.w3.org/2000/svg" viewBox="0 0 800 480"><defs><style>.cls-1,.cls-4{fill:none;}.cls-2{fill:#fff;}.cls-3{fill:#dadada;}.cls-4{stroke:#fff;stroke-miterlimit:10;}.cls-5{fill:#c63b48;}.cls-6{fill:#be1e2d;}</style></defs><title>ChangeDetectionTreeOnPushObservable</title><g id="Background"><rect class="cls-1" width="800" height="480"/></g><g id="Слой_4" data-name="Слой 4"><path class="cls-2" d="M333.3,325.12a.27.27,0,0,0,.13.06C333.38,325.12,333.34,325.11,333.3,325.12Z"/><path class="cls-2" d="M327.85,300.94l.48-.06A1.16,1.16,0,0,0,327.85,300.94Z"/><path class="cls-2" d="M332.95,340.57l0,0,0,1.09Z"/><path class="cls-2" d="M272.72,300h.35A1.81,1.81,0,0,0,272.72,300Z"/><path class="cls-2" d="M305.33,300.63a1.35,1.35,0,0,1-.44.09C305.1,300.73,305.27,300.72,305.33,300.63Z"/><path class="cls-2" d="M330.12,348.74l.19-.44C330.23,348.31,330.15,348.46,330.12,348.74Z"/><path class="cls-2" d="M330.89,364.42l0,0S330.91,364.38,330.89,364.42Z"/><path class="cls-2" d="M331.66,358.29c0-.13-.05-.29-.08-.44C331.58,358,331.58,358.28,331.66,358.29Z"/><path class="cls-2" d="M331.53,357.64l0,.21C331.57,357.73,331.56,357.64,331.53,357.64Z"/><path class="cls-2" d="M329.3,371.73a4,4,0,0,0,1.24-.26Z"/><path class="cls-2" d="M230.64,314.52l-.08-.1C230.59,314.51,230.61,314.53,230.64,314.52Z"/><path class="cls-2" d="M329.86,370.08l.32,0A1.14,1.14,0,0,0,329.86,370.08Z"/><path class="cls-2" d="M329.62,340.44c-.19-.45,0-1.38-.14-1.37C329.5,339.54,329.36,340.22,329.62,340.44Z"/><path class="cls-2" d="M237.69,325v.3A2.3,2.3,0,0,0,237.69,325Z"/><path class="cls-2" d="M329.86,370.08l-.37,0,.11.09A1,1,0,0,1,329.86,370.08Z"/><path class="cls-2" d="M230.56,367.44v0l0-.18Z"/><path class="cls-2" d="M230.26,372.8l-.06-1.07A3.78,3.78,0,0,0,230.26,372.8Z"/><path class="cls-2" d="M330.54,371.48l.71-.15A3.46,3.46,0,0,0,330.54,371.48Z"/><path class="cls-2" d="M263.56,372.89l-.27,0A1,1,0,0,0,263.56,372.89Z"/><path class="cls-2" d="M307.42,300.74l.24,0S307.67,300.7,307.42,300.74Z"/><polygon class="cls-2" points="286.93 305.71 286.92 305.71 286.92 305.71 286.93 305.71"/><path class="cls-2" d="M288,305.47a2.18,2.18,0,0,0-1.09.23A2.45,2.45,0,0,0,288,305.47Z"/><path class="cls-2" d="M284.58,305.61l.13,0Z"/><path class="cls-2" d="M306.6,306s0,0,0,0v0Z"/><path class="cls-2" d="M302.24,306a1.18,1.18,0,0,0-.3-.08A.94.94,0,0,0,302.24,306Z"/><path class="cls-2" d="M273.72,306.14h0Z"/><path class="cls-2" d="M238.27,307.52l0,0a.11.11,0,0,1,0-.13l0,0,0,0,.37,0,1.57-.06c2.09-.08,4.15-.13,6-.08a11.69,11.69,0,0,1,3.49-.48l.14.51,1.09-.16c.44.15-.84.1-.05.29l.41-.32c.09.18,2.79.12,1,.49h4.22c.93,0,.55-.43,1.58-.3.21.15-.37.1-.29.29,3.1.38,3.58-1,6.47-.76l-.25.07c.49-.14,1.43-.12,1.44-.19-.37-.52-.52.28-1.4,0,.08-.43,1.1-.23,1-.56a5,5,0,0,0,1.66-.12c1,.27,2.45.08,3.21.42a5.83,5.83,0,0,1,2.1-.58c.76.34-.18.32.85.45l.17-.25c.85,0,.71.11.68.23.91,0,.75-.35,1.89-.18l-.63.24a15,15,0,0,1,2.35,0c0,.14-.5.13-.84.09.64.37,1.09-.16,1.43-.12-.1-.11-.91-.16-.51-.41.58,0,1.24-.34,1.65,0l-.63.24c1.21-.2.65-.31,2-.22-.08,0,0,.08-.07.13.88-.32,2,0,3.33,0l-.25.07c.52-.09.81-.31,1.1-.29-.74-.14-.54-.22-.61-.46,1,.42,1.5-.48,3.1-.23,0,.14-.41.32-.85.17-.55.43-.61.79-1.59,1,.61-.1,1.32-.16,1.17,0l.19-.4c.37,0,.66,0,.93,0,.16-.25-.74-.41.11-.57s.51.41.66.23c1.32-.16.55-.43,1.82-.29a1.19,1.19,0,0,1-.48.06c.91.16,2.24-.07,2.51.41-.14.11-.16.25-.51.21v-.07c-1,.35.84-.09.52.34-.07-.26,1.21-.2,1.79-.15l-.18-.29c1.92-.87-.1.58,1.8.47,1.21-.2-.46-.08.28-.29a8.61,8.61,0,0,0,2.31.18c.33.12,1,.27,1.07.6.72-.13,2.2.15,2.61-.17-1.24-.28-1.23.34-2.68-.08L299,306c1,0,2.29-.14,3,0-.14-.06-.2-.14-.11-.21a16.61,16.61,0,0,1,3.23-.34c.18.29-.63.24-1.22.27a10.87,10.87,0,0,0,2.33.11c.07.26-.94,0-1.1.23l1.54-.08a.15.15,0,0,0,0,.05c.22-.43,1.17,0,2.11-.09,2.23,0,2.57-.57,3.8-.91.33.12.43.22.29.33-.55-.19-.45,0-.64.07.75,0,1.65.42,1.23.59,1.2-.12-.43-.23.3-.36l1.64,0c-.19-.22-.77-.27.08-.43a17.59,17.59,0,0,1,2,0c-.14.11.29.33-.41.32a2.26,2.26,0,0,0,1.43-.12c-1-.2,1.68-.19.91-.53l1,.2c-.23,0-.26.14-.6.1.29.33.84-.09,1.19-.13s1.29.09,1.37.22a2,2,0,0,1,1.26.15c.48-.07,0-.22.18-.32l1.63,0c.09.18.22.69,0,.76.62-.17.22-.54,1.16-.52-.54.35,1.24.27.46.7a2,2,0,0,0,.56.15,1.12,1.12,0,0,0,.25.06,1.3,1.3,0,0,0,.5-.05c.34-.28-.22-.16-.11-.45a7.75,7.75,0,0,0,1.74-.6c.13.1.22.31.16.75l.08-.33a1.69,1.69,0,0,0,.37.85c-.18,0-.42.28-.61.63,0,.09-.09.18-.13.28a1.18,1.18,0,0,0-.1.4,7.26,7.26,0,0,0-.06,1.26c.18.15.34-1,.63-.7l.05,1.18c0,.09-.09,0-.13-.2.13,1.06-.47,2,0,2.27l-.53,1.07.22-.43c.18.15.23,1.33.3,1.58a3.83,3.83,0,0,1-.19,2.31c.15-.21.48-.74.54.22-.58,0-.22,2-.52,2,0,.39-.17,1.07.07,1.11l-.36-.06c.51.09.48,1.49.57,2.57-.69-.24.05,1.18-.57,1.66.47.2.18,1.91.58,2.1,0,.83-.41.74-.56,1l.17.39a20.46,20.46,0,0,0-.4,2.89l.41.86-.19.32c.1.14.17.85.32.41l0,.46c.45,0,.12.65.31,1.58-.07.21-.18.16-.24,0,0,.46-.23.26-.39.52.12-.33.8,1.67,1,.42.18-.09.32.64.24,1.1l-.4.28.43.55a7,7,0,0,1-.25,1.6c0-.59-.78-1.32-.77.21a7.68,7.68,0,0,0-.36-1.61c0,.32-.06.47-.23,0,.12,1.19.25.4.3,1.58-.36-.07-.48.27-.6,1.3l.27-.77a.33.33,0,0,1,.1.15c0-.29.1-.38.23-.44,0,.23.45,1.37.23,1.57.56-1.19.43,2.07.77,1.31.11.13.13,1-.06,1-.27-1-.41.74-.66.58.1.37.27-.78.4-.28a3.29,3.29,0,0,1-.31,1.35l-.07-.25-.16.91c.18.15.31-.88.4,0-.08.22,0,1.06-.13,1-.25-.4-.58-.11-.64-.82,0,.59.07,2.48.41,1.72v.71c.15-.44.43-1.68.48-.27h-.07l.27,1-.19.43c.09,0,.18.14.17.51-.11.1-.15.44-.3.41,0,1.06.2,1,.31,1.11,0,.59-.05.82-.26.54a16.13,16.13,0,0,1-.19,2.78c.16,1.09.08-.22.32.41-.63.94-.24,3.59-.17,5.36.55-.48.06.48.56.81-.17-.38-.43,1.68-.58.13l.06.95c-.3.65-.23-1.57-.64-.59,0,1.06.62,1.76.42,3-.39-.42.13,1-.3.65a2.58,2.58,0,0,1-.13-1l-.08.22c-.11,2.33.46.67.73,1.89,0,1.42-.31,1.12-.49,1.2a3.42,3.42,0,0,0,.09,1.31c-.24-.87.25-1.6.49-1.2-.45.62,0,2.1.14,2.49.47-2,0-1.4.53-3.31-.14-.26-.54-.22-.38-1.36.2.72.22,0,.29-.25-.23.22-.1-.79-.19-1.14.19-.32.53.68.62-.47l-.54-.22c.08-.45.4.19.27-.77.28.52.44-.16.52,1.15.46-1.55-.25-2.39-.44-3.6,0,.12.11.14.14.26a3.27,3.27,0,0,1-.16-1.08c.12-.8.24.63.39.42v-1.29s0,0,0,0c-.07-.34-.12-.66,0-.78a7.61,7.61,0,0,0,.49.79l-.38-1.36c.18.15.31-1.12.44-.15l-.07-2,.37-.17c-.06-.48-.14-.49-.18.08.08-.69-.64-3,.08-2.68a38.16,38.16,0,0,1-.36-4.05c.34,1.47.43-1.68.58-.13.16-.91-.23-1.1-.3-1.82.16-.67.51-.37.65.35l-.17-.85.07,0-.21-.74c.2-.79.37-.17.42-1l-.32-.18.19-.55c-.15.21-.21-.27-.24-.86h.07l-.06-.72c.2.71.07-.65.3-.33a15.64,15.64,0,0,0,0-1.73l-.22.19c-.19-1.44.33-.06.35-1.23l-.25.07c.43-1.68-.24-2.86,0-4.1.06.71.35.53.28.52a24.64,24.64,0,0,0-.33-3.93c.37-.4.48-.5.64-1.64,0-.83-.06-1-.27-1.22.14-.8-.07-2.31.2-2.35-.21-.19,0-.72-.14-1.16l.11-.09-.25.07c.57-1.42-.32-2.4.18-3.84l.07.25-.1-.61c.11-.1.18.15.32.18l0-2.81-.19.55a5,5,0,0,1-.12-1.67c.38,1.12,0-.93.31-1.11l.1.6c0-.82,0-.82-.28-.76-.09-1.07.49-.73.21-1.72v.7c-.15.21-.36-.3-.35-.77,0-.11.15-.44.18-.09-.1-.84,0-2.1-.07-2.47.08-.46.26-.31.33-.06-.22-1.8,0-.81-.17-2.62l.14,0c-.06-.17-.11-.51-.17-.78l.31-1.34-.19.51a16.19,16.19,0,0,1,0-2.34l.21.28a18.29,18.29,0,0,1,.11-2.83,10.65,10.65,0,0,0-2.54,0c-.14,0,.27-.11.49-.14a4.52,4.52,0,0,1-2,0,4.43,4.43,0,0,0-2,0c.14-.07-.1-.16,0-.22l-.26,0-.17,0-.34.07.05-.29-.55.43-.41-.3-.26.14c-.72-.55-1.73-.14-2.72-.55l.17.37c-2.48.75-5.67-.43-8.67-.08l.05-.29-1.24.34c-.66-.23.4-.25.19-.4-1.32.16-.55.43-2.09.51-.79-.2.27-.21.64-.32a24.09,24.09,0,0,1-4.59.14s-.09.09,0,.11a32.27,32.27,0,0,1-3.29,0c0-.13.29-.15.55-.18a3.29,3.29,0,0,0-1.23,0l.4-.25c-.81-.05-2.38.18-2.56-.12.1.11.06.33-.65.32-.39-.44-1.91.18-3-.05.13-.11,1-.13.73-.13a3.26,3.26,0,0,0-1.57.23l.15-.18-2.63.24c-.39-.44-2.48.06-2.3-.26-.94,0,.79.2-.4.25-.32-.18-1.07.09-1-.2l.13,0-.83,0,.52-.28c-.71.06-1.24.34-1.27.56-.68-.16-1.64,0-1.94-.29l.25-.07c-1.9.11-3.14-.78-4.64-.3-.11,0-.1-.11.14-.11l-1.17,0,.28-.21-1.94.33,0-.14c-1.28-.06-3.29,0-4.94.06l.25-.07c-1.8.22-1.74-.14-3.05,0a.28.28,0,0,1,.14-.06h-1.18l.26-.14c-.88.31-2.51-.41-2-.14a5.56,5.56,0,0,0-1.5.48c-1.29,0-.32-.19-1.12-.31a14.32,14.32,0,0,1-2.37.1l0-.14c-.59,0-1,.13-1.79.15l.25-.07c-1.35.3-1.68-.43-2.74.21-.56-.12-1.64,0-1.58-.32-1.68.19-3,.27-4.65.39-.27-.48-.36,0-1.37-.24l.07.25c-2.35,0-5.06-.6-7.65-.49l-.07-.26-.52.28-4.53-.16-2.37,0-3.62,0c-1,.1-2.24.29-3.68.35,0,.55,0,1.09,0,1.63l0-.25c.07,1.91.14,3.81.16,5.72v1.85c0,.54,0,1.09-.07,1.64-.11-.14-.18.08-.25-.17.28.52,0,1.29,0,1.76l.19-.55a2.56,2.56,0,0,1-.18,1.84l.27,1c0,.06-.07.17-.11.18l.13.18-.34.53a6.58,6.58,0,0,0,.48,2c-.11.1-.2,1-.26.3l-.1,3.62.12-.56c.25-.07.42,1,.3,1.58-.21-.74-.36-.06-.55.25.14.49.23-.43.37-.17a6.37,6.37,0,0,1,.14,2.25l-.1-.37c.09.84-.35,1.23-.33,2.05.2.74,0,1.29.45,1.14.09,1.07-.3.41-.34.76a3.63,3.63,0,0,1-.15,2.2c.64.59-.23,2.89.31,3.11l-.31.88c.14,0,.47.2.53.92-.16.67-.41.51-.56.72l.54.45c-.58,3.88-.19,9-.67,13.25.11,1.9.36,4.29.29,6.5l-.07-.25-.15,2.2.25-1.6a8.72,8.72,0,0,1,.16,1.32c-.11,1.21-.24,2.62-.3,4.1,0,.74,0,1.5,0,2.26l0,1.22.08,2.08a5.93,5.93,0,0,1,0,2.86,6.65,6.65,0,0,0-.17,2.73l.35,0-.4.09a1.05,1.05,0,0,1-.11-.25l0,.34,4.74-.27,2.14-.16,1.12-.1.68-.12c-.23.61,1.3,0,1.12.31l.17-.25c.44.15,1.49.21,1.33.38l.88-.31.08.26c1.16,0,3.67-.19,4.28.33a82.15,82.15,0,0,1,11.06-.17,8.78,8.78,0,0,1,2.39-.25l.88.3a7.65,7.65,0,0,1,2.51-.28s0,.06-.09.08a9.21,9.21,0,0,0,2.46-.18c.93,0,1.84.18,1.56.46.09-.51,2,.07,2,.07s48,1.23,59.74-1.51c.39-.25,1.48-.41,1.07-.71.84-.09,1.23.35,1.39.1-1.14-.17.35-.65-.76-1l.72-.06c.15-.18-1,.2-.8-.12l-.2.47a2.24,2.24,0,0,1-1.1-.33c-.55.18-.9.81-2.2.54l.36,0c-1.06,0-.65-.3-.87-.38h.24l-.9-.23c.68.16,1.8-.22,1.21-.19-1.27-.13.33.11-.62.17-.59,0-.42-.22-.4-.37l-1.06,0c0-.22.7,0,.27-.21l-1.33.23c-.25-.55-1.45.26-2.06-.25,1-.13-.09-.18.07-.36l-2.35,0c-.22-.08.62-.17.26-.14-.44-.15-.73.13-1,.13s-1.76,0-1.69-.36c-1.6-.24-.67.46-2.16.25-.2-.22,1.18-.05.52-.28l-1.54.08a1,1,0,0,1,.88-.31c-4.17-.29-6.42-1.45-10.23-1.16-.54-.26.39-.18.77-.35-2.76.35-3.88-.58-6.23-.54l0,.22c-3.28-.67-7.22-.27-10.93-.55l.44.15a10.2,10.2,0,0,1-1.94.33c-.09-.11.44-.46-.63-.37.22.08.68.16.54.26-3.18-.56-9.9-.43-15.12-.7-7.07.17-14.74-.26-21.68-.12,1.06,0,.61.52-.19.39-2.18-.91-3.78.15-6-.47a43.26,43.26,0,0,1-5.05,0l-.61,0c-.12,0-.06,0-.1,0l-.08,0c-.06,0-.11,0-.26.09h-.21l.26-.17c.12-.11-.06,0-.09-.08l.07,0a.1.1,0,0,0,0-.09s0,0,0-.07v-.27l0-.53a10,10,0,0,1,0-1.72l-.29-.05c0-.83.22-.43.06-1.28l.14,0-.27-1c.51.1,0-2.34.27-3a34.38,34.38,0,0,1-.21-4.73c.26-.3.26-2.3.39-3.57-.06-2.47-.15-6-.06-9.16l-.33.06,0-.82c.07,0,.11-.1.14,0,.37-.64-.11-1.9.12-2.56-.3.42,0,.58-.05,1-.16.67-.47,0-.31-.88l.07,0-.17-.62c.26-.07.38-.63.63-.71-.06-2.71-.5-4.55-.38-7.34.29.29-.07-2,.42-1.45-.19-1.68-.4.28-.75-.49,0-.47-.13-1,.06-1,.12.22.3-.38.35,0l0-1.12c0-.11.11.14.14.26-.29-2.28.32-4,0-6.1-.18-.15-.05.81-.23.66-.36-2.06.32-1.82.07-3.74l.25.4a3,3,0,0,1-.18-1.91c.29-.18.24.87.38,1.36,0-.7-.06-2.47-.33-1.93a3.71,3.71,0,0,1,.24-1.6c-.07,0-.19.78-.33.29a19.32,19.32,0,0,0,.14-2.06l0-2.06h.22C237.7,307.38,238.35,307.51,238.27,307.52Z"/><path class="cls-2" d="M307.16,306l-.56,0c0,.06,0,.14-.29.21Z"/><path class="cls-2" d="M280.4,305.84a1.18,1.18,0,0,0-.2.08C280.34,305.91,280.38,305.87,280.4,305.84Z"/><path class="cls-2" d="M273.9,306.35c.46-.06.05-.14-.18-.22C273.71,306.2,273.72,306.27,273.9,306.35Z"/><path class="cls-2" d="M322.32,305.26c-.1,0-.16.07-.14.13S322.34,305.29,322.32,305.26Z"/><path class="cls-2" d="M329.62,335.8l0-.17A.41.41,0,0,0,329.62,335.8Z"/><path class="cls-2" d="M330.08,333.48a2.87,2.87,0,0,0,0-.47A1.3,1.3,0,0,0,330.08,333.48Z"/><path class="cls-2" d="M312.17,305.36a1.23,1.23,0,0,0-.44.09A.92.92,0,0,0,312.17,305.36Z"/><path class="cls-2" d="M330,332.52l0-.58h-.06Z"/><path class="cls-2" d="M329.58,336.54c0-.23,0-.54,0-.74A1.52,1.52,0,0,0,329.58,336.54Z"/><path class="cls-2" d="M330.2,309.28v-.06C330.07,308.76,330.12,309,330.2,309.28Z"/><path class="cls-2" d="M329.47,330v-.08l-.08-.17Z"/><path class="cls-2" d="M329.47,339.06a.92.92,0,0,0-.05-.29l0,.33A.13.13,0,0,1,329.47,339.06Z"/><path class="cls-2" d="M329.75,318.05c.11.17.18.23.24.23C330,318.09,329.94,318,329.75,318.05Z"/><path class="cls-2" d="M344.52,100.63c1.23-.9,2.6-1.66,3.26-.18.49,1.1-.73,1.83-1.28,2.51-1.77,2.19-3.55,5-5.46,7.73-5.11,7.33-10.21,16-13,23.63-2.63,3.58-5.74,11.4-9.18,15.16a2.93,2.93,0,0,1-3.84.44c-.21-1.89,1.37-2.21,2.09-3a34.24,34.24,0,0,0,3.72-5.54c3.54-5.69,6.07-11.67,9.07-17.42,4.15-8,9.18-15,14.42-22.46C345,101.34,344,100.86,344.52,100.63Z"/><path class="cls-2" d="M342.3,98.27c2.17,1.13-.37,3.76-1.51,5.54-7.39,11.55-13.9,24.31-20.58,35.27a37.39,37.39,0,0,1-2.33,4.11c-.84,1.36-1.42,3-2.67,3.46-.31.11-1.77.11-2.21-.47-.85-1.11.82-2.32,1.39-3.08,7.29-9.78,12-21.66,18.6-31.22-.24-.52.45-.11.58-.26l.12.14c.38-.56-.73,0-.35-.41,1.83-2.76,3.5-6.37,5.35-9.52C339.75,100,340.32,98.3,342.3,98.27Z"/><path class="cls-2" d="M330.14,152.59a1.88,1.88,0,0,1,1.17,3c-.51.55-4.12,1.53-5.59,2.17a50.76,50.76,0,0,1-5.47,2.07,24.24,24.24,0,0,1-11.53.39c-1-.17-1.69.09-2.45-.51,0-.17.07-.34.23-.2.38-.22-.43-.13-.58,0,.07-.34-.08-1.47.81-1.64,1.19-6.93,1.1-14.06,1.26-21.15.81-.74.9-1.12,1.86-1.59.58.05,1.39,1.26,1.63,1.44-1.12,5.79-.93,11.83-1.61,18.15-.06.55-.24,2.55-.23,2.56a9.67,9.67,0,0,0,3.38.9C317.63,158.37,326.2,155.17,330.14,152.59Z"/><path class="cls-3" d="M402.47,147.74c2.68-4.48,5.9-9,7.67-13.6.32-.84.92-2.08.18-2.91a1.87,1.87,0,0,0-1.09,1.88,66.44,66.44,0,0,0-4.36,8.33,36.77,36.77,0,0,0-3,4.73c-.6-1.44-.27-2.38-.3-3.61-.11-3.66-1.32-8.89-2.25-13.27-.37-1.74-1-3.5-1.21-5.18-.61-5.8-4.93-9.39-6.72-13.89-.9-2.25-1-4.35-1.8-6.64-.47.11-.52,0-.92.32.33,1.32,1.14,2.29,1.27,4.21-.37-.15-.49-1-1-.87,0,.23-.17.39-.38.32.52,2,2.7,4.5,3.14,6.65.2,1,0,2.32.68,3a7.34,7.34,0,0,1-.1-1.83c1.91,3.5,2.37,7.88,3.82,12.09.9,2.63,1.84,5.17,2.44,7.67.13.51.44,1.4.42,1.4.47.62.35,1.51.58,2.54a20.32,20.32,0,0,1,.84,4.16c.7,1.35-.19,2.85-.18,4.26-3.38-3.05-6.9-6.15-9.54-10.62-.39.32-.82.08-1,.48,2.34,3.91,6.8,7.46,10.28,12.13.28-.31.25.31.54,0,.43.25.07-.73.43-.48s.64.94,1.13.92c-.1-.43.26-.14.59-.43-.08-.58-.48-.8-.91-1C402.14,148.29,402.1,147.95,402.47,147.74Zm6.32-13.06c.27.4-.12,1-.28,1.35a49.88,49.88,0,0,1-5.55,9.19A89.72,89.72,0,0,0,408.8,134.68Zm-10.09-7.12c0,.63.28,1.36.31,2C399.06,129.94,398.33,128,398.7,127.57Zm-2-7.23c.18-.14.37.34.11.38.25,0,.32.37.26.65S396.64,120.63,396.75,120.33Zm3.56,18.94a69.77,69.77,0,0,0-3-10.63c-1.59-4.88-2.81-10.85-5.31-15.66,1,1.59,2.43,3.46,3.47,5.41,1.89,3.53,2.34,8.4,3.38,12.85.17.74.28,1.51.42,2.21C399.71,135.38,400.45,137.24,400.31,139.27Z"/><path class="cls-2" d="M549.06,208.25c.84,2.28,2.55,4,.06,6a6.8,6.8,0,0,1-3.6-2c-10.42,2.21-21.09,2.44-30,2.34-4,2.48-7.64.5-11.35-.69-.23-1.53-.92-2.7-.06-3.75s5-.25,7.16-.14c3.14.16,5.64,0,7.45.56,6.87-.79,13.67-.68,20.56-1.85a351.21,351.21,0,0,0-35.58-17.83c-3.86-1.64-8.1-2.87-11.51-5.29-.33-.14-.42.64-1,.26-4-2.61-13.3-3.59-17.19-6.74-1-.79-2.21-3.47.2-4.92,3.91,3.28,9.57,4.21,14.85,6.23,2.7,1,5.29,2.58,7.89,3.66,11.83,4.89,23.62,9.72,34,16,3.72,1.25,7.82,4.07,12.11,6.36-3.33-6.65-12.49-14.16-19.48-21.55a4.42,4.42,0,0,1,1.63-3.62c2.09.94,3.1,2.82,4.61,4.26,5.54,5.3,11.8,9.47,16.45,16.56.42.64.78.46.24,1.38C548.49,204,548.26,206.06,549.06,208.25Z"/><path class="cls-2" d="M182.27,233c.91,1.31.51,2.41.91,3.62-.68-.29-.88.54-1.74.65-.14.77,1.27,1.23.79,2.12-17.83,10.57-34.81,22.28-48.39,35.43a6.22,6.22,0,0,0,2.65-.55,125.66,125.66,0,0,1-15.22,12.28,3,3,0,0,0-.61,1.33c12.05-4.82,29.37-16.3,44.74-16.91.59.59,1.33.82,1.64,2-.66,1.25-1.73,1.24-3.14,1.61-8.27,2.17-15.64,5.68-24.41,8.88a88.27,88.27,0,0,0-8.16,3.48c-3.74,1.83-6.68,4.23-9.93,5.24-2.71.84-6.59,1-6.58-1.72.57-.49.86-1.1,1.38-1.61,3.31-9,7.1-17.8,7.29-28.24a3.22,3.22,0,0,1,4.58.49c-1,5.9-2.15,10.16-3.67,16.11,6.46-5.91,15.19-13.71,20.59-19.12.36-.08.57.17.67.63.36-.07.4-1-.22-.58a3.7,3.7,0,0,1,2.42-1.78c-.92-1.2,3.43-1.73,3.53-3.52.4,0,.16.35.22.58.54-.37.48-.62,0-1.11a56.81,56.81,0,0,0,6.28-5c.45.53-.13.58-.1.92.89-1.77,2.22-2.2,4-3.93.56-.4.59.35,1,.29.07-.31-.7-.8.31-.34.19-.29-.2-.29.17-.72.24-.05.29.29.41.51a3.39,3.39,0,0,1,1-1.93c.67,0,0,.6.09.84.36-.22,1.09-.91.84-.1.77-.67-.38-.31-.55-.89,2.18-1,3.92-3.15,6.38-4.14.17.29-.06.4,0,.65.12-.18.26-.36.39-.14.23-.13,0-.67-.22-.58.14-.33.6-1.32,1.21-.89.4-.27-.34-.21,0-.65C175.84,235.35,180,229.74,182.27,233Z"/><path class="cls-2" d="M297.84,290.63a2.8,2.8,0,0,1-3.56,1.65c-.14-.76-.89-.87-.61-1.53-.66.72-2.41,2.73-4.13,1.88-5.62-4.27-10.23-9.76-15.05-14.84.58.27.56-1.1,1.34-1.65,5.44,3,9.41,9.39,14.78,12.51,1.11-.69,1.08-1.87,1.53-2.83a82.43,82.43,0,0,0-3.53-8.8c-.31-.73-.25-1.74-.54-2.45-.36-.87-1.24-1.47-1.57-2.26a15.62,15.62,0,0,0-.73-2.37c-5.56-10.22-10.86-22.87-19.58-33.9.41-.91-.29-1.4-.27-2.33,1.41-.82,2.86-.47,4.1-.31,8.6,16.58,16.71,29.63,23.92,47.49A30.33,30.33,0,0,0,296,268.27c1.47-1.15,2.68-1.43,3.94-.69-.16,3.29-1,6.68-.26,9.88a3.7,3.7,0,0,0-.54.88A24.19,24.19,0,0,1,297.42,289C297.85,289.68,297.55,290,297.84,290.63Z"/><path class="cls-4" d="M297.84,290.63a2.8,2.8,0,0,1-3.56,1.65c-.14-.76-.89-.87-.61-1.53-.66.72-2.41,2.73-4.13,1.88-5.62-4.27-10.23-9.76-15.05-14.84.58.27.56-1.1,1.34-1.65,5.44,3,9.41,9.39,14.78,12.51,1.11-.69,1.08-1.87,1.53-2.83a82.44,82.44,0,0,0-3.53-8.8c-.31-.73-.25-1.74-.54-2.45-.36-.87-1.24-1.47-1.57-2.26a15.62,15.62,0,0,0-.73-2.37c-5.56-10.22-10.86-22.87-19.58-33.9.41-.91-.29-1.4-.27-2.33,1.41-.82,2.86-.47,4.1-.31,8.6,16.58,16.71,29.63,23.92,47.49A30.33,30.33,0,0,0,296,268.27c1.47-1.15,2.68-1.43,3.94-.69-.16,3.29-1,6.68-.26,9.88a3.7,3.7,0,0,0-.54.88A24.19,24.19,0,0,1,297.42,289C297.85,289.68,297.55,290,297.84,290.63Z"/><path class="cls-2" d="M693.52,332.88c-.68,2.65-3.34,4.87-5.81,3.86-1.89-.78-1.51-4.34-4.31-4.19,0-.54.53-.2.66-.56-2.16-.2-4.41-2.88-6.23-4.47-.83-.21-1,.83-1.54,1.06-2.59-2.29-1.63-4.9-5.78-6.09a3,3,0,0,1-2-2.56c2-2.72,4.79-3.6,6.45-6.17a6.78,6.78,0,0,0,.94-2.48c.12-1.8-3-6.45-4.48-9-4.89-8.37-13.22-17.1-18.46-24.08-1.61-2.14-4.09-3.44-4.56-6,1.06-.42,1.41-2.1,2.46-2.55.59.1,2.26.07,2.22,1.86,6.61,8.87,15.54,16.43,20.32,26.34,2.76,2.27,3.51,5.68,5.07,8.64,3.2-3,.79-8,.92-10.46a5.05,5.05,0,0,1,4.18-1.58c1,.15,0,1.43.77,1.71,1.62-.5,2-1.45,4.15-.59,1.11,5.15.31,10.76.67,16.38.4,6.34,2.86,12.81,3.39,19.13C692.73,331.77,693.39,332.18,693.52,332.88Zm-16.39-16.28c-.28,1.24-2,1.73-1.76,2.75.55-.75,1.79-.27,2.63-.51C677.46,318.24,678.1,317,677.13,316.61Z"/><path class="cls-2" d="M575.65,366.59a3.56,3.56,0,0,1-2.29-.3c-1.64-3.17-4.48-5.3-6.38-8.24a1.21,1.21,0,0,1-.84-.35,8.12,8.12,0,0,0-4.79-3.94,1.83,1.83,0,0,1,1-2.39c-1-1.92-5.69-5.68-1.69-7.05a68,68,0,0,1,12.43,14.86c-.17.79,0,1-.4,1.56a10.68,10.68,0,0,0,1.89,2,5.56,5.56,0,0,0,.26-3.88c1.42-2.6,1.19-5.92,1.8-9.41,1.57-9.06,3.32-17.3,4.57-26.86.34-2.61.23-5.19.68-7.9.4-2.4,1.28-9.13,3.91-6.53,0,1.29-.82,2.27-1.12,3.68.07.57.73.63.79,1.21-.74,2.51-.42,5.69-1.32,8.72-.38,7.86-1.35,14.29-2.2,21.81-.36,3.21-.59,6.87-1.07,9.32.72-.38.39-.84.84-1.68,2.7-1.23,2.55,1.84,1.54,2.85a18.62,18.62,0,0,0,5.53-4.83,3,3,0,0,1,1.69.69c-.48,2.13-2.23,3.77-3.7,5.53-2.88,3.42-6.29,7.23-10,9.58C576.6,365.82,575.93,366,575.65,366.59ZM583,356.54c-.64.15-1.43.94-1.26,1.5C582.08,357.47,582.63,357.12,583,356.54Zm-5.4.79.43,0a54.46,54.46,0,0,0,1.58-12.61C578.85,348.89,578.09,352.79,577.58,357.33Z"/><path class="cls-2" d="M411.94,246.27c-2.84-.4.15-3.07,1.58-1.6a46.94,46.94,0,0,1,5.45,10c-.63-11-4.28-23.73-8.29-34.63a1.71,1.71,0,0,1,2.41-.89c1.12,2.26,1.29,5.44,2.54,6.63.13,2.24,1.68,5.9,2.6,8.33.12.19,0,.28-.06.16-.5.14.75.3.38.9-.37.07,0-.28-.19-.45-.51.42.26.8.29.7a10.11,10.11,0,0,0,0,1c.19.3.09-.25.13-.32.9,1.55.79,3.11,1.71,5-.32.33.18.51-.21.76,1.16,2.37,1.06,4.37,2.18,8,2.41-4,3.8-9.23,6.55-13.41a1.82,1.82,0,0,1,2.3.09c-3.25,7.62-5.44,15.66-10.52,22.53-2.69,1.95-3.44-2.51-4.37-4.66A58.21,58.21,0,0,0,411.94,246.27Z"/><path class="cls-2" d="M436.74,371.63c0,.54.45.7.57,1.15-1.88,5.51-4.47,11.45-4.45,17.94a12.46,12.46,0,0,0-1.72,1.44c-1,.3-1.5-.08-2.58-.57-1-2.67-3.65-4.24-5.6-6.17s-3.74-4.34-6.32-5.17c-.07-.69-.81-.72-.86-1.44a2.12,2.12,0,0,1,1.87-1c.4.07.71.72,1.44,1,.33.13.79-.11,1,0,1,.51,2.66,2.33,3.73,2.87-2.11-7.33-4.5-14.26-6.75-21.1.26,0,.31.17.57.14.14-.52-.62-.14-.72-.43a37.92,37.92,0,0,0-3.45-9.47c-.48-.86-1.43-1.81-.86-2.87a2.73,2.73,0,0,1,2.58.57,61.38,61.38,0,0,1,4.16,11.2c-1.39-5.53-2.92-11.29-5.74-15.79-.06-.68-.16-.39.14-.57-.39-.69-1.24-1.34-.57-2.3,3.7-.32,3.73,4.19,5.45,6.32,3.27,9.42,5,19.28,7.9,28.14.89,2.7,2.47,5.19,3,7.89,0,.48-.48.57-.86.72.28.68.25,1.67.57,2.3,1.07-5.07,3.28-10.32,4.45-14.35A3.75,3.75,0,0,1,436.74,371.63Z"/><path class="cls-5" d="M405,87c.31,1.6.77-.5,1.17-2.29L405,83.08Z"/><path class="cls-5" d="M405.39,78.2l-1.28-4.43.62,3.2c-.65,3.55-1.36-.47-1.59-1.81C403.46,81,404.67,77.27,405.39,78.2Z"/><path class="cls-5" d="M404.39,69.48c.09-2.84-.74-2-1-.85C403.74,68.82,404.13,70.67,404.39,69.48Z"/><path class="cls-5" d="M303.53,51.19c.18-.8.3-1.73.53-1.6C303.82,48.69,303.62,48.51,303.53,51.19Z"/><path class="cls-5" d="M304.06,49.58l.14.57c0-.18,0-.33-.06-.54C304.11,49.57,304.09,49.6,304.06,49.58Z"/><path class="cls-5" d="M335.64,28.21c3.2-.62,5-.23,8-.49l1.69,1c3.27-.34,1.45-.88,3.82-1.41,3,.66,9.28.05,10.7.1,1,.48-1.22.66-1.7,1C362,28,361.73,27,366.5,27l.08.28c5.64-.73,12-1,18.56-1.2l9.86-.3,1.23,0,.61,0,.29,0,1-.11,2.22-.28,0,.15a1,1,0,0,1,.06-.24c-.08-.09.11-.26.14-.42l.3,0,.13,2.52.06,1.35.07,2.51c.1,3.45.22,6.91.4,10.28a112,112,0,0,0,2.2,18.36c-.27-7.23,1.36-19.48-.47-26.85a16.88,16.88,0,0,0,.24-4.57,5.36,5.36,0,0,1,.47-3.15c.06-1.32.08-2.54.07-3.64-1.83,0-3.5.12-5,.26-.75.07-1.46.15-2.15.24l-2.37.27a91.65,91.65,0,0,1-10.83.73c-1.45-.19-.75-.7-1.16-1.18l8-.49L385.66,21c2.11-.46,7.26-.13,7.85-1.06-7,1.11-18.19.24-24.3,1.55,2.87.23,6.46,0,9.85,0,1.49.33,3.81.57,3.66,1.07-9.72,1.45-17.78.73-27.77,1.19-2.5.11-5.9,0-6.31-.46,1.64-.17.4-.58,1.75-.81-3.54.42-.36,1.78-5.47,1.58l.66-1.71c-2,1.81-6.26-.32-9.91.74-1.31-.69,1.11-1.08,3.91-1.13-3.18-.3-3.47.7-6,.67L336,21.25c-2.7,1.39-4.85-.27-6.38-.74-.18.36,1.24,1.47-2.15,1.38-1.46-.19-.71-.55-1.05-.76-.19.36-1.41,1-3.65,1.06-.41-.49,1.49-.73,1.63-1.23a13.32,13.32,0,0,1-4.29-.28c-3,.41.19.7-1.63,1.23-4.58-.35-.46-1.69-2.15-2.73,3.45-.7,7.9-.92,9.75-1.3l-6.63.4c.4-.57-4.48-1-1-1.54-1.92-.14-3.17-.2-6.7-.2-3,0-6.12.06-9.06.15.08,2.65.18,5.24.29,7.69l.17,3.56,0,.83,0,.56.08,1.1c.2-.88.32-2.06.68-1.92.34,3.4-.38,2.94-.79,3.64.4,2.42,1.38,2.15,2.12,3.64-.83,5-.33,5.7-1.53,10l1-.26c-.8,3,.7,3.46.12,6.71-.21.18-.46-1.07-.7-2.07.32,2.88-.83,2.65-.45,5.46l-1.1-2.23c0,2.24.38,5.52-.56,4.37,1.13,3.91.68,10.77,1.33,15.65l-.86-.32c.52,1.26.51,3.58.52,5.86l0,2.38c0,.82,0,1.6.09,2.32a8.84,8.84,0,0,0,.56,3.14l-.35.78.47,2.56,4.57-.68c2.92.1,1.43,1.39,1.8,1l4.94-.14c1.12,0,2.18,0,3.18,0a41.26,41.26,0,0,1,5.39.32c.81-1.15,6.06-1.45,10.24-1.6,20.14.71,41.76-.37,60.49-1.69,2.8,0,6.66-1.32,10.17-1.88-4.29-.28-4.69.29-8.91.3-3.17-.3-4.34-1.48-7.06-2.22l1.39,1c-4.28.78-2.95-.52-6.33.47l.14-1.56c-1.19.8-4.18.15-5.41-.26l-1.11,1.08c-2.69-.59-4.45-.84-5.27-1.82l.26,1c-1-.62-10.37.11-7.17-1.58a6.83,6.83,0,0,1-3.21.62l-.26-1c-2.47.25-5.23.45-5.94-.11a3.54,3.54,0,0,0,2.23-1.1c-10.44-.17-2.21,3.23-11.46,3.32l.11-.64-2.35.68-2.46-.81c-3.33,2.19-13-.2-18.57,1a15.91,15.91,0,0,1-3.89-.47c-.76-.14-1.58-.28-2.47-.38-.45,0-.91-.09-1.39-.11l-.74,0h-.38q0,.49.07,1c-.77-.4-2.16-.75-3.09-1.16a10.45,10.45,0,0,1,1.1-3.1l.17-.23c.06-.15.12-.47.18-.69.12-.48.25-.93.39-1.34a7.45,7.45,0,0,1,.92-2c-.76-3.16-.21.33-1,.26-1-6.18.52-6.61,1.11-9.84-.49-3.8-.37,2.91-1.12.86.75-5.83-1.22-4.73-.56-11.93.55-.71.39,1.86.75,2.6-1-5.06-.39-14.5-.59-22L313,32l.21-3.29a8,8,0,0,1,.38-1.13c.29.07.55.14.76.22l.29.12.12.06,1,.06c2.91.17,5.77.36,8.44.6l.19-.36c4.19.92,8.72.06,13.62.47Z"/><path class="cls-5" d="M395.75,18.87l-.8-.84-4.62.58C392.2,19.29,393.17,18.7,395.75,18.87Z"/><polygon class="cls-5" points="394.75 21.44 397.17 21.04 393.26 21.11 394.75 21.44"/><polygon class="cls-5" points="336.23 20.11 336.83 20.25 345.63 19.53 336.23 20.11"/><path class="cls-5" d="M302.68,50.86c-.44-1-.26-2.45-.56-3.5l.43,4.1Z"/><path class="cls-5" d="M306.37,94.75a9.69,9.69,0,0,1,4-.73c.63,0,.29.06-1.35-.63-2.29.13-2.59.34-2.46.59S307.21,94.49,306.37,94.75Z"/><path class="cls-5" d="M319.79,92.53a8.29,8.29,0,0,0-3,.41C318.68,93.61,318.74,92.83,319.79,92.53Z"/><path class="cls-2" d="M291.45,215.82l0-.82A2.51,2.51,0,0,0,291.45,215.82Z"/><path class="cls-2" d="M291,216.56v.07S291,216.6,291,216.56Z"/><path class="cls-2" d="M227.58,213.7a2.35,2.35,0,0,0,.71-.16A1.33,1.33,0,0,0,227.58,213.7Z"/><path class="cls-2" d="M187.31,206.68a.36.36,0,0,0,.13,0C187.4,206.64,187.36,206.61,187.31,206.68Z"/><path class="cls-2" d="M291.24,206.2l0,.37C291.32,206.65,291.31,206.29,291.24,206.2Z"/><path class="cls-2" d="M240.13,214.22a.34.34,0,0,0,.1-.13A.35.35,0,0,0,240.13,214.22Z"/><path class="cls-2" d="M293.44,176.44c0-.11,0-.23,0-.35A.93.93,0,0,0,293.44,176.44Z"/><path class="cls-2" d="M196.91,196.89a.72.72,0,0,0-.15-.32C196.79,196.77,196.83,196.91,196.91,196.89Z"/><path class="cls-2" d="M195.61,196.74c.38,2.47.75-.53,1.15-.16-.11-.66,0-2.07-.33-1.4.8-1.3-.44-3.92.19-5.32-.08-.06-.34.75-.54-.22-.08-1.45.29-1.34.46-1.94a7.2,7.2,0,0,1-.28-2.42c-.2-1-.78,1-1.12-.32-.54-.91-.08-2.15-.23-3.23.38-1.29.26,1.29.44,1.83l-.25-3.66c.28-1.08.52.48.46,1.56.34-1.46,0-3.34-.41-3.77a19.88,19.88,0,0,1,.18-2.26c.25.86,1,.8,1.14,2.15,0,2.21-.59-.8-.7,1.08l.46.16c-.26.81.08,1.45.11,2.31-.11.48-.16-.11-.23-.43,0,1.56-.21,2.8.31,4,.42-2.1-.15-5.27.37-6.19l-.64-4.19c-.21,0-.55,1.46-.86.27.54-.49.78-1.72.88-3.34-.59.6-.52-2.58-1-1.77a1.13,1.13,0,0,1-.24,1.24c0-1.56-.54-.21-.57-1.07.13-2.85.37.11.58-2.69a16.18,16.18,0,0,1,1.09,3.65c.26-.11,0-1.55.26-2.21-.31.92-.55-.64-.68.11-.24-2.26-.85-4.9-1-7.64.86.43.65,4.62,1.68,3.76-.13-1.34-.55-1.34-.49-2.42A4.38,4.38,0,0,0,196,160l-.1-1.42a1.42,1.42,0,0,1-.07-.3,1.23,1.23,0,0,0-.26.13c-.21-.2,0-.52,0-.66l.11.11-.16-.29s0,0,.08,0a.82.82,0,0,1-.13-.47,2.41,2.41,0,0,0,.82,0c-.18-.42-.48,0-.69-.06s-.25-.12-.44-.21-.21,0-.36-.3v-.06c.7,0,.94-.51,2.24-.49a1,1,0,0,1-.26-.06l-.18-.06a.65.65,0,0,1,.31-.15,5.79,5.79,0,0,1,.7,0c.49,0,1,0,1.59,0,2,.29-1.5.59-.26.83a3.74,3.74,0,0,1-1.43.18,2.87,2.87,0,0,0-.62.05.3.3,0,0,0-.1.25l.09.15s.19.1.29.15l.64.29c1.08-.36,2.26.18,3,.1l-.81-.26c.16-.46.91-.11,1.29,0l-.55-.67c-1.18-.11-2,.47-2.85.08,2.09-.21,1.61-.75,4.14-.77.11.26-.49.1-.75.29.86.18,1.77-.36,3.17-.15-.8.16-2.1.43-1.07.78l.75-.5c.65.08.38.28.65.29.92.1-.21-.52,1.24-.39.22.1.7.21.49.33,1.67,0,.8-.16,2.36-.41-1.39,0-1.45-.76,0-.85,2,.08,3.44-.34,4.84.29l.91-.33c-.59.47,1.29.16,1.94.24.21.52-3.07,0-3.07.83,1.34.08.76.34.32.57,1.46-.08.54-.6,1.18-.94,0,.21,2.48.06,1.62.52,1.24,0,1.45-.51,2.36-.41a.9.9,0,0,0-.21.74c.11-.18,1.28,0,1.5.06-.21-.1.43-.44-.65-.29.27-.41,2.53,0,2.47-.36.11.47,2.32.1,3.44.29-.11-1.11-2.09.42-2.47-.49,1.5-.38,5.06,0,7.48-.53,2.09.21,0,.42.43.83-1.93.18-2.42-.15-4.09.05a23.08,23.08,0,0,0,6.18-.26c2,0,2.21,1.11,4.63.83-.32-.36-.27-.44-1-.57a11.46,11.46,0,0,1,2.1,0c.43-.23-1.08-.27-.11-.47.38.07,1.18.11,1,.36l-.16,0c2.31-.33,1.67.86,3.66.18-.16-.18-.59,0-1.08-.07-.37-.28.86-.67,1.78-.78-.16.24.81,0,1.45.13.43.41-1.61.12-1.94.39l1.78.06-.37-.06,1.93-.39c-1.35.13-.65-.5-.05-.55,1.34.08,2.69.16,2.53.62.16-.46,1.83-.44,3-.54-1.29-.16-.16-.39.21-.54l1.94.45c-2,.13.43.41,0,.72-.59.47-1.83.23-2.91.16,2.1.85,3-.46,4.79-.05,0,.21-.16.46-1,.41.32.14,1.67-.41,2.91-.17-.32-.15-1-.57.21-.75l1.62.52c1.88.11.64-.55,2.2-.8l-1-.36c.16-.46,2.1,0,2.15-.51-1,0-1.51.37-2.52.23-.38-.49,1.29-.26,1.87-.52a13,13,0,0,1,3.23.62c.06.76-2.58.95-2.25,1.94a32.24,32.24,0,0,1,6.34-.09c1.83-.23,1.66-.83,1.39-1.27a4.13,4.13,0,0,1,1.61.1l-.86.25a43.32,43.32,0,0,1,5.92-.49c1.34-.13.8-.59.48-.95l1.45-.08-.22-.1c.32-.49,1.61-.33,2.58-.31,0,.21-.59.26-.53.39a6.62,6.62,0,0,0,1.48.1,3.79,3.79,0,0,0,1.09-.19.85.85,0,0,1-.39.4,1.19,1.19,0,0,1-.37.14l-.22,0-.35,0c-.11,0-.05-.13-.16-.18l-1.72.28a5.39,5.39,0,0,1,2.29.1.6.6,0,0,1,.41.68c.56-.13.4-.26.2-.38s-.4-.24.41-.33a3.76,3.76,0,0,0,2.19.42,2.84,2.84,0,0,1-.72,2.44l.25.49.13.31a6.1,6.1,0,0,1,.13.6,18,18,0,0,1,.31,3c.42,0,.16,1.51.69,1.29a6.85,6.85,0,0,0-.1-3,3.59,3.59,0,0,1,.07-2.47c-.2-.65-.55-.31-.78-.5a1.59,1.59,0,0,1,.28-1.22c.13.54.39.53.61.58s.42.19.43,1.23c.36-.31.23-2.07.32-2.92.2.1.42-.28.59-1a11.79,11.79,0,0,1,.93,2.51c-.2-.24-.31.34-.43.13l.6,2.76c-.26.81-.57,1-.8.59-.13,1.46.44,3.92-.19,3.93.1,1.88.38-.6.55-.76l0,.16-.05-2c.73-.22-.18,2.26.52,2.58,1.33.31-.42,2.8-.21,4.2l-1-1.61.21,1.4c-.37-.81-1-.8-1.4-2,0,1.93-.32,4.68-.14,5.92-.33.48-.64.7-1,.48.6,1.94-.31,3-.32,4.68.36,1.77.49-1.78,1-.49a3.92,3.92,0,0,0,0,2,16.32,16.32,0,0,1,.31-3.71c0,1,.46.86.65,1.13l.1-1.62c.59.11,0,2,.34,2.74-.52-.48-.54-.21-1.06-.69a13.6,13.6,0,0,1-.11,4.68c-.21.7-.26-.59-.41-1-.36.32.21,1.4-.23,1.67-.33-.21,0-.86-.13-1.34l-.16,4.09c-.21,0-.28-1-.2-1.66a5,5,0,0,0,.59,3.6c-.21,1.4-.52,3-.83,2.53.13.64.33.21.54.21-.11,1.89.64,2.09.65,3.22l.39-.86c-.41,1.83.65.42.34,2a1.2,1.2,0,0,0-1.32.11c.41.27,0,1.29,0,2,.41-.43.38,1.5.78.37.33,1.62-.23,2.37.3,3.55.13-.75.42,1.4.72.75,0,1.56-.46,2.64-.9,2.21,0-.54.21-1.41-.13-1.34l.08,2.85c-.21.71-.31,1.61-.78,1.73.54.91-.38,2.69.26,3.39a2.77,2.77,0,0,1,.21-2.09l.09.44a1.38,1.38,0,0,1,0-.23l.82,1.23c.32-1.18-.54-.21-.52-1.88.76-1.45,1.15,3.28,1.63,1.77.24-1.24-.49-1-.77-2l0,.27-.33-2.31c.26-.11.47.59.47.59,0-2.8.41-3.23.5-6.24-.1.22-.9.81-1-.53-.2-1,.28-1.08.33-1.88.1.48.54.91.24,1.56l.55-.05c.67,2.26,1.21,1.07,1.4,4.14.41.14.62,2.36.5,4l.37-.81c.7,1.72-.57.32,0,2.53-.73.92-1.59,2.59-2.2,1.36-.18,1.56.21,2.09.21,3.5-.6.86-.65-.43-1.25-.27.07,1,.33,2.31.67,1.56l-.24,1.94c-.13.05-.13-.64-.11-.92a5.92,5.92,0,0,0,.39,2.63,1.87,1.87,0,0,1,0-.86,10.73,10.73,0,0,0,.62,2.36c-.31-1.18.38-1.29,0-2.53a.87.87,0,0,1,.41,1c.36-1,.29-2,.7-2.47a1.85,1.85,0,0,0,.2,1.6,8.83,8.83,0,0,0-.17-2.83c.68-.11-.12-3,.58-2-.24-.16-.26-1.29-.1-1.88.3.05.46,1.56.8,2.2.33,3-.5-.05-.72.65l0,2.3c.1-.23.48.92.44-.58a4.78,4.78,0,0,1,.39,3.33c.2.27.16-.59.18-.86.2.27.91,1.72,1-.17,0,.54-.33-.91-.55.05-.08-.75.21-2.8.59-2-.11-.92-.39-2.64-.48-3.39.31-.22.13.64.28,1l-.18-2.64-.34.76c.24-1.93-.57-3.17-.82-4.73.54.21.59,1.51.87,2.53.65-1-.34-.64-.24-2.26.1-.22.23-.27.39-.17l-.47-1.29c.06-.38.18-.16.21,0-.59-2.21-.77.05-1-2.9-.28,1.78.38,1.51.33,3-.39.87-.7-1.71-.93-2.15.13-1.45.94-1.62.5-3.44.26,1.29.51.05.52,1.88.28,1,.24-.54.55-.75-.1-.48-.57.32-.49-1l.08.05-.59-2.2c.29-2-.65-4.62,0-6l-.57.32c0-1.29-.07-3.12-.18-4,.33.21.36,1.07.47,2a18.44,18.44,0,0,0-.7-5.91,18.06,18.06,0,0,0-.65,2.37c-.8-1.5.49-1.78.1-3.72.55-.05.47.59,1,.11-.38-.81-.3-2.15-.62-3.07.54-.49,1,.37,1,2.36-.47,1.51.36,3.17-.1,4.41l.34-.76c.16,1.51.07,2.42.33,3.71l-.08-.05.55.64v-.7a8,8,0,0,1,.83,2.36c-.08-2.15-1-2.31-1.45-3.33,0-1.94,1-2.7.54-4,.26-.11.54-1.19.78-.32.15,1.07-.19,1.83.18,1.93a22.59,22.59,0,0,0,.14-2.42,6.76,6.76,0,0,1-1.35-2.84,13.18,13.18,0,0,1-.1-4c0,1.29.52,2.58.88,2.26-.51-.75.41-2.53-.29-2.15,0-1.51,0-4,.63-4.2.22,1.42-.14,2.8,0,4,0-.33.17-.66.31-.46l-.06,1.78a6.53,6.53,0,0,0,.42-2.8c0,.11-.15.32-.18.16v-1.4l.55-.05c-.26-1.29.44-3.77,0-6.13l.11.21c.11-1.88-1-2-1.11-4.09.26.59.49.32.75.21-.28-1,.18-1.56.32-2.59-.32,1.19-.59-.8-.76.06-.28,0-.42-.48-.48-1.13,0-.33,0-.69,0-1l0-1.5c.18-.31.29-.1.37.36,0,.23.07.53.1.85l.08.56c.1.71.2,1.3.57.49.06-1.07-.34-1.34-.47-.59l.17-4.06a33.26,33.26,0,0,1,.44-4.21,27.16,27.16,0,0,1-.38-2.89,15.15,15.15,0,0,0-3.54.57c1.38,0,2-.42,3.31-.33,0,.21,0,.45-.07.74l-.16-.51-1.83.36c-2.75,0-4.77-.42-6.8-.49l2.19-.23-.13.08c.9-.23,3.63-.1,3.57-.49a12.41,12.41,0,0,1-3,.23,21.17,21.17,0,0,0-3.32.13l.11-.08c-.56.05-1.21.08-1.38.08a7.57,7.57,0,0,1-.8,0c-.52,0-1-.12-1.46-.18a3.33,3.33,0,0,0-2.47.33c.43,0,1.29.37,1,.57-.54-.24-2-.16-1.94-.45l.49-.1a13.07,13.07,0,0,0-2.64,0c-.37.36,0,.64-1,.83-2.37-.23,1-.83-.65-1.14l-2.21.38-.49-.33c-3.28-.32-5.81.75-9.3.75-.06-.55,2.47-.78,3.33-.82-1.08-.49-2.63.18-4.09-.16-1.35-.08-2.36.41-2.15.72-1.66.2-1.18-.33-1.4-.42-.54.6-2.64.39-4,.52l-.06-.34-2.09.42c.54,0,.06.34.06.55l-.54,0c2,.93,4.62-.65,6.73.41-.64.13.22.31-.43.44-.54,0-.64-.08-.7-.21-.32.28-1.18.52-.05.51-.05.72-2.31.54-3.87.78-1.24-.46,1.29-.69,1.93-1a5,5,0,0,1-1.94.18l.21-.54c-2.15.29-.59.47-1.07,1-.58.69-1.93,0-2.53,0l.64-.13c-1.67-.23-2,.34-3.54.3l-.71-.43c1.89.54,2.31-.75,3.39-.47-2.75-.5.59-1.11,1.45-1.56a6.44,6.44,0,0,1-2.9-.26c-1.72.7-3.61-.26-5.27.57-.91-.1.8-.38-.16-.39a28.12,28.12,0,0,0-5.54.34c-1,0-.81-.26-1.08-.49-4.68-.32-6.51,1-11.62.66l.75-.29a4.25,4.25,0,0,0-2.52.23c-1.35-.93-4.57.57-6.3-.42-2.26-.18-2.37.62-4.14.77,0-.21.54-.61-.38-.7-2.9.16-5.66.26-8.49.34l-4.33.11-7,.11a2.63,2.63,0,0,1,.86-.18c-1.76,0-3.49,0-5.13.08.1,2.87.27,5.63.38,8.15l.12,2.88a19.07,19.07,0,0,1-.05,2c.13.65.31,2.58.69,2,.05-.8.52-.92.81-.86.41,3.06-.68,1.51-.55,3.55-.72.65-.47-1.29-1.11-1.29l.46,3c-.23,1.67.18,3.33-.16,4.79.08-.65-.54-.21-.26-1.29,0,.16.08.05.11.22.06-2.48-.34-1.35-.51-3.55a41.52,41.52,0,0,1,.22,6.3c.49-.38.21,1.4.52,1.88l0,.11c.21,0,.36,1.07.42,1.4l-.62.43c.08.76.31-.21.39.54.15,1.07.22,4.9-.44,5.16a22.36,22.36,0,0,1,.33,3c-.16-.11-.23-.43-.31-.48-.13,2.85.08,6.34-.29,9a28.1,28.1,0,0,0,.69,5.48c0-.59.1-2.31.46-1.24a10.68,10.68,0,0,1,.28,2.42c-.32-.21-.31,2.32-.53.49-.71.46.14,3.94-.57,3.91.22.43.09,3,.47,4-.31.22-.21-1.4-.43-1.4l.1,1.18h-.21a5.05,5.05,0,0,0,.29,2.36,6.73,6.73,0,0,1,.52,2.29l-.08-.07.11,1.4q-.29-.73-.57-1.58c.08,2.42.59,3.39.7,5.74l-.18.4.14,1,.45-.05c-.28,0-.45.11-.33.16a17.13,17.13,0,0,1,3.32-.42,13.63,13.63,0,0,0,2.94-.36,8.49,8.49,0,0,1,1.3.35,3,3,0,0,0,.76.1,1.22,1.22,0,0,0,.65-.16l-.16.67h-.86l-.65,0a2.85,2.85,0,0,1-.64-.14,6.27,6.27,0,0,0-2.43-.05,10.72,10.72,0,0,0,2.62.48l.92.08.89.06,1.28.08c1.77.07,3.72,0,5.28,0,2.52-.44,6.67.27,7.74-.72l-.27.41,4.25.34c3.61-.17,7.32.14,10.06-.41l.75.34c2.84-1.14,9.68-.47,11.56-1.84,1.61.31-.48.52-.64.77,1.19.11,3.17-.78,4.31-.17,0,.21-1.67.2-.92.33.86.39,1.23-.39,2.21,0-.43-.41,1.56-.88,3-1a.82.82,0,0,1-.38-.07c-.21-.31.87-.25,1.46-.29a.35.35,0,0,1-.21.11,207.24,207.24,0,0,1,23.88-.39l-1.45.29a15.15,15.15,0,0,1,3.76,0l-.16,0c2.1.64,2.37-.62,4,.11l-.32.07c2.53,0,4,.66,6.5.31,1.94.24,1.73.57,3.07.86a2.54,2.54,0,0,0,1.72-.49l-.54,0c-.59-.37,1.18-.31,2-.47-.59-.59-.27-1.5-2.54-2.1-1.67.2-1.62-.94-3.5-.85-1.07.78-2.69-.58-4.41.12.91-.54-2-.29-.54-.88-.7-.42-3.65.46-5,0,.22-.12.17-.24.49-.31-1.88.31-1.29-.37-2.69-.37l.05.55c-.54.18-.7-.21-1.18-.11.38.07,1.18.33.76.55a8.85,8.85,0,0,1-1.88.31c0-.21.48-.31.81-.38,0,0-1.51,0-1.62-.31a7.35,7.35,0,0,0,1.71-.49c-2-.16-.16-.18-1.13-.62.27.65-1.72.28-2.8.42-.11-.26.75-.08,1-.28-2.05-1.14-3.07.2-5.7,0,.05-.08.38-.15.54-.18-1.24.18-2.1-.42-2.91,0-1.19-.11-.22-.73-2-.72.54.67-2.15-.13-2.2.59l-1.4-.42c-1.24.39.33,1.2-2.09,1.27-2.21-.26.21-1.18-1.08-1.55l-.54.39L248,215.2l.16,0c-.65.13-1.83,0-1.83-.19s.81-.16.91-.33c-1.07.36-4.25-1-5.37.1-.63-.19-1.94-.19-1.78-.53-.58.47-2.86-.15-3.72.15.11-.16-.7-.42-1.34-.29.86.18.32.36-.26.62-.76-.34-2.91,0-3.23-.62-1.18.31-.75.72-1,1.13-.76-.34-3.18-.28-2.75-.93.65.08,2.1.21,1.83-.23-1.24-.24-.54.18-1.56.25.08-.12-.69-.4-.5-.59a10,10,0,0,1-2.3,0c1.34.29-.86.46-.05.72l1.29-.47c1.56,0,.33.36.92.52-2.74.13-2.2.8-4.78,1.11-.48-.11-1.34-.29-1.61-.31.86,0,.69-.64.21-.75-1.44.51-2.58-.32-3.76-.44,1,.15.49.54.11.68-2.47.36-1-.23-2-.5-3.81.07-6.24-.72-9.3-.31l1.45.55.48-.52c1.13.41-.21,1.17-.85,1.51-.16-.18-2-.08-1.3-.37l-1.83.23c.27.23,1.46.13.6.38-.6-.16-2.48-.28-1.3-.59-1,0-2.2.16-2,.47-1.56,0,.16-.67.86-.88-1.23,0-1.08-.49-.7-.63l-1.72.07c.37-.14.37-.36.75-.5-1.13-.2-1.94.39-2.9,0l-.43.44-.28,0c-.1,0-.19,0-.17,0l0-.06a.43.43,0,0,1,0-.1.45.45,0,0,1,0-.13.26.26,0,0,0,0-.12,4.07,4.07,0,0,0-.27.33,1.18,1.18,0,0,1-.23.16c-.06,0,.1-.2.25-.34s.29-.22.19-.21l-.15,0-.08,0h0s0-.11,0-.15c-.13-.45-.29-.66-.55-.56a1.89,1.89,0,0,1,.31-1.62,6.43,6.43,0,0,1-.51-3.54c.16.81.29,1.45.38,2.2.52-.22.11-2.58.36-3.82-.25-.86-.88-3.66-1.34-5.22-.42.7-1,.44-1.47-1,.33.21.33-1.89.56-2.85.31.48.76-2.16.89-.12-.16.59-.6.86-.44,1.67a11.94,11.94,0,0,0,1-3.13,2.53,2.53,0,0,1,.37,1.5C195.84,196.46,195.74,196.68,195.61,196.74Z"/><path class="cls-2" d="M291.24,206.2l0-.22-.12.27C291.18,206.16,291.21,206.16,291.24,206.2Z"/><path class="cls-2" d="M195.8,157.83a.87.87,0,0,0-.16-.18A.87.87,0,0,0,195.8,157.83Z"/><path class="cls-2" d="M218.87,157.12a.43.43,0,0,1,0-.14S218.8,157.05,218.87,157.12Z"/><path class="cls-2" d="M287.56,208.09l-.11-.52A2.38,2.38,0,0,0,287.56,208.09Z"/><path class="cls-5" d="M463.88,219.54c1.2-.07-.65-.26.78-.11A.89.89,0,0,1,463.88,219.54Z"/><path class="cls-5" d="M465,215c-.76-3.87,0-9-.48-13.2,0-.5.42.13.32-1-.59-4.11-.24-10.58.22-15.58l.12.3c.09-1-.31-2.12-.25-3.13.08,0,.11.32.22.09-.24-.25-.11-1.82-.29-2.25.09-.4.28-.36.38-.88l-.27-.58c-.64-1.61,0-3.9-.29-6.09.06.11.11.32.17.15-.39-3.52-.32-7.92-.46-11.86.1.16.27.3.38.07-.28-.19-.36-1.41-.41-2.46.29-.48-.27-1.81-.11-3l.06.11a1.94,1.94,0,0,1-.07-1c0-.27.07-.57-.12-.73q.11-.3.22-.66h0a.91.91,0,0,1-.84.07,1.76,1.76,0,0,0-1-.08l0,.08c-.68.1-1.07-.11-1.73,0l-.06,0c-1.55.11-2.45-.12-2.41.2-.54-.26,1.5-.12.65-.49-5.09.33-10.34.27-15.46.27a3.54,3.54,0,0,1-1.08-.29,18.73,18.73,0,0,0-2.39.22c.17,0-.33-.16-.6-.18-.93-.12-1,.35-2,.21.41-.09.54-.19.41-.31a17.37,17.37,0,0,1-3.07.29c.16-.05.41-.09.37-.19-1.13.28-2.06-.06-3,.12l.37-.19c-1.59-.22-.47.39-1.85.25.33-.06.21-.13.27-.21a32.58,32.58,0,0,1-4.65.34c.08,0,.06-.08.06-.08-1.4,0-2.86-.06-4.39.08-.56-.08.18-.45-1.29-.38.05.37-2.51.15-1.64.57a31.16,31.16,0,0,0-4.1-.07c.57-.14-.62-.45.43-.49l-.79-.22c.12-.15.82.05.56-.14-.53,0-2.06.16-2.53.1a13.73,13.73,0,0,1-3.45.7c.74-.14-.42-.41.08-.47l-2.2.71c-.52,0-.11-.29-.87-.2,0,.1-.29.16-.52.24s-2.18.09-2.41-.27c-.23-.14.86-.08.27-.21-1,0-1,.13-2,.13l0,0c-.64-.05-1.89.16-1.19.36.45,0-.17-.22.49-.11a8.19,8.19,0,0,1-2.55.28c.33-.06.29-.16.42-.26a31.32,31.32,0,0,1-4.14.5c0,.17.54-.32.76-.22-1.86-.24-3.85.34-5.4,0,.25,0,.14.25.12.2-.9,0-.86-.27-1.44-.18-.06-.15-.74,0-1.34.09-.31.11-.16-.07.37-.09a33.77,33.77,0,0,1-6.14.14,4.37,4.37,0,0,1-1.64.35l.17-.23c-.41-.14-1.49,0-1.57-.18-1,.28,3.67-.24,2.38,0-.33-.19-1.79.36-1.52.05a10.37,10.37,0,0,1-2.62.05c.25,0,.73-.32,0-.3-1.27,0-.36.11-1.39.19l-.65.09c0,.22-1.14,0-.66.22-.16-.18-1.85.11-1.72-.26l.18-.29a4.77,4.77,0,0,0-1.33.44c-.07,0-.22-.09-.19-.13,0,.22-.37.21-.77.19a6.13,6.13,0,0,0-.63,0l-.3,0a.23.23,0,0,0-.13.09,4.4,4.4,0,0,0-.91-.1,1,1,0,0,1-.19.68l.1.38.08.65a7,7,0,0,1,0,1.4c0-.2-.05-.48-.15-.54a3.1,3.1,0,0,0,.06,1.37,14.8,14.8,0,0,0-.42,2c.13.88.37.58.52.67-.44.81.28,2.49-.12,3.5-.06-.31-.22-1.29-.33-.55-.44.81.32,1.63.11,2.93l.36-.32c-.23.58.21,1.91-.16,1.78.13.44-.12,1.53.24,1.39-.3,2.14.18,5.19-.46,6.5.06.31,0,1.07.18.91.2-.51-.14-.71,0-.9,0,.27.11.33.16.36-.08.66-.11,1.19-.4.56-.22,1.48.6,1.52.47,3.4-.15-.09-.2.06-.18.61l.25,1c-.06,1.22-.33.69-.58.72a5.43,5.43,0,0,0,.22,1.74l-.31.79c.23-.57.15.53.21.84l-.06-.31a3.71,3.71,0,0,0,0,1.25c.15-.09.22-.86.26-1.27.11.33.08.85.21,1.29-.24-.15-.17,1.06-.2,1.57s.22.67.21.84c-.13,0,0,1-.2.5,0-.2.12-.46,0-.8-.09.39-.32.35-.15,1.15.12.61.48-.16.33,1a2.7,2.7,0,0,0-.25-.6l-.13,1.08.22,0c-.06.15-.08,0-.11.11.23.32.07,1.65.34,1.9,0,.55-.15,1.15-.18,1.67l0-.1a4.83,4.83,0,0,0,.11,2l0,0a6.24,6.24,0,0,0,.15,1.61c-.17.88-.84.3-.56,1.27,0,.89.41,1.4.55,1-.15,1.61.21,3.43-.13,4.92.09.23.15.09.2.56-.09,2.36.26,5-.17,6.86-.09-.68-.22,0-.35,0,.2.56-.21.68.14.88.2-.06.3,0,.38-.66.05.7.08,1.59.07,2.4v.59c0,.08,0,.13,0,.2a1.79,1.79,0,0,1-.11.36c.09-.21.15-.11.22-.06a.64.64,0,0,0-.3.49,1.22,1.22,0,0,0,.52,0l.13-.2a.73.73,0,0,0,.13.2c.07,0,.12-.13.17-.2s.32-.11.69,0a.39.39,0,0,0,.23.21,8.27,8.27,0,0,1,2.84-.27l.72.29c.38,0,1-.2.35-.29a12.37,12.37,0,0,1,2.95.44,43.81,43.81,0,0,1,9.36-.58l-.09.15c.81.14.42-.26,1-.15-.26.14.62.3,0,.47,1.16.15,1.49-.25,2.24-.32.11-.19-.6.12-.46-.12.13-.07,1.6.15,1.78-.14.29.11.06.33-.09.45l.71-.14c.86.34-2,.61-1.06,1l.65,0c.62.3-1.72.34-.09.45.71-.14,1.32-.57.68-.69,1.48-.08.68-.69,2.27-.67.43.17-1.27,0-1,.28.75.23,1.5-.13,2.17,0-.74-.11-.11-.4.36-.46.81.14-.52.28.62.3.19-.17,1.24-.29.33-.41.41-.38,1.19.11,1.81-.19.37.27-1.18.62.08.75-.2-.26,1.55-.35.89-.73.49.07.54.28.19.44.7.16,1.71-.47,1.94,0l.24-.26c.22.09.54.15.9.29.62,0,2-.36,1.94,0,.2,0,1.61,0,1.07-.3-.88-.17-1,.2-1.5-.17.62.3,1.27,0,1.78-.14l.08.15c.3-.06,1,0,1.19-.19-.23.09-.11.19.13.23l.32-.23c1.23-.12.29.41,1.49.34l-.91.18a6.57,6.57,0,0,0,1.18.11c.22-.21.64-.47.83-.64.68-.09.3.24,1,0l-.87.26c-.13.07.59.35,1.49.35.58-.07,1.47-.38.56-.5.45,0,1.09.13.73.28,1-.07-.13-.23.75-.36.36.14,1.49.35,2.17.55l-.92.36h.61c-.8.29.4.22,0,.52a4.72,4.72,0,0,0,1.33-.13c-1.23-.48,1.37-.66,1-1.1,1.68-.12,1,1.07,2.8.38-.29-.12.54-.45-.52-.32,1,0,.71-.44,1.94-.26-.91.18,1,.45-.34.71.09-.15-.74-.11-.94-.07.43.17-.09.44,1,.44.65,0,1.55-.05,1.42-.28s-1,0-.58-.23c1.3-.09,1.52.3,2.06-.15-.82,0-1-.23-1-.4l1-.11-.19.17c1.53.12.45-.3,1.94-.26l.7.33c-.35.29-2.16-.13-1.89.34a16.28,16.28,0,0,1,2.19-.1c-.2,0-.48.05-.68.09.35,0,.69.63,2.07.27.71-.14.19-.17.21-.34,1.55-.05,2-.23,3-.26-.21.34,1.76,0,.66.38a7,7,0,0,0-3.3.14c.56.4-1.22-.06-1.55.35,1.24,0,1.18.41,1.38.67a3.35,3.35,0,0,0,.88-.13c.15-.24-.3-.24-.33-.49a11.28,11.28,0,0,0,3.48-.31c.46.12.32.37-.23.39,1.65-.07,3.41,0,5,0-1-.4,1.75-.09,1.06-.43-.84-.09-1.56-.37-1.1-.55.52,0,0,.17.2.26.67-.22,1,.35,1.69,0-1.51.13-.29.49-.57.8,1.09-.18,0,.22,1,.22,1.08-.17,2.41-.31,3.62-.38a29,29,0,0,0,5.18,0c.71.16.23.51,1,.57s-.67-.38.66-.22l-.13.07c.4-.08,2.44.24,2.83-.27l-.41.38a2,2,0,0,0,.68-.09c0,.12.3.24-.11.32a8.41,8.41,0,0,0,2.62-.05l-.57-.23c1.53-.18,2.55,0,4,0l0,.22.88-.13c-.21.21.59.35,1.06.17l-2.29.54c-.64-.13.69-.27.3-.49a3.11,3.11,0,0,0-1.93.08,2.64,2.64,0,0,0,1-.1c.17.31-.62.3-1,.5.27,0,.66.08.72,0a7.4,7.4,0,0,1-2,.18c.61-.12-.33-.19-.1-.28-.07.27-.93.36-2,.28-.79-.31-2.08.2-3.37.12a6.08,6.08,0,0,1,2-.61c-.81-.14-.9,0-1.71-.13a3.52,3.52,0,0,1-1.72.64l-.06-.2c-1,.1-1,.4-2.17.35-2.08-.1-4.22-.1-5.81-.13l-.06-.2c-.88.43-2.95.16-4.13.35-2-.2-4.4.19-5.44-.16-3.57.16-6.7.31-10.4.23l.62-.3c-.66.22-.43-.17-1.08-.13.75.24-.9.31-1.36.49a20.62,20.62,0,0,0-5.22.23l-.06-.2c-1.48.38-3.24,0-5.08,0a2.27,2.27,0,0,0-1.09-.25,15.17,15.17,0,0,1-3,.51c-1.07,0-2.8-.08-3.89-.21-4,.46-8.13.17-12.3.44l-.3-.24c-4.05.51-9,0-12.49.31l.33-.41c-1.08-.13-2.47.11-2.2.4-1.09-.12-2.71.2-3.4-.14-1.17-.08-1.1.19-2.87.24l-2.28-.08c0-1.18,0-2.11,0-3.08l0-1.14,0-1.05,0,.52c.09.23.26.25.29-.27-.11-.78.11-2.88-.38-2.1.28-2.24-.23-5.22.15-7.4-.13.19-.16-.36-.25-.6a48,48,0,0,0,0-5.6c.07-.31.23.5.24-.3-.05-.47-.17,0-.25-.59-.25-3.18.26-6.44.19-9.34-.26-5.14-.13-10.51-.17-15.44l.1.06c-.37-1.65.38-3.87-.18-5.19.09-.39,0-1.49.23-1.2-.26-1.31.25-3.68-.09-5.58a1.58,1.58,0,0,0,.05.48c.22-1.92-.08-3.61.12-5.64,0,.21.07.58.17.64.19-.78-.41-1.85.06-2.28,0-.2-.06-.36-.12-.34s-.06.05-.08.13a.39.39,0,0,0,0,.17l0-1.81,0-1.93h2.31l1.91,0,2.86-.08,5.75-.18c3.31.28.2.79,2.81.44.21.09.15-.18.19-.08,1-.13,1.57.53,2.27.28-.29-.29.47-.16.49-.34,2,.19,2.43.45,4,.23l-.12.15c1.87-.43,4-.2,5.62-.7,10.32-.09,20.21-.37,30.27-.42,9.94.09,19.68-.13,29.78.13a15.52,15.52,0,0,0,5.14.23c-.1.06-.27.08-.09.14.13-.33,1.83,0,2.08-.34l2.18,0h3.53l0,9.18c0-.61-.3-.91-.28-.19l.21.76-.09.12c0,.49.21,1,.32.52.28,9.65-.37,19.14-.29,28.59-.14,2.24,0,5.44.06,7.88a198.77,198.77,0,0,0-.48,21.08S465.24,218,465,215Z"/><path class="cls-5" d="M462.44,219.57c-.26-.16-1.1-.25-.43-.47C462.09,219.25,462.53,219.43,462.44,219.57Z"/><path class="cls-5" d="M440,217.89s-.32-.07-.39-.09c.28,0,.54-.15.76-.06C440.08,217.74,440.12,217.82,440,217.89Z"/><path class="cls-5" d="M434.26,217.79a6.3,6.3,0,0,1,2-.28Z"/><path class="cls-5" d="M428.91,217.19c-.46-.12-.33-.19.29-.19C429.25,217.08,429,217.12,428.91,217.19Z"/><path class="cls-5" d="M428.53,217.52a2.07,2.07,0,0,1-.88-.17C427.67,217.48,428.68,217.27,428.53,217.52Z"/><path class="cls-5" d="M416.93,217.1c-.28,0-.88.13-1.14,0C416.07,217.18,417.14,216.88,416.93,217.1Z"/><path class="cls-5" d="M411.53,217.32a1.34,1.34,0,0,0-.45,0c-.32-.07,0-.17.29-.19Z"/><polygon class="cls-5" points="368.1 165.34 368.17 165.93 368.03 165.84 368.1 165.34"/><path class="cls-5" d="M397.68,154.09c.58-.09.41.14.5.16C397.66,154.26,398.38,154.07,397.68,154.09Z"/><polygon class="cls-5" points="420.88 153.36 420.7 153.37 420.76 153.07 420.88 153.36"/><polygon class="cls-2" points="163.48 379.33 163.62 378.42 163.22 378.14 163.48 379.33"/><path class="cls-2" d="M165,375l-.17-1.55c-1.19.89-.85-.31-1.7,2.11.19.85.6,2.73,1.07,2.48a8.45,8.45,0,0,1-.36-2.41c.34.39.3,1.36.75,1.82.37-1.46-.29-.93-.13-2.53Z"/><path class="cls-2" d="M163.77,373.2c.21.14.41.29.58.27C164.15,373.32,163.89,372.56,163.77,373.2Z"/><path class="cls-2" d="M163.65,372.26c0-1,.44,0,.5-.08l-.77-1.12Z"/><path class="cls-2" d="M163.7,368.18c0-.16,0-.31-.07-.46C163.51,367.88,163.61,368,163.7,368.18Z"/><path class="cls-2" d="M163.61,366.18c-.26.4-.1.91,0,1.55l0-.06c.22-.56.77,0,.63.87.12.95-.42.87-.06,1.69l.44-1.13A7,7,0,0,0,163.61,366.18Z"/><path class="cls-2" d="M163.7,368.18a4.31,4.31,0,0,1,0,.53A.59.59,0,0,0,163.7,368.18Z"/><polygon class="cls-2" points="163.64 370.23 163.75 370.74 163.98 370.62 163.64 370.23"/><path class="cls-2" d="M163.57,362.84c.74.23-.08,2.39.5,2.65,0-1.32.52-2.37.93-2.09l-.23-1.46C164.48,361.46,163.92,362.08,163.57,362.84Z"/><path class="cls-2" d="M165.46,360a.88.88,0,0,1-.13-.34A.62.62,0,0,0,165.46,360Z"/><path class="cls-2" d="M164.17,352.61l.75,3.41c-.24-.32-.48-.19-.56-1-.1,1.51.38,1.7.3,2.95-.69.38-.05-2.2-.67-1.48a5.06,5.06,0,0,0,.64,2.9l-.47,1.39.76-.48c.22-.56-.6-1.14-.07-1.49.33-.18.39.39.47.79-.15-.9.6-2.46.49-4.28S164.54,353.87,164.17,352.61Z"/><polygon class="cls-2" points="165.01 352.47 165.31 352.25 164.91 352.4 165.01 352.47"/><path class="cls-2" d="M164,348.75l.48,1.78a1.07,1.07,0,0,1-.36.42c.17-.07.47.41.62.33.69-.81-.22-2.17-.34-3.12.31-2.52.37.11,1-.87,0,.71-.19.73-.23,1.71.78-1.54.06-3.48-.13-4.46-.07.29-.28.36-.22.9l-.23-1C164.08,345.48,163.93,346.39,164,348.75Z"/><path class="cls-2" d="M164,351.92c-.05-.66,0-.91.1-1C163.93,351.13,163.8,351.36,164,351.92Z"/><path class="cls-2" d="M165.05,344a1.13,1.13,0,0,0,0,.54A1.18,1.18,0,0,0,165.05,344Z"/><path class="cls-2" d="M164.23,345l.07-1.25-.32.49C164,344.43,164.07,345,164.23,345Z"/><path class="cls-2" d="M147.79,311.71c.11.28.57.42,1.53.36-.12.37-1.36.3-1.94.52,1.27.24,0,.44.3.8,1.42,0,2-.45,3.56-.35-.08.11-.05.27.15.4a27.09,27.09,0,0,1,6.69-.26,16.15,16.15,0,0,0,2.37,0l2.74-.22.82,0,0,2.59v2.27l0,4.61c0,3.1,0,6.26-.14,9.47l.73.94c-.36.32,0,1.58-.47,1.39a4.35,4.35,0,0,0,0-1.15c-.64,1.42.05,3.78-.18,5.49.13-.2.76-.48.87,0-.81-.13,0,2-.91,2.53-.23,1.71.71.06.58,1.84.48.19.23-1.71.59-2,.39.56-.16,1.61.34,1.53.24-2.86-.76-8.16-1-12.53l.45.46c-.32-2.24-.34-5.85.39-7.64-.43.42.23-3.3-.74-3a4.61,4.61,0,0,0,.27-1.54l-.31-.22c0-1.14.48-1,.45-2.27-.42.84-.54-.07-.88-.51.2-.78.4-1.81.58-2.92-.56-.12-1.17-.23-1.81-.34a16.18,16.18,0,0,1-1.71-.33,1.11,1.11,0,0,0,.21.22,1,1,0,0,0,.2.12l.43.13-.45,0h-.21a.44.44,0,0,0-.24.11c-.1.1-.13.23-.25.3-.87,0-.79-.52-.74-.79-1.61-.17-2.33.86-3.54.52l.43.43c-1.66.11-3.05-.37-4.89-.22-.88-.59,1.5-.51,2.26-.76a7,7,0,0,1-1.41-.35c-.79.3-2.1.71-3.07,1C150.74,311.72,148.42,311.76,147.79,311.71Z"/><path class="cls-2" d="M152.89,311.41a4.67,4.67,0,0,0,.52-.23,1.75,1.75,0,0,1-.61,0C152.78,311.3,152.81,311.36,152.89,311.41Z"/><path class="cls-2" d="M147.79,311.71s0,0,0-.07C147.57,311.68,147.63,311.7,147.79,311.71Z"/><path class="cls-2" d="M158.32,313.21l-.24,0-.3,0Z"/><path class="cls-2" d="M159.68,311.27a13.36,13.36,0,0,0,1.4.46C160.93,311.53,160.8,311.38,159.68,311.27Z"/><path class="cls-2" d="M165.25,320.53c.08.34.2.15.34.39C165.61,320.21,165.47,320,165.25,320.53Z"/><polygon class="cls-2" points="150.88 311.3 149.48 311.43 148.97 311.55 150.88 311.3"/><path class="cls-2" d="M122.67,313.53c1.23.51,3,.2,4.55.3,2.77-.27.35-1.12,3-1.18l-.45,1.05c2.63-.06,6.37.16,8.6-.77.2.13.66.29,0,.44,1.76,0,.91-1.5,3.26-1.15-2.19.65.72.62.12,1.27l-.34.08c1.49-.07,3.46-.42,4.44-.37,0-.27-.81-.69.5-.72-.53-.05-.32-.36-.27-.63-1.36.3-2.1.12-2.93.47-.76-.35.51-.11-.25-.46l-1.09.33c-.8-.09.83-.36-.42-.43a3.77,3.77,0,0,1-2.14.39l.28-.12c-.75.14-1.81,0-1.45.55l-.88-.58.15.4c-2.05-.16-2.82-1.11-5.48-.62.64.12.06.33-.28.41,1.11.27,1.36-.3,2.41-.36.16.4-1.63.88-.35,1.12-1.39-.47-2.64.06-3.23-.93-1.68-.06-2.32.42-4,.19l.05-.15c-.31.66-1.39-.3-2.66.38l.9.15c0,.27-.48.28-1.09.33.07-.1.07-.1-.13-.23-.18.48-2.11.55-2.35.69a14.22,14.22,0,0,0,2.75-.43C123.33,313.21,123.47,313.61,122.67,313.53Z"/><path class="cls-2" d="M140,311.79l-.54.23A1,1,0,0,0,140,311.79Z"/><path class="cls-2" d="M115,312.7c-1.08-.11.29-.41-.72-.62-1.09.33,1.25.68.18,1.17-.66-.29-1.73.21-2.17.22.48-.28.2-.91,0-1-.41.18-1.34-.14-2.05-.16,1.74.4-1.46.24.11.67-.11.37-1.75.65-2.41.36,0-.27.59-.21,1-.23.36-.51-1.1-.28-1.35-.74-1.65.71-6.95.66-5.45,1.81.57.22,1.05-.06,1.67-.1-1.72-.23,0-.61.13-.81.73.18,2-.18,1.7.23l-1.16.43c3.73.22,8.84.14,13.13,0l-1.86,0c.22-.31,1.09-.33,1.78-.48l-.91-.75c.53.06,1-.06,1,.21.65-.32.35-.51,0-.77,1.39-.13,1.61.16,2.68-.33-2.3-.62-1.95.51-4.58,0Z"/><polygon class="cls-2" points="120.09 312.28 119.54 312.66 120.39 312.48 120.09 312.28"/><path class="cls-2" d="M119.21,313.94c0-.17.31-.24.28-.41C118.42,313.43,118.55,313.66,119.21,313.94Z"/><path class="cls-2" d="M106.26,312.3l-1.39.13.9.15C105.75,312.41,106.08,312.33,106.26,312.3Z"/><path class="cls-2" d="M96.53,314.27c1.93-.08,2.75-.43,4.92,0,1.07-.5-.5-.93,0-1.38-1.08-.11-.95.73-2.07.89-.41-.42-1.63.09-2.7,0A.34.34,0,0,1,96.53,314.27Z"/><path class="cls-2" d="M89.9,312.63a10.7,10.7,0,0,1-2.46.12c.1-.27.62-.37,1.15-.3-.34-.61-1,.1-1.92-.31.08.07.43.17.16.3-2.36-.14-1.33.5-4.4.15-.44.16-.88.16-.81.57a19.06,19.06,0,0,0-3-1c.08.24.77.78.75,1.28-3-.71-3,.1-4.92-.43a2.55,2.55,0,0,1,1-.09c-.24-.71-1.59.13-2.64,0l.1-.6c-1,.1-2.65.49-3.87.05l.28-.3a28.93,28.93,0,0,1-4.24.31l.05,3.1c0,.71,0,1.37.11,2l-.37,1.14c.46,2.91.21-2.89,1.11-.76-1.11.32.36,1.5-.08,3.16-.44.78-.23-1.68-.74-.81.57.37.16.88.33,1.77-.54-.19-.07,1.85-.68,1.3l1,3.11a3.71,3.71,0,0,0-.18,2.07c0-1.68.8.46,1-1.42a70,70,0,0,1-.16-10.74c-.37-.18-.37-.76-.35-1.26a2.64,2.64,0,0,0-.25-1.54,2.28,2.28,0,0,0,.36.13,3.13,3.13,0,0,1,.45.31c.73-.08.64-.18.28-.29s-1-.24-.87-.38a3,3,0,0,1,1.32.17c.34.13.49.31.48.44a3.19,3.19,0,0,0,.62,0c.1,0,.1-.06.07-.11s-.2-.26.2-.46l1,.81c4.93-.25,11.46-.79,17.08-.33l-.43-.51c2.55.28,4.26-1.12,6.51,0l.77-.44c-.42.25.44.76-.22,1.11.69-.17,1.43,0,2.14-.14l-1.27-.24a2,2,0,0,1,2.17.21c1.9-.51-1.13-.88-1.55-1.3-2.67.94-2.69-.91-5.26-.52C88.24,312.19,90,312.36,89.9,312.63Z"/><path class="cls-2" d="M93.2,314a1.92,1.92,0,0,0,.39-.14A1.72,1.72,0,0,0,93.2,314Z"/><path class="cls-2" d="M65.64,328.47c0,.2,0,.43,0,.75S65.71,329.06,65.64,328.47Z"/><path class="cls-2" d="M96.64,313.73h0Z"/><polygon class="cls-2" points="97.92 312.49 97.2 312.47 97.33 312.7 97.92 312.49"/><path class="cls-2" d="M65,336h.26A.18.18,0,0,0,65,336Z"/><path class="cls-2" d="M64.85,356.29v-.44A1,1,0,0,0,64.85,356.29Z"/><path class="cls-2" d="M91.71,379.94a17.38,17.38,0,0,0,4.07-.75l-.1.27c.71-.13,3-.56,1.52-1l-.36.23c-1.68.4-1.22-.44-2.53-.61-1.58.13-2.49,1.13-3.89.89-.61,0-.52-.24-.34-.44-1.41-.07-2,.7-2.93.79-.39-2-4.33.55-6.41-.73a37,37,0,0,0-4.76.38c.89-.5-1.58,0-1.21-.61-.48,1.17-4.83-.53-5.13,1-1.14-.21-1.16-.18-1.23-.15s-.25.07-1.32-.1c.11-.17.45-.17.59-.2-.4-.19-.86.09-1.37.18a1.13,1.13,0,0,1,.22-.91c.06-.8,0-.85-.21-.83s-.39.18-.59-.46c.17-2.19.37-1.57,1-2.79-.7-.2-.37-1.5-.73-2.57,0,.27-.17,1.76-.44.78.11-2.55-.46-2-.65-4.42.78-1.21,0,2.38.64.28.36,1.51.32,2.65.89,3.46a42,42,0,0,0-.41-6.7c.11-1.23.37.63.44-.34.34-2.19-.79-3.37-.45-5.12l.4.36c-.53-1.07.12-3.87-.18-5.9-.2.26-.34.43-.47.16,1,0-.52-2.83.19-4.83-.64.16-1-1.79-1.06-3,.18-.43.44-.34.61-.34-.37,2,.7,2,1,3.55-.33-1.33,0-3.52-.45-4.68l.5.46c.08-1.84-1.13-1.61-.65-3.54l.37.19c-.05-3.87.61-8.43-.22-11.53-.31-.27-1,1.29-1.25,1.38.26,1.85.79,2.92,1.06,4.34l-.58,0c.4.32.63,2,.94,1.08.3,1.15-.51.87-.18,2.2-.6-.11-.67-.9-1.17-.91l.3,1.15c-.23-.37-.2.69-.44.34.73,2.14-.28,3,0,5.19l.11-1.23c.33,0,.3.71.4,1.24-.47.6-.41,1-.61,2.09.26,1,.87,1.52.86,2.84-.64-.28-.34,2.19-.88,2.44.63.28.22,2.56.59,2.74.13.71.06,1.67-.28,1.67,0-.1-.08-.31-.11-.53l0,.7c-.07-.07-.13,0-.14-.12,0,.63.45.63.13,1.45-.17,0-.17-.45-.23-.81-.11,1.68,1,2.93.38,4.33.3.28.32,2.21,1,1.79-.24.52-.77.32-.68,1.73.57.81-.21,1.58.15,2.65-.59-1.42-.16,0-.73-1.25-.24,1,.53,2.39.42,4.06-.13.17-.3.17-.44.34.2.62.67,1.34.19,1.94l.4-.08a23.67,23.67,0,0,1-.52,3.94l.1.18.1.26.19.48a6.63,6.63,0,0,0,.38.77,8.7,8.7,0,0,0-.27,1.41,9.89,9.89,0,0,0,1.77.08c.32,0,.63,0,.94-.06a5.93,5.93,0,0,0,.73-.12,11.33,11.33,0,0,0,2.35-.78c.7,0,1.75.17,1.75.34-.16.06-.44.18-.76.28,1,0,2.29.47,2.87-.17,1.06-.19.77.44,1.56.55,2.14-.9,6.32.66,7-.71-.87,0-2.54-.28-4.21-.22.44-.17.1-.44.72-.47,1.67-.06,2.53.44,4.21.22l-.2.87C86.85,380.76,89.46,378.69,91.71,379.94Z"/><path class="cls-2" d="M70.25,379.92l1.22.44-.13-.38A2.12,2.12,0,0,1,70.25,379.92Z"/><path class="cls-2" d="M71.34,380a4.43,4.43,0,0,0,.71-.18,2.16,2.16,0,0,0-.74.08Z"/><path class="cls-2" d="M96.55,379.79a4.25,4.25,0,0,0,1.32,0A2.51,2.51,0,0,0,96.55,379.79Z"/><polygon class="cls-2" points="97.97 379.52 97.36 379.39 97.27 379.49 97.97 379.52"/><path class="cls-2" d="M133.53,378.77l2-.53c.34.27,2.55-.06,1.84.41,1.16-.63,3.69,0,2.75-.93-5.72.31-13.62-.22-20.25.59l1.06-.37c-3.44.73-4.72-.79-7.49.64l.37-.74c-1.58-.21-3,1.06-4.67.28l.16.3c-.44,0-.61-.14-1-.14l.17.13a6,6,0,0,1-3,.06c-.08-.23.53-.1.88-.16-.52-.24-1.42.26-2.3.26-.69-.21,0-.34.1-.44-2.65.33-3.86-.45-5.74.65-.18.2.69.37-.28.47a11.85,11.85,0,0,0,4.76-.39h-.44c1.27-1.07,1,.24,3-.22-.54.43-1.42.43-1.78.66,2.35.82,3.36-.62,4.91.42l-.17,0a4.32,4.32,0,0,0,1.5-.19,4.75,4.75,0,0,0-1.05-.31,1.79,1.79,0,0,0,1-.77c.6.47.8-.23,1.76,0,.34.44-.8.4-1.16.63l1.15-.3c1.06,0,1,.48,1.56.71.9-.33-.52-.24.2-.7,1.13.54,6,.39,8.27,0-.79.06-.28.47-1.24.4.35.1,1.58-.13,1.59-.46a14.42,14.42,0,0,1,5.1.22l-.43-.34c1.25-.57,3.15.42,5.36.09h0c.71-.07,1.32-.89,2.62-.72C134.16,378.4,133.46,378.36,133.53,378.77Z"/><path class="cls-2" d="M141.3,378l-.72.47c.79.1,1.78-.49,1.61-.8-.53.1-1.23-.11-1.32.16C141,377.89,140.94,378.05,141.3,378Z"/><path class="cls-2" d="M156.08,377.92c.29-.11.21-.28.33-.42-3.13.06-7,.25-8.24-.12-1.05-.14-1.25.57-2.57.73l-.6-.47c-.72.3-2.9-.21-2.13.56.08.07.62-.37,1.23-.23l-.1.27,1.41-.09-.45.33c1.93.48,1.35-1,3.72-.69l0,.67a12.52,12.52,0,0,1,3.77.22s0-.34-.26-.2c-.26,0-.6-.31-.42-.51,2.39-.53-.37.4,1.3.68,2-.46,5.92-.85,7-.31-1-.41.46-.84,1.61-.8.52.24-.36.4-.55.6a4.44,4.44,0,0,0,1.49.14c-.69-.37-.24-.87,1-1.1C161,376.76,158.81,378,156.08,377.92Z"/><path class="cls-2" d="M156.89,377.35a.7.7,0,0,0-.47.15l1.08,0Z"/><rect class="cls-6" x="367" y="270.33" width="97.67" height="66"/><path class="cls-5" d="M418,339.25l-.84-.23C417.16,339.12,417.38,339.21,418,339.25Z"/><path class="cls-5" d="M464.73,267.34l.34-.05A1.18,1.18,0,0,0,464.73,267.34Z"/><path class="cls-5" d="M385.32,331.41h0l.22-.06Z"/><path class="cls-5" d="M428.2,332c-11.25-.28-14.24-1.37-25.9-.93-5.56-.09-11.5.16-16.94.29-2.58.85-7.14,0-10.19.72l-1.18-.48-.82.16-.42.06a2.39,2.39,0,0,0-.31,0,.2.2,0,0,1-.28-.11l.06-.14c-.32.31-.59.2-.8.27a.06.06,0,0,0-.06,0l.14-.12-.06-.3.2-.07a.48.48,0,0,1-.22-.25,1.14,1.14,0,0,1-.07-.19v-.05a.44.44,0,0,1,0-.12l0-.51c0-1.36,0-2.69.09-3.93l-.58.21c.65-5.32-.55-7.27.22-12.07l.14.07c-1.53-6.07,1-9.6-.41-15.86.18.78.3-.33.44-.27-.17-2.88-.25-6-1.39-6,0-2.1.36-1.71.8-2-.5,0-.71-1.81-.74-3.45l.19.75-.17-4.7-.94.92c.27-2.49,1.15-.63.92-3l-.78,0a18.35,18.35,0,0,1,.8-4.44L370,276a1.76,1.76,0,0,1,.07-.23l.08-.11a4.07,4.07,0,0,1,.3-.36,6,6,0,0,1,.52-.49l0-.45a11.58,11.58,0,0,0,1.32,0l4.78-.15,10.18-.42a137.74,137.74,0,0,1,19.56.29l.57.59c.25.86,3.56-1.27,4.05-.48l1.5-.39c.42.15,1.31.32.56.51a5.75,5.75,0,0,0,2.42-.37l1.49.53c5.48.41,10.13-.62,15.89-.41a78.07,78.07,0,0,0,13.51.38c2.53-.09,5.08-.24,7.46-.4l3.43-.24.8-.06.39,0,.31,0,.61-.11a9.28,9.28,0,0,1,1.86-.27,13.14,13.14,0,0,1,0,1.69l-.08.87-.12,1.87c-.18,2.5-.42,5-.64,7.55a68.72,68.72,0,0,0-.08,14.85,1.9,1.9,0,0,0,.25,1.25l-.12,9.89s-.33,47.94,6.78,11.52l.19.24c.45-5.41.55-8.82-.39-12.55,1.15-.59.12-4.45.49-5.71l.09.12c-.89-3.3.74-6.8-.06-10a1,1,0,0,1,.43.92c-.15-2.32-.4-5.49.27-5.66-.09-2.77-.05-6.09-.13-9.15,0-1.53-.11-3-.23-4.32l-.1-1-.13-1.44c-.09-.9-.21-1.68-.34-2.32l.19.31a16,16,0,0,1-.35-4.86,24.62,24.62,0,0,0-2.61.13c-.13-.09-.34-.13-.28-.17a23.1,23.1,0,0,1-3.13.32c-.55,0-1.12,0-1.69,0h-1.39a27.71,27.71,0,0,0-3.95.05l-.12-.45-4.39.1,1.64.1c-.57,1.22-3.32-.77-6.5,0-3-.15-6,2.55-9.13,1.95-1.47.57,1.3-.93-.91-.49-.07-.64,1-.4.46-.91-2.16.3-3.55-.65-6.22-.22l-.11-.5c-3.48.91-6.57-.65-8.89.21-3.59.41-2.41-1.48-6.15-.5l-1.45-.67c-1.6-.11-1.15.82-2.92.5.11-.42-2.24-.34-1.2-.74-4-.66-8.15.94-13.44-.18-1.15.82-3.81.33-4.67,1-.14-.36-5.33-.06-2.35-.84.26-.06.71-.05.68.09l.36-.49c-3-.92-5.48.51-8.47.37.88.16,2.06.12,1.28.46l-2.77-.07.58-.41-4.13-.24.57.51a21.23,21.23,0,0,1-2.41-.57,4.34,4.34,0,0,0-1.14-.11l-1,.08c-.44,0-.92.11-1.41.2-.88.2,0,.37.63.51s.94.25-.82.33c-2-.15-4.45-.33-7.29-.5-.11,1.61-.22,3.38-.31,5.21l-.21,5c.57-.32.55.61.67,1.56l-.5.11c.69,3.66-1.1,1.34-.55,5l-.35-.32,1,1c1,3.28-1,1.77.31,5.41-.08-1.44,1.1-.68.88,1.09l-.48-.45a7.68,7.68,0,0,1,.2,2c-.26-.58-.7-.31-.62,1.13l-.6-1,.88,2.73c-.52,2.11.13,5.44-.55,6.31,0,0-.33,4.53.41,5.57-.46-.91-.64,1.59-1.18.88.52,1.17.95,4.64.39,6l-.06-.26c-.57,5.13.78,8.77.09,13.38.58-.21.26,2.22,1,1.62a14.19,14.19,0,0,1,.15,2.37l0,1.61-.1,1.78c-.15,2.33-.34,4.61-.27,6.29a9.5,9.5,0,0,0,4.41-1,12.62,12.62,0,0,1,3.35.24l1.09.25.53.1.39.07c-.19,0-.3.08-.56.12,4.15-.19,5.26-.21,8.3-.16,1.5-.22,1.74-1.28,4.44-1-.87.42.23.34,1.24.34-.64.07-.84.22.48.5a2.37,2.37,0,0,1,.74-.28s.06.06,0,.1c1.68-.15,1.39-.28.61-.34,0-.06,0-.15-.27-.26,1.75.54,4.87,0,5.08.69,5.06-.17,8.68-.92,12.9-1.2.47.37-.51.7-1.73.85l3-.14c0,.54-1.72.31-2.64.42,3.56.87,7.34-.86,11.51-.07l.87-.42.25.07c0-.22.92-.53,1.54-.6.59.47,0,1.08,2,1,1.63.45,4.64-.23,6.78-.48-1.15-.08-.78-.34-.28-.5,1,0,1.63.45,2.43.25l.1.63c-.41-.59,2.7-.64,3.08-.9.59.47-1.6.4-1.86.75l6.21-.09c2.21-.47-.4-.6.66-1.15,2-.12,3.86-.56,6.1-.18l-.71-.56a22.45,22.45,0,0,1,8.33.2c27.32-4.56,5.76-6.22,5.76-6.22C446.55,330,441,331.6,428.2,332Z"/><polygon class="cls-2" points="635.17 296 635.81 295.69 635 294.03 635.17 296"/><path class="cls-2" d="M635.86,279c-.7-1.52-1.14-4.44-2.47-4.48l1.18,2.76c-1,.38-.94,2.2-.61,3.8l-.06-1.82c.13.47.77.17.9.64-.51,2.78.87,3.49-.23,6.06l-.11-.15.65,2c-.15.64-.62.39-.8.18a15.78,15.78,0,0,1,1,5.63c1.82-1.9-1.42-5.38.4-7.27l.11.14C635.18,284.13,636.35,281.38,635.86,279Z"/><path class="cls-2" d="M634.32,288l0-.16C634.22,287.85,634.25,287.92,634.32,288Z"/><path class="cls-2" d="M592.9,226l-.1.29C592.94,226.23,593.08,226.13,592.9,226Z"/><path class="cls-2" d="M622.88,229.71l-.15,0C622.54,230.08,622.64,230,622.88,229.71Z"/><path class="cls-2" d="M574.68,299.51l.59.42C575.12,299.54,574.91,299.46,574.68,299.51Z"/><path class="cls-2" d="M614.93,299.84l.06,0Z"/><path class="cls-2" d="M596.6,294.2l-.08-.37C596.44,294,596.48,294.15,596.6,294.2Z"/><path class="cls-2" d="M609.59,293.46a4.78,4.78,0,0,0,1.08.17A1.37,1.37,0,0,0,609.59,293.46Z"/><path class="cls-2" d="M614.53,300a2,2,0,0,1,.39-.15A1.23,1.23,0,0,0,614.53,300Z"/><path class="cls-2" d="M577,293.52l-.51-1A2,2,0,0,0,577,293.52Z"/><path class="cls-2" d="M612.8,292.69a1.35,1.35,0,0,0,.68.34A.81.81,0,0,0,612.8,292.69Z"/><path class="cls-2" d="M635.79,276.34a7.23,7.23,0,0,0,.14,1.29A2.63,2.63,0,0,0,635.79,276.34Z"/><path class="cls-2" d="M538.69,264.42a1,1,0,0,0,.37.23C539,264.37,538.84,264.35,538.69,264.42Z"/><path class="cls-2" d="M546.69,292.8l.14,0a1,1,0,0,0-.18-.15Z"/><path class="cls-2" d="M538.38,292.56l.21-.11A1,1,0,0,0,538.38,292.56Z"/><path class="cls-2" d="M556.16,291.79a1.69,1.69,0,0,0,.44-.33Z"/><path class="cls-2" d="M565.22,292.79c-.41-.34,0-.66.46-1-2.26-.46-3,.73-5.36-.1l1.1.47c-1.52.7-4.33.85-5.69-.07l.42-.31c-1.45.77-3.72-.65-4.34,0,.59.42,0,.66.89,1.05l-3.68.79-.28-1.3-1.93.43c.48.52-2.59-.41-2.64.82-1.1-.47.45-1,.85-1.49-1.09.38-1.21-.18-2.22.57l-1.08-1.13-1.42.41-.35.1c-.13,0-.07.07-.11.1a1.31,1.31,0,0,1-.16.2c0-.11,0-.19.08-.29-.14.36-.32.37-.42.33s-.15-.13-.45,0a7,7,0,0,0-.73.25.7.7,0,0,0,.19-.11c-.45.18-.51-.19-.44-.54a1.84,1.84,0,0,1,.18-.49l.06-.1a2,2,0,0,0,.05-.2l.09-.37c-.22-1.46-1.09-.61-1.57-.67.29-4.24.22-2.89-1.13-6.45,1.42-2.13,2.29,2.52,3.29-.19-.69-.36-1.24-2.24-1.51-4.36.49-1.94.87-5.19,1.84-7.07l-.93.19-.52-2.73,1.36,1.55c-.32-.43-.91-1.81-1.37-2.72-.81-2.83,2-1.61.61-3.81a1.66,1.66,0,0,1,.3-.21c-.72-.71-.46-2.57-.72-4.71l1.19.75-.25,1.39c1.16-.75-.2-2.3-.13-3.65-.41-1.41-1.38-.71-1.73-1.47.05-.51-.3-1.27,0-1.68.37-1.24,1.4-.13,1.91.26-1.22-1.07-1.07-1.44-1.56-3.84.58-.13.83,0,.95.37a1.83,1.83,0,0,0-.92-1.2l.68-.81c1-2.72-2.22-2.7-1.84-6,.64.87-.15-2.81.61-3.81.19,1.13,1.75-.54,2.47.14.43-2.6-1.41-1-1.69-3.15l1.49.85c-.65-2-.8-.49-1.26-2.57.43.57.39-.92.88.31l0-.87a1.54,1.54,0,0,1,0-.31l0-.19a1,1,0,0,1,.1-.4q-.72-.54-1.43-1.13c-.11-.38.15-.32.42-.14l.4.32h-.08a.38.38,0,0,0,.15.33,1.77,1.77,0,0,0,.42.24c.14.07,0-.15,0-.27s.13-.16.48.29c-.29-.45-.89-1.09-.44-1.17.33.88.86.81.9,1.18-.05-.15-.06-.24,0-.31s.05-.12.45-.17c.62-.11,1.34-.27,1.41-.75,1.14.66-.36.69-.42,1.17.93-1.12,4-.16,4.84-.8,0,.09.07.15.06.21,1.2-.68,3.2-.85,5.6-1.84l-.82.83c2.42.36,1.47-1.73,3.48-1.72-.42,1.17,3.32-.1,2.42,1.21,1.2-.67,2.47-1,3.25-2,1.14.66-2.17,1.61-.59,1.94l1.7-.62.3.63c.07-.48,1.56-.51,1.48-.89.27.76,1,1.29.88,1.87,1.08-.23,2.59.5,3.49-.17l.08.37c1-1.41,3.28-.29,3.8-1.75l.67.79c1.64-.14,1.33-1.62,2.09-2a8.35,8.35,0,0,1,2.15-.09c-2.14.94,1.08,1.13,1.52,1.66.84,0,3.32-.1,4-.82-1,.75-.38,1.35-2.2,1.42,1,1.42,2.77-.34,4.81-.14l0,.66c2.91-.44,3-1.59,4.26-2.74.34.82.06,1-.77,1.86,1.94.49,5-.06,7.19,0,.69.58.24.92-.49,1.18,2.26-.63,5.05.14,6.47-1.32-.56.58.91.38,1.74.66,0-.3.16-.69.26-.65,1.38-.59,4.43-1.14,6.05-.62l-.58.43c3.73.24,5.37-2.26,9.44-1.2.73.31-.75,1.2.74,1.16.73-.53.49-1.65,2.39-1.34l-.13,1,1.29-1c-.67-.79-2.78-.51-1.3-1.4,1.7.89,1.48-.88,3.55.16-.48.1-1.1.83-1.44,1.21a11.5,11.5,0,0,0,5.08.12,19.45,19.45,0,0,1,2.46-.24,8.68,8.68,0,0,1,2.68.3l-.08.4a13.63,13.63,0,0,1,.82,3.38l.17,1,.18.8a7.48,7.48,0,0,0,.44,1.35,3.06,3.06,0,0,1-2.55-1.12c-.12,1.86,2,2.74.63,4,1.3.89.83,5.17,2.66,5.62-.37.08,0,2-1,.05.6,2.54-1.59,3.35-1.59,4.51.06.65,1.16-.75,1.2.74-.08.18-.26.22-.34.41l.43.57c-.42.59-.91-.65-1.38-.71-.39,2.09,1.06,3.45,1.18,5.92l-.32-.42-.07,2.52-.11-.14.65,2-.47-.06c.13.47.43.58.49,1.23l-.58-.21c.91.64,1.4,3,1.4,4.21l-.26.22,1.18,2.75c-.63,1.47-1.39-1.87-1,1l-1.2-.75c.47,2.07-.17,2.38.23,3.79.61-.64.52-1.62,1.05-.89-1.37,1.63.35,2.6.91,4.16,0-.79,0-1.33-.71-1.87,0-.84.64-.3.69-.82l-.67-1.19.82-.34-.65-2c1,.13.12-1.87,1.13-1.08-.41-1.42.28-2.23-.69-3.53.58-1,.7,1.52.8.5a91.73,91.73,0,0,1-.3-17.47l.43.57c-.43-.57-.78-1.34-1.1-1.76.77-1,1.75-4.88.31-6.25.08-.19.29.11.4.25a19.45,19.45,0,0,1,.34-3.85c.11-.74.21-1.51.28-2.27l0-.57,0-1c0-.69,0-1.37,0-2a3.09,3.09,0,0,1-.53-2.12c0-.92.14-2,.22-3.15a6.58,6.58,0,0,0-4.51.82l1.21-.43c.63.29-.24.65-1.18,1a12.21,12.21,0,0,0-2.29.95,2.29,2.29,0,0,1-.39-1.18c0-.24,0-.48-.82-1.1l1.85.47a10.76,10.76,0,0,0-.17-1.11c-.47.18-.9.33-1.3.46l-.59.17-.32.14a4.12,4.12,0,0,1-1.26.27,7.18,7.18,0,0,1-2.36-.36c-1.49-.42-2.81-.95-3.92.09.14-.11.1-.29.25-.4-1.47-.63-2.51.78-3.59,1.16-.12-.56.65-.91,1.21-1.33-2.59-.43-6.95,1.08-9.81.19-1,.75.38,1-.67,1.57-.88-.21-1.51-.81-.42-1.19-2.47-1.39-8.16.9-11.94-.37-2,.83-.75,1.2-3.8,1.75.72-.53-.72-1.82,1.1-1.89l.22-.58c-3-.11-7.08-.33-8.74,1.33-.1-1.22-.55-.24-1.7-.89-.47.14,0,.18.23.26-1.12,1-1.68,0-2.48.12l.28-.21-2.18.76c-.36-.16-.91-.39-1-.76v.85c-1.17,0-.57-1.08-2-.86l.31.63c-.92-.39-2.41.49-2.6-.43,0-.18.14-.11.47-.13-1.45-1.29-3.75.42-5.54-.18l.46,1.38c-1.75.43-1.07-.28-1-.76-1.17,0-1.43-.44-3-.59-.76.35-.4.51-.64.91l-1.57-.33,1-.75c-2.42,2-6.06-.23-7.67,1.61-.92-.39.82-.83.27-1.06-2.86-.88-6.4,1.31-8.79.29a22.64,22.64,0,0,0-5.81-.47l-1.52,0h-2.78c-1.88,0-3.76,0-5.78-.16l-.1,1.3.37.17-.3,5.49a5.66,5.66,0,0,1,.43,1.54,10.91,10.91,0,0,1,.22,1.12,5.13,5.13,0,0,0,.75,2.28c-.29-.11-.74.17-1-.13.12,1.31.52,2.73,0,3.5l-.32-.44c-.22,2.89-.25,6.91.45,8.42.09,1-.58,1-1,1.23a9,9,0,0,0,.93,4.14,4.21,4.21,0,0,1-.65,1.15l.9.64c-.13.7-.74.16-1,.71,1.08,2.61.12,5.65.18,7.48l.45-.26c.35.76-.28,2.23-.73,1.33-.54,3.62,1.41,5.37,1.18,10.26-1.64.68.48,4.41-1.35,5.13.47,2.07-.27,3.4.8,4.84-.19,0-.26.22-.29-.11-.68.83-.16,3.52.3,5.64l-.55.23a7.8,7.8,0,0,1,.91,3.37,17.92,17.92,0,0,0,.63,3.61,5.31,5.31,0,0,0,1.45-.5c.12.25-.94.49-1.65.7l0,0,0,.11c.37.52,1.39.38,2.38.13a8.64,8.64,0,0,1,3-.46c-.27.29.33.63-.22.85.48.08,1,.15,1.54.2l.8.07.47.06a18.26,18.26,0,0,0,2,.08c1.37,0,2.84-.13,4.34-.27a39.53,39.53,0,0,1,9.21-.16c1.68,0-.61-1.27,1.58-1.17.63.61-1.07,1.23.32,1.48,1-.75,1.38-.59,2.73-.52-.25.4,0,.66-1,.94.78.5,3.31-1,4.86,0-.08-.37.21-.58.49-.8,2.28-1,5.24,1.05,5.45.47,0,0,.8-.16.1-.29.84,0,2,.2,1.84.79.44-.32.82-.83,1.48-.89l-.36.69c.38-.15.82-.59,1.19-.67l-.59-.42c1,.58,2.84-.81,2.79.51l-.33,0,1.79.6a3.26,3.26,0,0,1,2.65-.89c.46,1.37,3.07.3,4.61.44l-.07.48c1.2-.67,4.27-.37,3.72-.61,1.17,0,2.74.33,2.16.75.95-.27,3-.26,3.45-1.06l1.91,1.15c1.15-1.7,3.81.61,3.93-1.19,1.06.28.82.68,1.55,1a7,7,0,0,1,4.55-.59l0,.19c1.54.15,3.34-.76,5.5-.86l.46,1.38c1.13-.19,1.4-1.26,2.48-1,.25.21,0,.28-.27.36a5.77,5.77,0,0,1,3.27.41c1.62-1,2.87-.63,4.31-1.7,1.26,1.21-1.89.54-.8,1.67,2.31.65,4.67,0,7.21-.63.22.26-.07.48-.17.77,0,0,5.16-3.31,4.2-4.61.64-.9,1.36-1.44-.81-2.19-.72.53-2.76,1.18-3.14.18l-.13,1c-2.91.44-.25-2-3.76-1.94l.74.31c-.66.06-1.19.67-1.93.36-.22-.26.25-.4.54-.61l-2.9,1.29c-.12-.56,0-.85.57-1.28-2.66,0,.54,1.74-2.71,1.37-.59-.42.21-.58.64-.9-1.51-.81-2.52-.07-4.07.45,0-.85,1-.75-.28-1.3.26.45.42,1.19-.57,1.27.48-.86-.75-.46-1.71-.67a.55.55,0,0,1-.26.85c-.47.13-.87-.21-1.53-.15l1.18.84c-1.66.81-2.59-.44-3.85-.8a.89.89,0,0,1,.57-.32c-1.33-.35-2.69-1-4.37-.3l.14-.11c-3.16.84,1,1.42-2.7,2.22-1.21-.18.58-2.79-2.21-1.79,1.32.73-1.8,1.76-3.39,2.09l1.65-1.65c-.64,0-1.76.44-2.11.28l.08.37c.12,1.4-2.06-.2-3.21.66,1.43-1.92,1.51-1.55,1.78-3.46a5.42,5.42,0,0,1-4.46,1.81l1.69-1.47c-2.73-.33-5.95,1.84-8.19,3.07.6-1.09-.32-1.48.66-2.41l-2.63.23.74-1.2c-1.07,1.23-2.25.38-2.08,2,.29-.21.25-.4.76-.35a1.67,1.67,0,0,1-1.88,1.39c-.91-.39.54-.61.28-1.06-.87.64-.92-.39-1.83.07l.81.68c-.64.91-1.5,0-2.39.49,1.08-.39.72-.92.32-1.47l.06.12c-.65.06-1.52.7-2,.17l.56-1.27-1,.93c-.37-.16-.63-.61,0-.85-3-.78.08,2.73-3.84,1.56.07-.48.5-.8,1.56-.52.17-.77-.09-1.22-1.15-1.5a.43.43,0,0,1,0-.14C569.22,292,566.56,291.93,565.22,292.79Z"/><path class="cls-2" d="M571.27,292a8.64,8.64,0,0,0,2.44-.16C573.5,291.61,571.21,291.22,571.27,292Z"/><path class="cls-2" d="M594.4,232.62l-.4.13Z"/><path class="cls-2" d="M603.07,232.24a.85.85,0,0,0-.46-.28C602.61,232.2,602.72,232.4,603.07,232.24Z"/><path class="cls-2" d="M538.39,251.88v0Z"/><path class="cls-2" d="M562.74,233.4c.76-.41,1-.75,1.08-1.08A1.39,1.39,0,0,0,562.74,233.4Z"/><path class="cls-2" d="M546.11,232.89a2.93,2.93,0,0,0-.31.19C546,233,546.11,233,546.11,232.89Z"/><path class="cls-2" d="M539,254.48a12.38,12.38,0,0,1-.63-2.6C538.61,252.6,538.2,254,539,254.48Z"/><polygon class="cls-2" points="613.63 230.84 612.76 231.49 613.67 231.03 613.63 230.84"/><path class="cls-2" d="M605.53,231.27c-.36-.16-1.78.25-1.37.59A4.1,4.1,0,0,1,605.53,231.27Z"/><polygon class="cls-2" points="574.51 230.67 574.16 231.36 574.88 230.83 574.51 230.67"/><path class="cls-2" d="M656.43,375.44c.08.25.16.65.25.84A1.25,1.25,0,0,0,656.43,375.44Z"/><path class="cls-2" d="M714.89,364.09l.34,0-.18-.06Z"/><path class="cls-2" d="M715.05,364l.6-.31C714.74,363.81,714.79,363.91,715.05,364Z"/><path class="cls-2" d="M658.48,381.53a8.87,8.87,0,0,0,.37,1.77Z"/><path class="cls-2" d="M659.76,374.92a1,1,0,0,0,.15-.43A1.66,1.66,0,0,0,659.76,374.92Z"/><path class="cls-2" d="M662.93,434l-.26.12A.46.46,0,0,0,662.93,434Z"/><path class="cls-2" d="M667.55,433.54c.39,0,.73,0,1.06,0l.06-.07A3.33,3.33,0,0,0,667.55,433.54Z"/><path class="cls-2" d="M665.71,433.15l.95,0A8,8,0,0,0,665.71,433.15Z"/><path class="cls-2" d="M696.37,429.52l.14-.31C696.38,429.34,696.35,429.44,696.37,429.52Z"/><path class="cls-2" d="M661.89,434.44a4.71,4.71,0,0,0,.77-.27C662.25,434.25,661.57,434.28,661.89,434.44Z"/><path class="cls-2" d="M656.29,375.29a.72.72,0,0,1,.14.15C656.38,375.28,656.33,375.18,656.29,375.29Z"/><path class="cls-2" d="M658.43,385.91v-.09C658.41,385.43,658.41,385.58,658.43,385.91Z"/><path class="cls-2" d="M740.15,363.94c.64,0,1.27-.06,1.91-.11C740.6,363.74,740.15,363.81,740.15,363.94Z"/><path class="cls-2" d="M656.29,419c.93-.67,0,2.43.93,2.25-.2-1.26-.35-2.2.14-2.78.51,1,0,2.6.72,3.1l-.3-1.89c.38-1.21,1,.46.93-.67-1.05-1.58.41-5.42.25-7.18l.1.63.5-2.69s0,0,.06,0a.81.81,0,0,0-.19-.12,11.92,11.92,0,0,0,.77-5.33c-.6-.85-.2-7.09-.7-8.13a9.19,9.19,0,0,1,0,2.92l-.72-.18c0-2.11.67-.13.24-2.16-1,.36,0,2.92-.11,4.4a8.06,8.06,0,0,1-.52-2.2c0,3-.37,5.81.6,7.86-.21.85-.62.44-.72-.18.57,2.16-.56,1.57,0,3.41-.91-.63-.47-4.44-1-6.28.72-2.74,0-6.33-.1-9.39.67-.13,1.24,2,1.63.82.45-3-.36-3-.74-4.71.24-2.15,1.12-.22,1.16-3.63l.43,2c.95-2-.37-1.88-.18-3.37-.25.49-.49.49-.46,2.19-.35.17-.49-1.13-.53-1.75l0,.4c-.46-.71-1-.94-.72-3.09.56,1.35.42-1.7.68-2.24l.12.56c-.19-1.57-.1-3.2-.21-4.19l.14.08c-.23-1.18-.92-1.63-.77-3.35.28.18,1,2.23.92.33.42.27.46,2.37.3,4.09.16-1.72.84-2.58.88-.47.54-.58-.23-2,0-3.1-.16.2-.35-.16-.51-.08.72-.06.06-4.11-.44-4.18l.4,2.07c-.58.16-1-2.42-1.28-1.6.38-.41.36-1.44.27-2.59A25.28,25.28,0,0,1,658,365a3,3,0,0,1,1,.22c-.37-.16-.79-.31-1.23-.47a32.77,32.77,0,0,0,3.59,0c1.06-.06,2-.17,3-.3,1.95-.25,3.9-.57,6.05-.68-1.48.29-1.6,1.29-4.24.94,4,.2,1.19,1,2.43,1.48,3.14.37,1.63-.93,2.61-1.24l-2.19.18c2.82-1.15,8.15.25,12.51-.47.32.3-.89.17-1.48.29,2,.6,1.9-.12,3.08-.35,2,.1,4.45.36,3.21,1.09,2.22.18-.24-.44.95-.67l.41.16,2.35-.82c1.93.24,4.27.64,5.13,1.33,4.5-.14,1.57-1.65,4.85-1.92,1.84.38-.35.56-.53.84l2.91-.07c-1,.81-3.38.41-3.2,1.35,2.43-1,3.29-.27,6.55-.9l-.2-.08c1.45-.65,4.8-.2,6.7-.32-.77.39-2.88.44-4.27.58,2.13.32,7.52,0,9.36-.84,1.22.13,3.85.47,2.07.82,4.33.14,1.81-1.21,5.54-1l-.15.64c4.09.92,8.06-.83,11.94,0l.24-.78c.83.33,2.55.48,2.88.78l-2,.26c1.66.66,2-.62,4-.16,0-.24-1.7-.77-1.7-1-8.3.45-16.53-.67-24.92.12.32.1.69.2.48.35-.91-.19-2.6,0-2.34-.4l.3-.06c-2.19.18-4.18-.78-5.48-.77-.86.53-4.53-.22-3.55.69l-1.45-.57c-.48.34-.24.78-1.13,1-1.51-.07-1.54-.43-.36-.66a178.22,178.22,0,0,0-18.47,0l1.58-.43c-1.42-.21-5.16.75-3.94-.34-2.88.43-7.86-.31-8.06.83-1.9-1.1-7-.48-11-.32.14.2.08.32-.1.41a1.42,1.42,0,0,1-.46.09l-.72,0c-1.06,0-2.55,0-3.61,0a7.24,7.24,0,0,0,.15,1.34c-.29.1-.47-.66-.61-1.8,1.35-.23,3.83-.35,3.86-.66a31,31,0,0,1-4.16.37c0,1.73,0,3.47,0,5.27,0,1.19-.11,2.17-.13,3.18,0,2,.09,3.6.88,4.32-.08.49-.15.5-.23.33,0,.79-.33,1.85-.42,2.63.33.47.49-1.24.61.65-.07,1.51-.61.65-.85,1.27.43,2.88.62,7.44,1.39,7.94-.21.85-.65,1.75-.79.8.61,4.58-.11,4.4.27,9,0-1.62-.82-.81-.5-3.14-1.09,1.83.2,7.09-.38,10.77l.7,1.48c.12,2.24-.55,2.37-.8.8-.43,3.81,0,5.83,0,8.75-.09.17-.22,0-.19-.45l0,4.21c.17.42.53,1.94,1,1.63C656.27,422.14,656,421.26,656.29,419Z"/><path class="cls-2" d="M656.67,422.66l.09.11v-.17S656.69,422.64,656.67,422.66Z"/><path class="cls-2" d="M659.71,384.43a4.12,4.12,0,0,0-.3,1A3.24,3.24,0,0,0,659.71,384.43Z"/><path class="cls-2" d="M689.23,431.74c-.53-1.07-2.56.17-4.4-.11,1.75-.16,1.31-.78,1.08-1.09-2.16,1.37-2.65-.27-6.64,0-.09-.45,1.84-.52,2.07-1-2.2.35-5.56.53-6.06,1.3-3.73,0-6.38-.26-8.62-.14,2.7-.31.5-.77,2.47-1.43-1.16.38-2.92.79-4.86,1.22s-3.75.88-6.44,1.34l-.5-2.16c.84-.94.93-.94,1.7-.77a7.81,7.81,0,0,0,.12-1.94,1.18,1.18,0,0,0-.27-.7c-.23-.3-.51-.57-.38-2.7l-.15,2c-.25-2-1.05-2.13-1.61-2.76l.12,5c-.58,0-.5-3.15-.64-4.08-.7-1.49-.5,2.69-1,2.14a4.25,4.25,0,0,1,.35,1.78l0,.64,0,1c0,.68,0,1.33.1,1.88l-.31.59c-.07,1-.09,1.84-.08,2.61,1.55,0,3-.15,4.28-.28l2-.17a9.61,9.61,0,0,1,1.19-.07c.19.09.22.15.18.21a7.39,7.39,0,0,1,2.78-.9l-1,0c1.8-.74,6.24-1.21,3.33-2l5.07.24c-.57.81-1.59,2.06-4.51,2.15l-.34.34c2.19.46,6.19-.63,4.76-1.33,2.21-2,7.77-.07,11.5-.89.26.53-1.8.74-2.7,1.12-1.12.06-1.92.07-2-.37-4.8.3,1,1.69-4.41,1.5-2.65-.27,3.24-.85-.67-.93l-2.79,1.48c2.42,0,4.61-.28,6.56-.46a103.35,103.35,0,0,1,18.46-.15l47.68-.49c5-.21,6.78-.15,8.76-1.61-1-.3-4.08-.16-3-.67-.54.55-2.43.84-5,.79-.27-.53,2.38-.26,1.71-.38l-.49,0a2.09,2.09,0,0,1,1.53-.47c-2.91-.81-8.39-.64-10.46.38-2.37-.55,1.62-.83,2.83-1.25-8.34-.41-14-.33-22.44-.38-.14.94-.86.6-2,1.24l-.72-.35c.36.17-.81.82.84,1-4.84-.73-5.74,1.25-9.07,1.66l.23-.5a59.35,59.35,0,0,0-5.93.36c-4.39-.92,3.86-.15,2.65-1.34l-1.26.2a8.52,8.52,0,0,1,2.92-1.61c-4.22.78-6.05-.31-10.63.29.54-.54,4.67-1,5.79-1-1.55-.05-4.32.34-4.45-.16l-.31.68c-2.73.09.36-.63-.53-1.07C689.06,429.24,694.67,431.35,689.23,431.74Z"/><path class="cls-2" d="M658.33,396.86a10.91,10.91,0,0,0,0,2.06C658.38,398.23,658.38,397.54,658.33,396.86Z"/><path class="cls-2" d="M659.61,409.72a1,1,0,0,1,.25.24C659.8,409.74,659.72,409.65,659.61,409.72Z"/><path class="cls-2" d="M660.56,411c-.31.31-.31-.5-.7-1C660.08,410.8,660.08,412.93,660.56,411Z"/><path class="cls-2" d="M754,429.67c.2.39.4,2.08.57,1.66l-.24-2.49Z"/><path class="cls-2" d="M754.71,424.69l.26-2.43-.92-1.62C754.07,423.24,754.7,422.08,754.71,424.69Z"/><path class="cls-2" d="M755.23,417.86l.22.55C755.35,417.9,755.29,417.79,755.23,417.86Z"/><path class="cls-2" d="M754.84,417.76l-.67-1,.49,3.17.13-1.21c.24,0,.33-.8.44-.91l-.48-1.19A3.05,3.05,0,0,1,754.84,417.76Z"/><path class="cls-2" d="M754.8,415a1.86,1.86,0,0,1-.2.22C754.68,415.29,754.75,415.2,754.8,415Z"/><path class="cls-2" d="M756.06,408.93c-.25.62-.62-.65-.89-.83-.26,2.43.74,2.55.42,4.69-.53-3.29-.4,1.19-.78,2.27.63-.64,1.05-1.85,1.24-4.31l-.42-.27C755.62,409.16,755.87,409.85,756.06,408.93Z"/><path class="cls-2" d="M755,396.06l.62,2c-.3.33-.31,3.44-1,3.29a13,13,0,0,0,.54,2.16,2.83,2.83,0,0,0-.12,2.52c.44-4.66.59-3.26.79-7.29.14.09.12.59.09,1.09l.34-2.63C755.57,396.92,755.52,393.52,755,396.06Z"/><path class="cls-2" d="M755.51,392.21c0,2.11.63,3.26,1,2.23L756,390C756.06,391.26,756.12,392.87,755.51,392.21Z"/><path class="cls-2" d="M755.52,389.1c.33-.83,1-2.2.39-3.65C756,387.86,755.06,386.73,755.52,389.1Z"/><path class="cls-2" d="M756.11,373.89,755.7,378c-.83.77-.26-2-.63-3.26-.17,3.53.1,2.4.62,5.06a19.42,19.42,0,0,0,.61,3.76C755.62,378.25,757.64,378,756.11,373.89Z"/><polygon class="cls-2" points="755.28 382.19 755.62 382.67 755.35 380.68 755.28 382.19"/><path class="cls-2" d="M755.38,364.31A7.35,7.35,0,0,0,753,364h-.53l-.46,0-.92.13a12.08,12.08,0,0,1-3.94.27c.3-.06.09-.14.68-.25l-2.4.1-.11-.22c.14.58-2.35.82-3.41,1.27,2.46.62,1.24-.73,3.41-.05-.52.27-.9.67-1.4.89a7,7,0,0,0,2.5-1c1.6-.07,1.12.27,1.24.49,1.78-.34,1.81-1.2,4.53-1,1.77.52-1.06.81,2,.6-.36-.29-.24-.38.23-.4s1.22.06,2,.1a6.32,6.32,0,0,0,.15,2.5,13.36,13.36,0,0,1-.2,1.65,7.63,7.63,0,0,1-.29,1.11c-.21.58-.44.83-.6.59.72-.06,1.34,1.9,1.55,3.59l-.61-3.77.85-1.27a17.22,17.22,0,0,1-.27-2.47c0-.83,0-1.62,0-2.49l-1.94-.07Z"/><path class="cls-2" d="M743.89,366.17c-.26.05-.48.11-.82.15A1.76,1.76,0,0,0,743.89,366.17Z"/><polygon class="cls-2" points="755.15 371.46 754.98 370.57 754.74 371.19 755.15 371.46"/><path class="cls-2" d="M742,366.78c.5,0,.68-.26.18-.28l-.77.4Z"/><polygon class="cls-2" points="739.75 366.24 738.5 365.74 737.74 366.14 739.75 366.24"/><path class="cls-2" d="M688.62,365.75c1.63.3,1.48-.29,1.75-.71C687.86,364.92,690.31,365.55,688.62,365.75Z"/><path class="cls-2" d="M659.48,367.69a2.41,2.41,0,0,0,.12-1.09,13.71,13.71,0,0,1,2.18-.29,7.69,7.69,0,0,0-2.55-.08A10.1,10.1,0,0,0,659.48,367.69Z"/><path class="cls-2" d="M661.45,380.85c-.19-.45-.28-1.08-.36-.1l-1-1.76C659.71,381.63,661,380.93,661.45,380.85Z"/><path class="cls-2" d="M661.59,396.37l-.4-2.51,0,1.3a8.62,8.62,0,0,1-.95-2C660.44,395,660.85,396.75,661.59,396.37Z"/><path class="cls-2" d="M660,390.85l.06.93A.71.71,0,0,0,660,390.85Z"/><path class="cls-2" d="M660.11,392.78l.12.33c-.05-.45-.1-.91-.13-1.33A1.2,1.2,0,0,0,660.11,392.78Z"/><path class="cls-2" d="M661.08,398.26l.11,4.35.2-1.65C660.76,400.59,661.77,398.93,661.08,398.26Z"/><path class="cls-2" d="M660.53,421.05l-.62.45a24.81,24.81,0,0,0,.43,4.37,12.52,12.52,0,0,1,.15,2v.22l0,.07a.85.85,0,0,1-.07.15,2.3,2.3,0,0,1-.27.37c.19-.33.37-.13.52-.13s.27-.1.36-.41l-.1,0a1.14,1.14,0,0,1-.09-.3c-.05-.24-.1-.52-.14-.82-.08-.6-.14-1.29-.17-2A35,35,0,0,1,660.53,421.05Z"/><path class="cls-2" d="M659.61,430c-.1-.05-.19.08-.27.31a2.78,2.78,0,0,0,.19.21,2.75,2.75,0,0,0,1.06-.11c.28-.09.39-.23.27-.36-.41.4-.6.28-.66.12s-.06-.38-.56-.16Z"/><path class="cls-2" d="M671.07,430c-.8,0-1.93.07-.76.24,2.42,0,1.79-.74,3-1.16C671.3,428.7,669.54,429.66,671.07,430Z"/><path class="cls-2" d="M690.12,434.59c-.27-.53-2.2-.46-2.65-.27A8.29,8.29,0,0,1,690.12,434.59Z"/><polygon class="cls-2" points="690.54 430.15 689.87 430.03 689.06 430.85 690.54 430.15"/><polygon class="cls-2" points="705.04 429.71 706.88 429.19 704.14 429.28 705.04 429.71"/><path class="cls-2" d="M707.82,429.85l2.42,0-.85-.21C708.22,429.44,708.63,429.84,707.82,429.85Z"/><path class="cls-2" d="M715.09,429.74a1,1,0,0,1-.67-.12l-2.2.35Z"/><path class="cls-2" d="M753.67,433.1c-.54.54,1.66.2,2.33.32C756.13,433.29,754.7,432.59,753.67,433.1Z"/><path class="cls-2" d="M618.12,451.82l0-.82A2.51,2.51,0,0,0,618.12,451.82Z"/><path class="cls-2" d="M617.65,452.56v.07S617.67,452.6,617.65,452.56Z"/><path class="cls-2" d="M554.25,449.7a2.35,2.35,0,0,0,.71-.16A1.33,1.33,0,0,0,554.25,449.7Z"/><path class="cls-2" d="M514,442.68a.36.36,0,0,0,.13,0C514.07,442.64,514,442.61,514,442.68Z"/><path class="cls-2" d="M617.91,442.2l0,.37C618,442.65,618,442.29,617.91,442.2Z"/><path class="cls-2" d="M566.8,450.22a.34.34,0,0,0,.1-.13A.35.35,0,0,0,566.8,450.22Z"/><path class="cls-2" d="M620.11,412.44c0-.11,0-.23,0-.35A.93.93,0,0,0,620.11,412.44Z"/><path class="cls-2" d="M523.58,432.89a.72.72,0,0,0-.15-.32C523.45,432.77,523.5,432.91,523.58,432.89Z"/><path class="cls-2" d="M522.28,432.74c.38,2.47.75-.53,1.15-.16-.11-.66,0-2.07-.33-1.4.8-1.3-.44-3.92.19-5.32-.08-.06-.34.75-.54-.22-.08-1.45.29-1.34.46-1.94a7.2,7.2,0,0,1-.28-2.42c-.2-1-.78,1-1.12-.32-.54-.91-.08-2.15-.23-3.23.38-1.29.26,1.29.44,1.83l-.25-3.66c.28-1.08.52.48.46,1.56.34-1.46,0-3.34-.41-3.77a19.88,19.88,0,0,1,.18-2.26c.25.86,1,.8,1.14,2.15,0,2.21-.59-.8-.7,1.08l.46.16c-.26.81.08,1.45.11,2.31-.11.48-.16-.11-.23-.43,0,1.56-.21,2.8.31,4,.42-2.1-.15-5.27.37-6.19l-.64-4.19c-.21,0-.55,1.46-.86.27.54-.49.78-1.72.88-3.34-.59.6-.52-2.58-1-1.77a1.13,1.13,0,0,1-.24,1.24c0-1.56-.54-.21-.57-1.07.13-2.85.37.11.58-2.69a16.18,16.18,0,0,1,1.09,3.65c.26-.11,0-1.55.26-2.21-.31.92-.55-.64-.68.11-.24-2.26-.85-4.9-1-7.64.87.43.65,4.62,1.68,3.76-.13-1.34-.55-1.34-.49-2.42a4.38,4.38,0,0,0,.22-2.16l-.1-1.42a1.42,1.42,0,0,1-.07-.3,1.23,1.23,0,0,0-.26.13c-.21-.2,0-.52,0-.66l.11.11-.16-.29s0,0,.08,0a.82.82,0,0,1-.13-.47,2.41,2.41,0,0,0,.82,0c-.18-.42-.48,0-.69-.06s-.25-.12-.44-.21-.21,0-.36-.3v-.06c.7,0,.94-.51,2.24-.49a1,1,0,0,1-.26-.06l-.18-.06a.65.65,0,0,1,.31-.15,5.79,5.79,0,0,1,.7,0c.49,0,1,0,1.59,0,2,.29-1.5.59-.26.83a3.74,3.74,0,0,1-1.43.18,2.87,2.87,0,0,0-.62.05.3.3,0,0,0-.1.25l.09.15s.19.1.29.15l.64.29c1.08-.36,2.26.18,3,.1l-.81-.26c.16-.46.91-.11,1.29,0l-.55-.67c-1.18-.11-2,.47-2.85.08,2.09-.21,1.61-.75,4.14-.77.11.26-.49.1-.75.29.86.18,1.77-.36,3.17-.15-.8.16-2.1.43-1.07.78l.75-.5c.65.08.38.28.65.29.92.1-.21-.52,1.24-.39.22.1.7.21.49.33,1.67,0,.8-.16,2.36-.41-1.39,0-1.45-.76,0-.85,2,.08,3.44-.34,4.84.29l.91-.33c-.59.47,1.29.16,1.94.24.21.52-3.07,0-3.07.83,1.34.08.76.34.32.57,1.46-.08.54-.6,1.18-.94,0,.21,2.48.06,1.62.52,1.24,0,1.45-.51,2.36-.41a.9.9,0,0,0-.21.74c.11-.18,1.28,0,1.5.06-.21-.1.43-.44-.65-.29.27-.41,2.53,0,2.47-.36.11.47,2.32.1,3.44.29-.11-1.11-2.09.42-2.47-.49,1.5-.38,5.06,0,7.48-.53,2.09.21,0,.42.43.83-1.93.18-2.42-.15-4.09.05a23.08,23.08,0,0,0,6.18-.26c2,0,2.21,1.11,4.63.83-.32-.36-.27-.44-1-.57a11.46,11.46,0,0,1,2.1,0c.43-.23-1.08-.27-.11-.47.38.07,1.18.11,1,.36l-.16,0c2.31-.33,1.67.86,3.66.18-.16-.18-.59,0-1.08-.07-.37-.28.86-.67,1.78-.78-.16.24.81,0,1.45.13.43.41-1.61.12-1.94.39l1.78.06-.37-.06,1.93-.39c-1.35.13-.65-.5-.05-.55,1.34.08,2.69.16,2.53.62.16-.46,1.83-.44,3-.54-1.29-.16-.16-.39.21-.54l1.94.45c-2,.13.43.41,0,.72-.59.47-1.83.23-2.91.16,2.1.85,3-.46,4.79-.05,0,.21-.16.46-1,.41.32.14,1.67-.41,2.91-.17-.32-.15-1-.57.21-.75l1.62.52c1.88.11.64-.55,2.2-.8l-1-.36c.16-.46,2.1,0,2.15-.51-1,0-1.51.37-2.52.23-.38-.49,1.29-.26,1.87-.52a13,13,0,0,1,3.23.62c.06.76-2.58.95-2.25,1.94a32.24,32.24,0,0,1,6.34-.08c1.83-.23,1.66-.83,1.39-1.27a4.13,4.13,0,0,1,1.61.1l-.86.25a43.33,43.33,0,0,1,5.92-.49c1.34-.13.8-.59.48-.95l1.45-.08-.22-.1c.32-.49,1.61-.33,2.58-.31,0,.21-.59.26-.53.39a6.62,6.62,0,0,0,1.48.1,3.79,3.79,0,0,0,1.09-.19.85.85,0,0,1-.39.4,1.19,1.19,0,0,1-.37.14l-.22,0-.35,0c-.11,0-.05-.13-.16-.18l-1.72.28a5.39,5.39,0,0,1,2.29.1.6.6,0,0,1,.41.68c.56-.13.4-.26.2-.38s-.4-.24.41-.33a3.76,3.76,0,0,0,2.19.42,2.84,2.84,0,0,1-.72,2.44l.25.49.13.31a6.11,6.11,0,0,1,.13.6,18,18,0,0,1,.31,3c.42,0,.16,1.51.69,1.29a6.85,6.85,0,0,0-.1-3,3.59,3.59,0,0,1,.07-2.47c-.2-.65-.55-.31-.78-.5a1.59,1.59,0,0,1,.28-1.22c.13.54.39.53.61.58s.42.19.43,1.23c.36-.31.23-2.07.32-2.92.2.1.42-.28.59-1a11.79,11.79,0,0,1,.93,2.51c-.2-.24-.31.34-.43.13l.6,2.76c-.26.81-.57,1-.8.59-.13,1.46.44,3.92-.19,3.93.1,1.88.38-.6.55-.76l0,.16-.05-2c.73-.22-.18,2.26.52,2.58,1.33.31-.42,2.8-.21,4.2l-1-1.61.21,1.4c-.37-.81-1-.8-1.4-2,0,1.93-.32,4.68-.14,5.92-.33.48-.64.7-1,.48.6,1.94-.31,3-.32,4.68.36,1.77.49-1.78,1-.49a3.92,3.92,0,0,0,0,2,16.32,16.32,0,0,1,.31-3.71c0,1,.46.86.65,1.13l.1-1.62c.59.11,0,2,.34,2.74-.52-.48-.54-.21-1.06-.69a13.6,13.6,0,0,1-.11,4.68c-.21.7-.26-.59-.41-1-.36.32.21,1.4-.23,1.67-.33-.21,0-.86-.13-1.34l-.16,4.09c-.21,0-.28-1-.2-1.66a5,5,0,0,0,.59,3.6c-.21,1.4-.52,3-.83,2.53.13.64.33.21.54.21-.11,1.89.64,2.09.65,3.22l.39-.86c-.41,1.83.65.42.34,2a1.2,1.2,0,0,0-1.32.11c.41.27,0,1.29,0,2,.41-.43.38,1.5.78.37.33,1.62-.23,2.37.3,3.55.13-.75.42,1.4.72.75,0,1.56-.46,2.64-.9,2.21,0-.54.21-1.41-.13-1.34l.08,2.85c-.21.71-.31,1.61-.78,1.73.54.91-.38,2.69.26,3.39a2.77,2.77,0,0,1,.21-2.09l.09.44a1.38,1.38,0,0,1,0-.23l.82,1.23c.32-1.18-.54-.21-.52-1.88.76-1.45,1.15,3.28,1.63,1.77.24-1.24-.49-1-.77-2l0,.27-.33-2.31c.26-.11.47.59.47.59,0-2.8.41-3.23.5-6.24-.1.22-.9.81-1-.53-.2-1,.28-1.08.33-1.88.1.48.54.91.24,1.56l.55-.05c.67,2.26,1.21,1.07,1.4,4.14.41.14.62,2.36.5,4l.37-.81c.7,1.72-.57.32,0,2.53-.73.92-1.59,2.59-2.2,1.36-.18,1.56.21,2.09.21,3.5-.6.86-.65-.43-1.25-.27.07,1,.33,2.31.67,1.55l-.24,1.94c-.13.05-.13-.64-.11-.92a5.92,5.92,0,0,0,.39,2.63,1.87,1.87,0,0,1,0-.86,10.73,10.73,0,0,0,.62,2.36c-.31-1.18.38-1.29,0-2.53a.87.87,0,0,1,.41,1c.36-1,.29-2,.7-2.47a1.85,1.85,0,0,0,.2,1.6,8.83,8.83,0,0,0-.17-2.83c.68-.11-.12-3,.58-2-.24-.16-.26-1.29-.1-1.88.3.05.46,1.56.8,2.2.33,3-.5-.05-.72.65l0,2.3c.1-.23.48.92.44-.58a4.78,4.78,0,0,1,.39,3.33c.2.27.16-.59.18-.86.2.27.91,1.72,1-.17,0,.54-.33-.91-.55.05-.08-.75.21-2.8.59-2-.11-.92-.39-2.64-.48-3.39.31-.22.13.64.28,1l-.18-2.64-.34.76c.24-1.93-.57-3.17-.82-4.73.54.21.59,1.51.87,2.53.65-1-.34-.64-.24-2.26.1-.22.23-.27.39-.17l-.47-1.29c.06-.38.18-.16.21,0-.59-2.21-.77.05-1-2.9-.28,1.78.38,1.51.33,3-.39.87-.7-1.71-.93-2.15.13-1.45.94-1.62.5-3.44.26,1.29.51.05.52,1.88.28,1,.24-.54.55-.75-.1-.48-.57.32-.49-1l.08.05-.59-2.2c.29-2-.65-4.62,0-6l-.57.32c0-1.29-.07-3.12-.18-4,.33.21.36,1.07.47,2a18.44,18.44,0,0,0-.7-5.91,18.06,18.06,0,0,0-.65,2.37c-.8-1.5.49-1.78.1-3.72.55-.05.47.59,1,.11-.38-.81-.3-2.15-.62-3.07.54-.49,1,.37,1,2.36-.47,1.51.36,3.17-.1,4.41l.34-.76c.16,1.51.07,2.42.33,3.71l-.08-.05.55.64v-.7a8,8,0,0,1,.83,2.36c-.08-2.15-1-2.31-1.45-3.33,0-1.94,1-2.7.54-4,.26-.11.54-1.19.78-.32.15,1.07-.19,1.83.18,1.93a22.59,22.59,0,0,0,.14-2.42,6.76,6.76,0,0,1-1.35-2.84,13.18,13.18,0,0,1-.1-4c0,1.29.52,2.58.88,2.26-.51-.75.41-2.53-.29-2.15,0-1.51,0-4,.63-4.2.22,1.42-.14,2.8,0,4,0-.33.17-.66.31-.46l-.06,1.78a6.53,6.53,0,0,0,.42-2.8c0,.11-.15.32-.18.16v-1.4l.55-.05c-.26-1.29.44-3.77,0-6.13l.11.21c.11-1.88-1-2-1.11-4.09.26.59.49.32.75.21-.28-1,.18-1.56.32-2.59-.32,1.19-.59-.8-.76.06-.28,0-.42-.48-.48-1.13,0-.33,0-.69,0-1l0-1.5c.18-.31.29-.1.37.36,0,.23.07.53.1.85l.08.56c.1.71.2,1.3.57.49.06-1.07-.34-1.34-.47-.59l.17-4.06a33.26,33.26,0,0,1,.44-4.21,27.16,27.16,0,0,1-.38-2.89,15.15,15.15,0,0,0-3.54.57c1.38,0,2-.42,3.31-.33,0,.21,0,.45-.07.74l-.16-.51-1.83.36c-2.75,0-4.77-.42-6.8-.49l2.19-.23-.13.08c.9-.23,3.63-.1,3.57-.49a12.41,12.41,0,0,1-3,.23,21.17,21.17,0,0,0-3.32.13l.11-.08c-.56.05-1.21.08-1.38.08a7.56,7.56,0,0,1-.8,0c-.52,0-1-.12-1.46-.18A3.33,3.33,0,0,0,605,384c.43,0,1.29.37,1,.57-.54-.24-2-.16-1.94-.45l.49-.1a13.07,13.07,0,0,0-2.64,0c-.37.36,0,.64-1,.83-2.37-.23,1-.83-.65-1.14l-2.21.38-.49-.33c-3.28-.32-5.81.75-9.3.75-.06-.55,2.47-.78,3.33-.82-1.08-.49-2.63.18-4.09-.16-1.35-.08-2.36.41-2.15.72-1.66.2-1.18-.33-1.4-.42-.54.6-2.64.39-4,.52L580,384l-2.09.42c.54,0,.06.34.06.55l-.54,0c2,.93,4.62-.65,6.73.41-.64.13.22.31-.43.44-.54,0-.64-.08-.7-.21-.32.28-1.18.52-.05.51-.05.72-2.31.54-3.87.78-1.24-.46,1.29-.69,1.93-1a5,5,0,0,1-1.94.18l.21-.54c-2.15.29-.59.47-1.07,1-.58.69-1.93,0-2.53,0l.64-.13c-1.67-.23-2,.34-3.54.3l-.71-.43c1.89.54,2.31-.75,3.39-.47-2.75-.5.59-1.11,1.45-1.56a6.44,6.44,0,0,1-2.9-.26c-1.72.7-3.61-.26-5.27.57-.91-.1.8-.38-.16-.39a28.12,28.12,0,0,0-5.54.34c-1,0-.81-.26-1.08-.49-4.68-.32-6.51,1-11.62.66l.75-.29a4.25,4.25,0,0,0-2.52.23c-1.35-.93-4.57.57-6.3-.42-2.26-.18-2.37.62-4.14.77,0-.21.54-.61-.38-.7-2.9.16-5.66.26-8.49.34l-4.33.11-7,.11a2.63,2.63,0,0,1,.86-.18c-1.76,0-3.49,0-5.13.08.1,2.87.27,5.63.38,8.15l.12,2.88a19.07,19.07,0,0,1-.05,2c.13.65.31,2.58.69,2,0-.8.52-.92.81-.86.41,3.06-.68,1.51-.55,3.55-.72.65-.47-1.29-1.11-1.29l.46,3c-.23,1.67.18,3.33-.16,4.79.08-.65-.54-.21-.26-1.29,0,.16.08.05.11.22.06-2.48-.34-1.35-.51-3.55a41.52,41.52,0,0,1,.22,6.3c.49-.38.21,1.4.52,1.88l0,.11c.21,0,.36,1.07.42,1.4l-.62.43c.08.76.31-.21.39.54.15,1.07.22,4.9-.44,5.16a22.35,22.35,0,0,1,.33,3c-.16-.11-.23-.43-.31-.48-.13,2.85.08,6.34-.29,9a28.11,28.11,0,0,0,.69,5.48c0-.59.1-2.31.46-1.24a10.68,10.68,0,0,1,.28,2.42c-.32-.21-.31,2.32-.53.49-.71.46.14,3.94-.57,3.91.22.43.09,3,.47,4-.31.22-.21-1.4-.43-1.4l.1,1.18H514a5.05,5.05,0,0,0,.29,2.36,6.73,6.73,0,0,1,.52,2.29l-.08-.07.11,1.4q-.29-.73-.57-1.58c.08,2.42.59,3.39.7,5.74l-.18.4.14,1,.45-.05c-.28,0-.45.11-.33.16a17.13,17.13,0,0,1,3.32-.42,13.63,13.63,0,0,0,2.94-.36,8.49,8.49,0,0,1,1.3.35,3,3,0,0,0,.76.1,1.22,1.22,0,0,0,.65-.16l-.16.67H523l-.65,0a2.84,2.84,0,0,1-.64-.14,6.27,6.27,0,0,0-2.43-.05,10.72,10.72,0,0,0,2.62.48l.92.08.89.06,1.28.08c1.77.07,3.72,0,5.28,0,2.52-.44,6.67.27,7.74-.72l-.27.41,4.25.34c3.61-.17,7.32.14,10.06-.41l.75.34c2.84-1.14,9.68-.47,11.56-1.84,1.61.31-.48.52-.64.77,1.19.11,3.17-.78,4.3-.17,0,.21-1.67.2-.91.33.86.39,1.23-.39,2.21,0-.43-.41,1.56-.88,3-1a.82.82,0,0,1-.38-.07c-.21-.31.87-.25,1.46-.29a.35.35,0,0,1-.21.11,207.24,207.24,0,0,1,23.88-.39l-1.45.29a15.15,15.15,0,0,1,3.76,0l-.16,0c2.1.64,2.37-.62,4,.11l-.32.07c2.53,0,4,.66,6.5.31,1.94.24,1.73.57,3.07.86a2.54,2.54,0,0,0,1.72-.49l-.54,0c-.59-.37,1.18-.31,2-.47-.59-.59-.27-1.5-2.54-2.1-1.67.2-1.62-.94-3.5-.85-1.07.78-2.69-.58-4.41.12.91-.54-2-.29-.54-.88-.7-.42-3.65.46-5,0,.22-.12.17-.24.49-.31-1.88.31-1.29-.37-2.69-.37l.05.55c-.54.18-.7-.21-1.18-.11.38.07,1.18.33.76.55a8.85,8.85,0,0,1-1.88.31c0-.21.48-.31.81-.38,0,0-1.51,0-1.62-.31a7.35,7.35,0,0,0,1.71-.49c-2-.16-.16-.18-1.13-.62.27.65-1.72.28-2.8.42-.11-.26.75-.08,1-.28-2.05-1.14-3.07.2-5.7,0,.05-.08.38-.15.54-.18-1.24.18-2.1-.42-2.91,0-1.19-.11-.22-.73-2-.72.54.67-2.15-.13-2.2.59l-1.4-.42c-1.24.39.33,1.2-2.09,1.27-2.21-.26.21-1.18-1.08-1.55l-.54.39-1.08-.28.16,0c-.65.13-1.83,0-1.83-.19s.81-.16.91-.33c-1.07.36-4.25-1-5.37.1-.63-.19-1.94-.19-1.78-.53-.58.47-2.86-.15-3.72.15.11-.16-.7-.42-1.34-.29.86.18.32.36-.26.62-.76-.34-2.91,0-3.23-.62-1.18.31-.75.72-1,1.13-.76-.34-3.18-.28-2.75-.93.65.08,2.1.21,1.83-.23-1.24-.24-.54.18-1.56.25.08-.12-.69-.4-.5-.59a10,10,0,0,1-2.3,0c1.34.29-.86.46-.05.72l1.29-.47c1.56,0,.33.36.92.52-2.74.13-2.2.8-4.78,1.11-.48-.11-1.34-.29-1.61-.31.86,0,.69-.64.21-.75-1.44.51-2.58-.32-3.76-.44,1,.15.49.54.11.68-2.47.36-1-.23-2-.5-3.81.07-6.24-.72-9.3-.31l1.45.55.48-.52c1.13.41-.21,1.17-.85,1.51-.16-.18-2-.08-1.3-.37l-1.83.23c.27.23,1.46.13.6.38-.6-.16-2.48-.28-1.3-.59-1,0-2.2.16-2,.47-1.56,0,.16-.67.86-.88-1.23,0-1.08-.49-.7-.63l-1.72.07c.37-.14.37-.36.75-.5-1.13-.2-1.94.39-2.9,0L524,450l-.28,0c-.1,0-.19,0-.17,0l0-.06a.43.43,0,0,1,0-.1.45.45,0,0,1,0-.13.26.26,0,0,0,0-.12,4.05,4.05,0,0,0-.27.33,1.18,1.18,0,0,1-.23.16c-.06,0,.1-.2.25-.34s.29-.22.19-.21l-.15,0-.08,0h0s0-.11,0-.15c-.13-.45-.29-.66-.55-.56a1.89,1.89,0,0,1,.31-1.62,6.43,6.43,0,0,1-.51-3.54c.16.81.29,1.45.38,2.2.52-.22.11-2.58.36-3.82-.25-.86-.88-3.66-1.34-5.22-.42.7-1,.44-1.47-1,.33.21.33-1.89.56-2.85.31.48.76-2.16.89-.12-.16.59-.6.86-.44,1.67a12,12,0,0,0,1-3.13,2.53,2.53,0,0,1,.37,1.5C522.51,432.46,522.41,432.68,522.28,432.74Z"/><path class="cls-2" d="M617.91,442.2l0-.22-.12.27C617.85,442.16,617.88,442.16,617.91,442.2Z"/><path class="cls-2" d="M522.47,393.83a.87.87,0,0,0-.16-.18A.87.87,0,0,0,522.47,393.83Z"/><path class="cls-2" d="M545.54,393.12a.43.43,0,0,1,0-.14S545.47,393.05,545.54,393.12Z"/><path class="cls-2" d="M614.22,444.09l-.11-.52A2.38,2.38,0,0,0,614.22,444.09Z"/><path class="cls-5" d="M358.76,405.77c.08.25.16.65.25.84A1.25,1.25,0,0,0,358.76,405.77Z"/><path class="cls-5" d="M417.22,394.42l.34,0-.18-.06Z"/><path class="cls-5" d="M417.39,394.34l.6-.31C417.08,394.15,417.13,394.24,417.39,394.34Z"/><path class="cls-5" d="M360.81,411.86a8.87,8.87,0,0,0,.37,1.77Z"/><path class="cls-5" d="M362.1,405.25a1,1,0,0,0,.15-.43A1.66,1.66,0,0,0,362.1,405.25Z"/><path class="cls-5" d="M365.26,464.38l-.26.12A.46.46,0,0,0,365.26,464.38Z"/><path class="cls-5" d="M369.88,463.88c.39,0,.73,0,1.06,0l.06-.07A3.33,3.33,0,0,0,369.88,463.88Z"/><path class="cls-5" d="M368,463.48l.95,0A8,8,0,0,0,368,463.48Z"/><path class="cls-5" d="M398.71,459.86l.14-.31C398.72,459.68,398.68,459.78,398.71,459.86Z"/><path class="cls-5" d="M364.23,464.77a4.71,4.71,0,0,0,.77-.27C364.58,464.59,363.91,464.62,364.23,464.77Z"/><path class="cls-5" d="M358.62,405.62a.72.72,0,0,1,.14.15C358.71,405.61,358.66,405.52,358.62,405.62Z"/><path class="cls-5" d="M360.76,416.24v-.09C360.75,415.76,360.74,415.91,360.76,416.24Z"/><path class="cls-5" d="M442.49,394.28c.64,0,1.27-.06,1.91-.11C442.93,394.07,442.49,394.14,442.49,394.28Z"/><path class="cls-5" d="M358.62,449.3c.93-.67,0,2.43.93,2.25-.2-1.26-.35-2.2.14-2.78.51,1,0,2.6.72,3.1l-.3-1.89c.38-1.21,1,.46.93-.67-1.05-1.58.41-5.42.25-7.18l.1.63.5-2.69s0,0,.06,0a.81.81,0,0,0-.19-.12,11.91,11.91,0,0,0,.77-5.33c-.6-.85-.2-7.09-.7-8.13a9.19,9.19,0,0,1,0,2.92l-.72-.18c0-2.11.67-.13.24-2.16-1,.36,0,2.92-.11,4.4a8.06,8.06,0,0,1-.52-2.2c0,3-.37,5.81.6,7.86-.21.85-.62.44-.72-.18.57,2.16-.56,1.57,0,3.41-.91-.63-.47-4.44-1-6.28.72-2.74,0-6.33-.1-9.39.67-.13,1.24,2,1.63.82.45-3-.36-3-.74-4.71.24-2.15,1.12-.22,1.16-3.63l.43,2c.95-2-.37-1.88-.18-3.37-.25.49-.49.49-.46,2.19-.35.17-.49-1.13-.53-1.75l0,.4c-.46-.71-1-.94-.72-3.09.56,1.35.42-1.7.68-2.24l.12.56c-.19-1.57-.1-3.2-.21-4.19l.14.08c-.23-1.18-.92-1.63-.77-3.35.28.18,1,2.23.92.33.42.27.46,2.37.3,4.09.16-1.72.84-2.58.88-.47.54-.58-.23-2,0-3.1-.16.2-.35-.16-.51-.08.72-.06.06-4.11-.44-4.18l.4,2.07c-.58.16-1-2.42-1.28-1.6.38-.41.36-1.44.27-2.59a25.29,25.29,0,0,1-.17-3.53,3,3,0,0,1,1,.22c-.37-.16-.79-.31-1.23-.47a32.77,32.77,0,0,0,3.59,0c1.06-.06,2-.17,3-.3,1.95-.25,3.9-.57,6.05-.68-1.48.29-1.6,1.29-4.24.94,4,.2,1.19,1,2.43,1.48,3.14.37,1.63-.93,2.61-1.24l-2.19.18c2.82-1.15,8.15.25,12.51-.47.32.3-.89.17-1.48.29,2,.6,1.9-.12,3.08-.35,2,.1,4.45.36,3.21,1.09,2.22.18-.24-.44.95-.67l.41.16,2.35-.82c1.93.24,4.27.64,5.13,1.33,4.5-.14,1.57-1.65,4.85-1.92,1.84.38-.35.56-.53.84l2.91-.07c-1,.81-3.38.41-3.2,1.35,2.43-1,3.29-.27,6.55-.9l-.2-.08c1.45-.65,4.8-.2,6.7-.32-.77.39-2.88.44-4.27.58,2.13.32,7.52,0,9.36-.84,1.22.13,3.85.47,2.07.82,4.33.14,1.81-1.21,5.54-1l-.15.64c4.09.92,8.06-.83,11.94,0l.24-.78c.83.33,2.55.48,2.88.78l-2,.26c1.66.66,2-.62,4-.16,0-.24-1.7-.77-1.7-1-8.3.45-16.53-.67-24.92.12.32.1.69.2.48.35-.91-.19-2.6,0-2.34-.4l.3-.06c-2.19.18-4.18-.78-5.48-.77-.86.53-4.53-.22-3.55.69l-1.45-.57c-.48.34-.24.78-1.13,1-1.51-.07-1.54-.43-.36-.66a178.21,178.21,0,0,0-18.47,0l1.58-.43c-1.42-.21-5.16.75-3.94-.34-2.88.43-7.86-.31-8.06.83-1.9-1.1-7-.48-11-.32.14.2.08.32-.1.41a1.42,1.42,0,0,1-.46.09l-.72,0c-1.06,0-2.55,0-3.61,0a7.24,7.24,0,0,0,.15,1.34c-.29.1-.47-.66-.61-1.8,1.35-.23,3.83-.35,3.86-.66a31,31,0,0,1-4.16.37c0,1.73,0,3.47,0,5.27,0,1.19-.11,2.17-.13,3.18,0,2,.09,3.6.88,4.32-.08.49-.15.5-.23.33,0,.79-.33,1.85-.42,2.63.33.47.49-1.24.61.65-.07,1.51-.61.65-.85,1.27.43,2.88.62,7.44,1.39,7.94-.21.85-.65,1.75-.79.8.61,4.58-.11,4.4.27,9,0-1.62-.82-.81-.5-3.14-1.09,1.83.2,7.09-.38,10.77L359,438c.12,2.24-.55,2.37-.8.8-.43,3.81,0,5.83,0,8.75-.09.17-.22,0-.19-.45l0,4.21c.17.42.53,1.94,1,1.63C358.6,452.47,358.36,451.59,358.62,449.3Z"/><path class="cls-5" d="M359,453l.09.11v-.17S359,453,359,453Z"/><path class="cls-5" d="M362,414.77a4.12,4.12,0,0,0-.3,1A3.24,3.24,0,0,0,362,414.77Z"/><path class="cls-5" d="M391.57,462.08c-.53-1.07-2.56.17-4.4-.11,1.75-.16,1.31-.78,1.08-1.09-2.16,1.37-2.65-.27-6.64,0-.09-.45,1.84-.52,2.07-1-2.2.35-5.56.53-6.06,1.3-3.73,0-6.38-.26-8.62-.14,2.7-.31.5-.77,2.47-1.43-1.16.38-2.92.79-4.86,1.22s-3.75.88-6.44,1.34l-.5-2.16c.84-.94.93-.94,1.7-.77a7.81,7.81,0,0,0,.12-1.94,1.18,1.18,0,0,0-.27-.7c-.23-.3-.51-.57-.38-2.7l-.15,2c-.25-2-1.05-2.13-1.61-2.76l.12,5c-.58,0-.5-3.15-.64-4.08-.7-1.49-.5,2.69-1,2.14a4.25,4.25,0,0,1,.35,1.78l0,.64,0,1c0,.68,0,1.33.1,1.88l-.31.59c-.07,1-.09,1.84-.08,2.61,1.55,0,3-.15,4.28-.28l2-.17a9.61,9.61,0,0,1,1.19-.07c.19.09.22.15.18.21a7.39,7.39,0,0,1,2.78-.9l-1,0c1.8-.74,6.24-1.21,3.33-2l5.07.24c-.57.81-1.59,2.06-4.51,2.15l-.34.34c2.19.46,6.19-.63,4.76-1.33,2.21-2,7.77-.07,11.5-.89.26.53-1.8.74-2.7,1.12-1.12.06-1.92.07-2-.37-4.8.3,1,1.69-4.41,1.5-2.65-.27,3.24-.85-.67-.93l-2.79,1.48c2.42,0,4.61-.28,6.56-.46a103.35,103.35,0,0,1,18.46-.15l47.68-.49c5-.21,6.78-.15,8.76-1.61-1-.3-4.08-.16-3-.67-.54.55-2.43.84-5,.79-.27-.53,2.38-.26,1.71-.38l-.49,0a2.09,2.09,0,0,1,1.53-.47c-2.91-.81-8.39-.64-10.46.38-2.37-.55,1.62-.83,2.83-1.25-8.34-.41-14-.33-22.44-.38-.14.94-.86.6-2,1.24l-.72-.35c.36.17-.81.82.84,1-4.84-.73-5.74,1.25-9.07,1.66l.23-.5a59.36,59.36,0,0,0-5.93.36c-4.39-.92,3.86-.15,2.65-1.34l-1.26.2a8.52,8.52,0,0,1,2.92-1.61c-4.22.78-6.05-.31-10.63.29.54-.54,4.67-1,5.79-1-1.55-.05-4.32.34-4.45-.16l-.31.68c-2.73.09.36-.63-.53-1.07C391.4,459.57,397,461.68,391.57,462.08Z"/><path class="cls-5" d="M360.67,427.19a10.91,10.91,0,0,0,0,2.06C360.71,428.57,360.71,427.88,360.67,427.19Z"/><path class="cls-5" d="M361.95,440.06a1,1,0,0,1,.25.24C362.13,440.07,362.05,440,361.95,440.06Z"/><path class="cls-5" d="M362.89,441.33c-.31.31-.31-.5-.7-1C362.41,441.13,362.41,443.26,362.89,441.33Z"/><path class="cls-5" d="M456.3,460c.2.39.4,2.08.57,1.66l-.24-2.49Z"/><path class="cls-5" d="M457,455l.26-2.43-.92-1.62C456.4,453.58,457,452.42,457,455Z"/><path class="cls-5" d="M457.56,448.19l.22.55C457.69,448.23,457.62,448.13,457.56,448.19Z"/><path class="cls-5" d="M457.17,448.09l-.67-1,.49,3.17.13-1.21c.24,0,.33-.8.44-.91l-.48-1.19A3.05,3.05,0,0,1,457.17,448.09Z"/><path class="cls-5" d="M457.14,445.38a1.86,1.86,0,0,1-.2.22C457,445.62,457.08,445.53,457.14,445.38Z"/><path class="cls-5" d="M458.39,439.26c-.25.62-.62-.65-.89-.83-.26,2.43.74,2.55.42,4.69-.53-3.29-.4,1.19-.78,2.27.63-.64,1.05-1.85,1.24-4.31l-.42-.27C457.95,439.49,458.2,440.18,458.39,439.26Z"/><path class="cls-5" d="M457.37,426.4l.62,2c-.3.33-.31,3.44-1,3.29a13,13,0,0,0,.54,2.16,2.83,2.83,0,0,0-.12,2.52c.44-4.66.59-3.26.79-7.29.14.09.12.59.09,1.09l.34-2.63C457.9,427.25,457.85,423.85,457.37,426.4Z"/><path class="cls-5" d="M457.84,422.54c0,2.11.63,3.26,1,2.23l-.5-4.48C458.39,421.59,458.46,423.2,457.84,422.54Z"/><path class="cls-5" d="M457.85,419.43c.33-.83,1-2.2.39-3.65C458.34,418.19,457.39,417.06,457.85,419.43Z"/><path class="cls-5" d="M458.45,404.23l-.42,4.15c-.83.77-.26-2-.63-3.26-.17,3.53.1,2.4.62,5.06a19.42,19.42,0,0,0,.61,3.76C457.95,408.58,460,408.32,458.45,404.23Z"/><polygon class="cls-5" points="457.61 412.52 457.95 413 457.69 411.01 457.61 412.52"/><path class="cls-5" d="M457.72,394.64a7.35,7.35,0,0,0-2.4-.33h-.53l-.46,0-.92.13a12.08,12.08,0,0,1-3.94.27c.3-.06.09-.14.68-.25l-2.4.1-.11-.22c.14.58-2.35.82-3.41,1.27,2.46.62,1.24-.73,3.41-.05-.52.27-.9.67-1.4.89a7,7,0,0,0,2.5-1c1.6-.07,1.12.27,1.24.49,1.78-.34,1.81-1.2,4.53-1,1.77.52-1.06.81,2,.6-.36-.29-.24-.38.23-.4s1.22.06,2,.1a6.32,6.32,0,0,0,.15,2.5,13.36,13.36,0,0,1-.2,1.65,7.63,7.63,0,0,1-.29,1.11c-.21.58-.44.83-.6.59.72-.06,1.34,1.9,1.55,3.59l-.61-3.77.85-1.27a17.22,17.22,0,0,1-.27-2.47c0-.83,0-1.62,0-2.49l-1.94-.07Z"/><path class="cls-5" d="M446.23,396.5c-.26.05-.48.11-.82.15A1.76,1.76,0,0,0,446.23,396.5Z"/><polygon class="cls-5" points="457.49 401.8 457.32 400.9 457.07 401.53 457.49 401.8"/><path class="cls-5" d="M444.34,397.11c.5,0,.68-.26.18-.28l-.77.4Z"/><polygon class="cls-5" points="442.08 396.57 440.84 396.08 440.07 396.47 442.08 396.57"/><path class="cls-5" d="M391,396.08c1.63.3,1.48-.29,1.75-.71C390.19,395.26,392.65,395.88,391,396.08Z"/><path class="cls-5" d="M361.81,398a2.41,2.41,0,0,0,.12-1.09,13.71,13.71,0,0,1,2.18-.29,7.69,7.69,0,0,0-2.55-.08A10.1,10.1,0,0,0,361.81,398Z"/><path class="cls-5" d="M363.78,411.18c-.19-.45-.28-1.08-.36-.1l-1-1.76C362,412,363.34,411.27,363.78,411.18Z"/><path class="cls-5" d="M363.93,426.71l-.4-2.51,0,1.3a8.63,8.63,0,0,1-.95-2C362.78,425.31,363.18,427.08,363.93,426.71Z"/><path class="cls-5" d="M362.37,421.18l.06.93A.71.71,0,0,0,362.37,421.18Z"/><path class="cls-5" d="M362.44,423.11l.12.33c-.05-.45-.1-.91-.13-1.33A1.2,1.2,0,0,0,362.44,423.11Z"/><path class="cls-5" d="M363.42,428.59l.11,4.35.2-1.65C363.1,430.93,364.1,429.27,363.42,428.59Z"/><path class="cls-5" d="M362.86,451.38l-.62.45a24.81,24.81,0,0,0,.43,4.37,12.53,12.53,0,0,1,.15,2v.22l0,.07a.85.85,0,0,1-.07.15,2.3,2.3,0,0,1-.27.37c.19-.33.37-.13.52-.13s.27-.1.36-.41l-.1,0a1.14,1.14,0,0,1-.09-.3c-.05-.24-.1-.52-.14-.82-.08-.6-.14-1.29-.17-2A35,35,0,0,1,362.86,451.38Z"/><path class="cls-5" d="M361.94,460.36c-.1-.05-.19.08-.27.31a.77.77,0,0,0,1.24.1c.28-.09.39-.23.27-.36-.41.4-.6.28-.66.12s-.06-.38-.56-.16Z"/><path class="cls-5" d="M373.4,460.33c-.8,0-1.93.07-.76.24,2.42,0,1.79-.74,3-1.16C373.64,459,371.88,460,373.4,460.33Z"/><path class="cls-5" d="M392.45,464.93c-.27-.53-2.2-.46-2.65-.27A8.29,8.29,0,0,1,392.45,464.93Z"/><polygon class="cls-5" points="392.88 460.49 392.2 460.36 391.39 461.18 392.88 460.49"/><polygon class="cls-5" points="407.37 460.05 409.21 459.52 406.47 459.61 407.37 460.05"/><path class="cls-5" d="M410.15,460.18l2.42,0-.85-.21C410.56,459.77,411,460.17,410.15,460.18Z"/><path class="cls-5" d="M417.42,460.07a1,1,0,0,1-.67-.12l-2.2.35Z"/><path class="cls-5" d="M456,463.44c-.54.54,1.66.2,2.33.32C458.47,463.62,457,462.93,456,463.44Z"/></g></svg>