<svg xmlns="http://www.w3.org/2000/svg" viewBox="0 0 800 480"><defs><style>.cls-1,.cls-10,.cls-16,.cls-22,.cls-3,.cls-4{fill:none;}.cls-2{fill:#42b5e5;}.cls-3{stroke:#d7df23;}.cls-10,.cls-16,.cls-22,.cls-3,.cls-4{stroke-linecap:round;stroke-linejoin:round;stroke-width:5px;}.cls-4{stroke:#231f20;}.cls-20,.cls-5{font-size:21px;font-family:AppleSpice, AppleSpice;}.cls-19,.cls-5{fill:#fff;}.cls-6{letter-spacing:0.02em;}.cls-7{letter-spacing:0em;}.cls-8{letter-spacing:0.04em;}.cls-9{letter-spacing:0.03em;}.cls-10{stroke:#1b75bc;}.cls-11{letter-spacing:0.08em;}.cls-12{letter-spacing:0em;}.cls-13{letter-spacing:0.02em;}.cls-14{letter-spacing:-0.02em;}.cls-15{letter-spacing:-0.01em;}.cls-16{stroke:#f15a29;}.cls-17{letter-spacing:0.04em;}.cls-18{letter-spacing:0.03em;}.cls-20{fill:#231f20;}.cls-21{letter-spacing:-0.03em;}.cls-22{stroke:#be1e2d;}.cls-23{letter-spacing:-0.03em;}</style></defs><title>Component</title><g id="Слой_1" data-name="Слой 1"><g id="Background"><rect class="cls-1" width="800" height="480"/></g></g><g id="Слой_2" data-name="Слой 2"><polygon class="cls-2" points="683.91 456.4 684.52 454.72 683.6 445.81 683.91 456.4"/><path class="cls-2" d="M683.43,364.94c-.8-8.18-1.44-23.82-2.77-24.06L682,355.68c-1,2.08-.79,11.82-.35,20.43l-.19-9.77c.17,2.52.78.9.95,3.42-.32,14.94,1.11,18.74.19,32.57l-.12-.78.79,10.88c-.11,3.44-.59,2.08-.79,1,.65,9.7,1.3,17.06,1.41,30.22,1.69-10.22-1.78-28.88-.09-39l.12.77C683.1,392.64,684.09,377.84,683.43,364.94Z"/><path class="cls-2" d="M682.51,413.41l-.06-.85A2.23,2.23,0,0,0,682.51,413.41Z"/><path class="cls-2" d="M427.49,135.68l-.52.3C427.75,135.87,428.48,135.75,427.49,135.68Z"/><path class="cls-2" d="M588.63,137.29l-.78,0C586.83,137.68,587.37,137.58,588.63,137.29Z"/><path class="cls-2" d="M368.42,463.93l3.16.38A6.75,6.75,0,0,0,368.42,463.93Z"/><path class="cls-2" d="M584.67,461.5l.33,0Z"/><path class="cls-2" d="M486.12,457.11l-.44-.36C485.27,457,485.51,457.07,486.12,457.11Z"/><path class="cls-2" d="M555.93,455.49c2,.07,3.86.12,5.81.1A36.52,36.52,0,0,0,555.93,455.49Z"/><path class="cls-2" d="M582.55,461.68c.64-.07,1.38-.13,2.12-.18C583.86,461.55,583.06,461.61,582.55,461.68Z"/><path class="cls-2" d="M381,457.77l-2.73-.93C378.36,457.16,379.76,457.47,381,457.77Z"/><path class="cls-2" d="M573.16,454.5a27.34,27.34,0,0,0,3.66.3A15.25,15.25,0,0,0,573.16,454.5Z"/><path class="cls-2" d="M683.18,350.74c0,2,.09,4.23.23,6.95C683.45,355.11,683.35,352.84,683.18,350.74Z"/><path class="cls-2" d="M124,328.49a4.89,4.89,0,0,0,.38,1.25C124.25,328.18,124.12,328.1,124,328.49Z"/><path class="cls-2" d="M217.94,459.13l.76,0c-.2,0-.49-.09-1-.14Z"/><path class="cls-2" d="M150.61,460.14c.32-.07.62-.14.89-.22A2.29,2.29,0,0,0,150.61,460.14Z"/><path class="cls-2" d="M268.81,457.47c.82-.09,1.65-.21,2.36-.36Z"/><path class="cls-2" d="M317.52,457.85c-2.19-.31.15-.67,2.45-1-12.16-.31-16.18.94-28.82.27l5.94.4c-8.16.8-23.23,1.15-30.55.32l2.27-.34c-7.76.87-20-.4-23.31.29,3.19.38-.14.66,4.82,1l-19.75,1-1.5-1.28-10.37.56c2.57.49-13.92-.23-14.17,1-5.93-.39,2.43-1,4.54-1.55-5.84.45-6.48-.1-11.9.72l-5.8-1.06-15.22,1c.77-.12-.18-.18.55-.3-6.95,1.05-17.69-.34-26.54,1.43.45-.07.32-.12.45-.2-4.84,1-16.84.46-21.23.33-1,0-1.77.09-2.4.14l-.15,0-.08,0-.15,0-.26.09c-.31.12-.47.27-.51.42-.11.31.45.64.31.88l-2.36,0v-4.45l0-4.23c0-2.38-.09-4-.19-5.62-.21-3.22-.6-6.38-1.34-15.36,1.27-11.46,2.47,13.5,3.27-1.07-.72-1.94-1.39-12-1.81-23.41.36-10.43.51-27.89,1.35-38l-.92,1.05-.7-14.65,1.46,8.31c-.35-2.33-1-9.69-1.55-14.58-1-15.21,1.92-8.66.35-20.45a9.83,9.83,0,0,1,.28-1.12c-.77-3.79-.63-13.79-1-25.28l1.25,4-.16,7.46c1.11-4-.36-12.33-.38-19.59-.5-7.58-1.43-3.8-1.83-7.85,0-2.75-.39-6.83-.07-9,.28-6.68,1.39-.73,1.93,1.37-1.3-5.75-1.17-7.75-1.83-20.61.57-.69.83.25,1,2a25.47,25.47,0,0,0-1-6.45l.63-4.38c.8-14.65-2.4-14.48-2.25-32,.7,4.66-.34-15.08.35-20.45.27,6.06,1.71-2.93,2.48.74.26-14-1.48-5.55-1.91-16.88l1.55,4.56c-.79-10.9-.83-2.65-1.44-13.79.47,3.07.33-4.95.9,1.65,0-14.52-.12-10.75-.11-23.54l-1.45-1,0-1v-.57a5.16,5.16,0,0,1,.08-.78,1.33,1.33,0,0,1,.34-.77c.35.11.6.23.79.31l-.46,0c0,.56,0,1.13.17,1.1.26-.25.38-.36.41-.54a1,1,0,0,0,.56-.07l.29-.11.17-.06.23,0,.32,0a21.29,21.29,0,0,1,5.9.22c-1.43-.43-3.06-1,2.24-1.2-1.69.9,8.13.71,8.53,1.07-3.37-.56,11.34-.42,12-1.39,6.14.58-1.92.72-2.25,1.2,5-1.18,21.39-.43,26-1.13.1.09.36.15.34.2,6.46-.76,17.19-1.07,30.05-2.22l-4.41.88c13,.19,7.87-1.83,18.65-2-2.25,1.2,17.83-.32,13,1,6.42-.75,13.26-1.14,17.45-2.21,6.14.58-11.61,1.75-3.14,2l9.14-.73,1.65.61c.36-.48,8.38-.62,8-1,1.44.74,5.13,1.23,4.73,1.81,5.79-.3,13.94.32,18.76-.41l.44.37c5.55-1.48,17.61-.51,20.39-2l3.6.74c8.81-.25,7.11-1.71,11.19-2.12,3.52-.1,7.83-.32,11.55-.24-11.48,1.09,5.81,1.06,8.21,1.56,4.52,0,17.83-.33,21.48-1.09-5.43.82-2,1.38-11.82,1.57,5.27,1.36,14.87-.53,25.86-.47l-.1.67c15.63-.64,16.1-1.79,22.84-3,1.86.8.32,1-4.11,1.92,10.43.36,26.87-.4,38.63-.46,3.71.54,1.28.91-2.62,1.21,12.12-.79,27.14-.21,34.76-1.76-3,.62,4.89.32,9.38.54,0-.3.85-.7,1.39-.66,7.41-.69,23.81-1.44,32.5-1l-3.13.47c20,0,28.81-2.63,50.69-1.85,3.93.26-4,1.25,4,1.11,3.89-.58,2.6-1.68,12.8-1.5l-.68,1,6.95-1.05c-3.59-.74-15-.32-7-1.31,9.14.77,8-1,19.05-.08a51.14,51.14,0,0,0-7.72,1.31c23.25.83,32.52-1.35,56.08-.45,5.43-.42,11.57-.72,17.41-1l8.39-.42,8.62-.48.18,2.53c-.59-.18-1.13-.06-1.65-1a31.83,31.83,0,0,1-4.13,1c1.16,0,2.23,0,3.3-.12.11,1.43.28,2.69.46,4.18s.37,2.95.51,4.32a27.74,27.74,0,0,1-.2,8.31c1.37,4.78,1.18,27.77,3,30.14-.37.42.12,10.78-1,.3.78,13.66-1.36,18-1.28,24.27.1,3.51,1.11-4,1.25,4-.07,1-.25,1.21-.31,2.21l.47,3.07c-.38,3.19-.95-3.47-1.43-3.77-.24,11.23,1.29,18.51,1.58,31.79l-.35-2.27.11,13.52-.12-.77.79,10.9-.48-.32c.17,2.52.47,3.1.57,6.62l-.6-1.12c1,3.45,1.61,16.32,1.69,22.61l-.25,1.2,1.37,14.78c-.53,7.89-1.52-10.05-.88,5.59l-1.25-4c.61,11.12,0,12.78.49,20.38.56-3.44.41-8.71,1-4.82-1.26,8.76.53,14,1.19,22.33-.08-4.26-.1-7.14-.83-10,0-4.5.61-1.63.63-4.39l-.75-6.38.8-1.83-.79-10.93c1,.67,0-10,1.06-5.79-.5-7.63.13-12-.93-19,.51-5.17.8,8.16.83,2.67-1.16-30.52-1.42-62.08-1.49-93.88l.47,3.08c-.47-3.08-.87-7.16-1.22-9.47.7-5.41,1.41-26.25-.12-33.57.07-1,.3.57.42,1.33-.09-3.25-.09-7.29,0-11.78l.09-7,0-1.82,0-2.51q0-3.37,0-6.79l-13.18,0c-3.12,0-6.19,0-9.1.09-6.35,1.6-22.67-.66-28.35,1.48l3.11-.47c5.14.51-7.3,1.53-9.4,2.07-4.25-1.29-.3-1-5.36-2.21l6,.39-1.33-1.09c-19.1,3.1-35.65-.85-47.54,1.38.72-.12.54-.3,1.32-.41-7.93-.53-13.47,1-19.29,1.41-.68-.55,3.46-.95,6.51-1.42-13.93-.26-37.32,1.55-52.68.87-5.4.82,2.06,1-3.57,1.62-4.74-.15-8.12-.71-2.28-1.16-13.29-1.22-43.82,1.46-64.15.45-10.69,1-4,1.25-20.4,2,3.84-.58-3.91-1.77,5.87-2l1.15-.6c-16.31.1-38.07.16-46.94,1.93-.53-1.21-3-.2-9.12-.77-2.5.17.23.18,1.24.25-6,1.12-9,.07-13.32.29l1.52-.23-11.71.91c-2-.13-4.89-.33-5.31-.7l.08.85c-6.3.09-3.06-1-10.91-.72l1.66.61c-5-.33-12.92.66-14-.26-.21-.18.77-.12,2.53-.17-7.8-1.19-20.15.68-29.79.2l2.48,1.34c-9.37.55-5.74-.21-5.39-.7-6.28.09-7.67-.34-15.93-.39-4.08.4-2.12.53-3.44.95l-8.44-.23,5.42-.82c-13,2.17-32.58.19-41.21,2.14-4.94-.33,4.4-.88,1.45-1.08-15.4-.69-34.37,1.75-47.22.89-9.85-.34-20.39-.24-31.21-.07l-16.39.24-8.26.07-12.2,0v7.43l.36-.71-.08,17.3c.88,4.44.64,15.66,1.7,22.61-.3-.57-.73.91-1-.67.2,7,.71,14.64.26,18.8l-.35-2.34c0,15.53.22,37.1,1,45.24.15,5.31-.51,5.19-.94,6.61.07,9,.53,14.86,1.21,22.24-.13,2-.26,4-.57,6.16l.95,3.4c-.08,3.76-.73.88-.93,3.85,1.26,14,.5,30.35.69,40.18l.43-1.41c.4,4.07-.13,12-.64,7.14-.29,19.46,1.78,28.84,1.88,55.13-1.59,3.68.78,23.69-1,27.59.61,11.1,0,18.26,1.13,26-.18.23-.25,1.2-.3-.57a62.26,62.26,0,0,0-.23,8c0,1.77.08,3.7.14,5.73l.3,10.33,9.24-.3,5-.26.63.54c4-1.25,23.24-1.14,27.24-2.39,1.23.25-2.11.53-3.68.77,5.84,1.06,10.15-.67,17.64-.51-.57.3,1.64.61.08.85,24.86,1,60.91-1.67,93.33-1.2,9-.07-3.28-1.22,8.49-1.28,3.41.56-5.75,1.3,1.73,1.46,5.41-.82,7.4-.69,14.65-.71-1.32.42-.12.66-5.21,1,4.19.45,17.75-1.18,26.09-.29-.42-.36,1.1-.6,2.65-.83,12.26-1.21,28.15.69,29.28.09,0,0,4.29-.22.56-.3,4.51,0,11,.06,9.87.66a53.6,53.6,0,0,1,8-1l-1.91.72c2-.17,4.4-.64,6.41-.75l-3.2-.38c5.17.51,15.26-1,15,.32l-1.75.05,9.65.47a75.92,75.92,0,0,1,14.21-1.07c2.51,1.34,16.51.09,24.75.13l-.36.48c6.44-.75,22.95-.66,20-.86,6.27-.09,14.74.14,11.63.61,5.09-.34,15.87-.46,18.54-1.29l10.27,1c6.13-1.78,20.5.35,21.09-1.46,5.71.21,4.39.63,8.36.89,7.94-1,16.16-.94,24.43-.9l.22.19c8.26,0,17.95-1,29.52-1.23l2.46,1.34c6.06-.27,7.53-1.35,13.29-1.14,1.34.19.07.28-1.46.38a159.18,159.18,0,0,1,17.58.19c8.72-1.1,15.43-.82,23.12-2,6.81,1.12-10.13.67-4.29,1.73,12.42.49,25.09-.35,38.74-1.12,1.18.25-.35.48-.91.78,0,0,27.68-3.66,22.5-4.9,3.42-.95,7.3-1.53-4.37-2.14-3.86.58-14.79,1.37-16.85.39l-.67,1c-15.62.64-1.39-1.94-20.2-1.68l4,.26c-3.54.1-6.39.75-10.37.49-1.2-.25,1.35-.41,2.89-.65l-15.55,1.49c-.66-.55-.08-.85,3-1.31-14.29.22,2.91,1.71-14.57,1.55-3.17-.38,1.12-.6,3.42-.95-8.1-.71-13.53.11-21.87.73-.13-.85,5.38-.82-1.51-1.28,1.38.43,2.26,1.16-3,1.31,2.55-.89-4-.41-9.2-.56,1.05.28.66.69-1.36.87-2.53.17-4.7-.15-8.24,0l6.35.76c-8.89.92-13.94-.26-20.7-.53a16.38,16.38,0,0,1,3.07-.36c-7.13-.26-14.48-.85-23.47,0l.77-.12c-17,1.06,5.25,1.36-14.49,2.4-6.5-.09,3.07-2.83-11.91-1.64,7.11.64-9.66,1.89-18.21,2.32l8.82-1.76c-3.45,0-9.42.56-11.32.42l.44.37c.67,1.4-11-.06-17.24.88,7.68-2,8.11-1.65,9.49-3.58a117,117,0,0,1-23.94,2.11l9-1.59c-14.7-.14-31.94,2.25-44,3.63,3.24-1.13-1.73-1.46,3.51-2.46l-14.11.41,4-1.25c-5.75,1.3-12.1.54-11.14,2.12a14.67,14.67,0,0,1,4.07-.4c-.34.48-2.78,1.5-10.06,1.52-4.92-.33,2.89-.65,1.51-1.08-4.68.7-5-.33-9.82.19l4.35.63c-3.41,1-8.06.14-12.85.66,5.77-.47,3.87-1,1.7-1.5l.31.12c-3.5.1-8.15.8-10.58.31l3-1.31-5.19,1c-2-.13-3.37-.56-.07-.85-16.13-.57.49,2.72-20.63,1.83.35-.48,2.66-.84,8.38-.62.92-.78-.51-1.21-6.22-1.42-.1-.06,0-.1,0-.14C339,456.79,324.73,456.91,317.52,457.85Z"/><path class="cls-2" d="M350,456.67c5.87-.06,10.83-.13,13.11-.33C362,456.11,349.69,455.88,350,456.67Z"/><path class="cls-2" d="M435.64,142.15l-2.16.15Z"/><path class="cls-2" d="M482.23,141.18a14.79,14.79,0,0,0-2.45-.25C479.78,141.18,480.38,141.36,482.23,141.18Z"/><path class="cls-2" d="M122.81,261.09v0Z"/><path class="cls-2" d="M265.54,145.1c4.07-.46,5.59-.82,5.8-1.15C268.78,144.08,266.66,144.4,265.54,145.1Z"/><path class="cls-2" d="M176.23,145.73c-.57.07-1.18.13-1.67.21C175.86,145.85,176.21,145.79,176.23,145.73Z"/><path class="cls-2" d="M123.62,275c-.46-3.92-.51-9.44-.81-13.95C123.09,264.94,122.77,272.36,123.62,275Z"/><polygon class="cls-2" points="538.97 139.06 534.32 139.76 539.2 139.24 538.97 139.06"/><path class="cls-2" d="M495.45,140c-2-.13-9.58.37-7.37.68C490.39,140.37,493,140.21,495.45,140Z"/><polygon class="cls-2" points="328.76 141.56 326.91 142.28 330.76 141.7 328.76 141.56"/><path class="cls-3" d="M435.58,49.63C439.86,57,506.13-2.64,511.12,6c8.1,14-78.58,34.4-70.78,47.91,3.47,6,68.27-55,75-43.32,7.65,13.24-74.73,41.69-68.9,51.78,5.22,9,71.38-54.94,77.32-44.64,4.86,8.41-86.16,34.33-77.6,49.15C451.49,76.06,525.69,8.83,531,18c9.2,15.93-87.45,45.68-81.81,55.44,7.9,13.68,79.8-56,84.09-48.55,8.26,14.3-85.5,40.72-79.8,50.6S533,18.07,537.94,26.65c6.24,10.81-95.76,46-85.88,63.13,5.35,9.27,91.3-71.12,99.27-57.31C559.6,46.8,448.51,83.76,455.4,95.69c5.17,9,98.17-73.34,105.38-60.84,5.4,9.35-104.15,54.59-96.58,67.7C470.11,112.78,553.31,31.1,562,46.1,571,61.81,472.62,88.21,481.17,103c6.41,11.11,76.93-53,80.64-46.56,4.51,7.81-83.75,39.75-78.6,48.66,3.27,5.66,68.84-47,72-41.56,4.44,7.7-62.39,32.72-59.13,38.37,3.62,6.28,57.13-39.13,59.79-34.52,5.35,9.27-52.29,28.37-47.77,36.19,3.06,5.31,40-30.41,43.14-24.91,3.73,6.47-36.42,22-33.81,26.56,1.56,2.7,26.25-18.84,27.84-16.08,1.34,2.33-20.09,13.08-18.49,15.86.33.57,14.36-9,14.66-8.46"/><path class="cls-4" d="M297,189.08c1.5,2.61,41.27-28,43.07-24.87,3.23,5.59-61.51,27.65-55.89,37.39,3.41,5.9,66.18-51,71.72-41.41,4,7-78.57,32.53-72,44,6,10.38,73.54-52.19,77.75-44.89,5.5,9.53-92.77,36.7-83.46,52.82,8.45,14.64,86.54-64.06,92.65-53.49,5.87,10.17-103.87,49.91-97.33,61.25,8.42,14.58,99.52-74.79,107-61.79,10.28,17.81-118.3,48.5-108,66.31,10.4,18,106.58-83.21,116-67,7.92,13.71-125.45,61.53-115.37,79,11.43,19.79,124.19-97.7,135.45-78.2,7.11,12.32-138.76,74-130.52,88.25,11.36,19.68,133-109.67,147.23-85,12.33,21.36-157.61,73.27-148.91,88.33,13.76,23.83,139.47-105.64,150.35-86.8,14.53,25.17-153.79,77.13-145.86,90.88,14.93,25.85,140-104.34,150.17-86.7,12.78,22.13-158,70.72-144.09,94.79,9.64,16.7,151-107,159.57-92.13C458.21,190,267.27,239.27,283.28,267c9.28,16.07,149.54-118.29,163.38-94.33,8.6,14.89-170.45,80.21-160.2,98C296,287.18,444,153,455.6,173c13.57,23.51-174.46,76.95-162.32,98,16.41,28.42,151.34-112.15,162.06-93.57,17.28,29.93-172.8,81.17-160.68,102.15,12.34,21.38,156-115.33,166.91-96.37C474.9,206.25,292,262,305.9,286.13,319,308.75,458.28,164.09,473,189.64c11.28,19.54-173.74,71.54-159.51,96.18,15.47,26.8,148-114.07,160.39-92.6,11.29,19.56-179.81,67.6-162.73,97.17C321.43,308.13,463.51,175.89,475,195.81c8.83,15.29-158.52,82.07-149.15,98.3,8.79,15.23,142.28-116.26,157.06-90.68,15.81,27.39-158.35,78.81-150,93.31,9.83,17,135.66-107.41,148.26-85.6,15.64,27.09-152.73,75.51-144.79,89.27,11.53,20,132.49-110.07,147-84.89,9.44,16.35-141.5,67.61-129.51,88.38,7.39,12.79,117.82-94.9,129.46-74.74,6.22,10.77-125.05,59.5-117.2,73.1,6,10.4,109.89-83.61,118.62-68.49,8.35,14.46-108,55.11-99.93,69.11,8.8,15.25,89-65.88,95.31-55,7.49,13-94.52,41.62-87.82,53.23,5.36,9.28,84-63.39,90.42-52.2,6.24,10.82-90.87,38.64-83.76,51,3.81,6.59,68.83-56.16,75.94-43.84,4.64,8-58.45,31.66-54.07,39.25,2,3.43,38.6-28,41.07-23.71"/><text class="cls-5" transform="translate(329.18 220)">Co<tspan class="cls-6" x="21.9" y="0">m</tspan><tspan class="cls-7" x="37.06" y="0">po</tspan><tspan class="cls-8" x="60.12" y="0">n</tspan><tspan class="cls-9" x="70.54" y="0">e</tspan><tspan x="83.33" y="0">nt</tspan><tspan x="30.58" y="25.2">logic</tspan></text><path class="cls-10" d="M311.62,366.33c.26.46,19.91-11.91,20.09-11.6C333,357,309.49,366.39,311,369c.58,1,19.22-12.71,19.92-11.5,1.89,3.28-20.7,12.26-19.39,14.53.74,1.29,23.74-16.58,25-14.42,2,3.41-21.43,14.11-20.07,16.47,1.58,2.73,26.66-19.15,28.29-16.33,3.13,5.42-36,22.25-33.33,26.79s48.38-34.19,51.09-29.5-53.25,22.69-48.67,30.63c3,5.27,46-33.72,49.11-28.35,4.86,8.43-55.49,32.83-50.45,41.57,3.66,6.33,70.8-50.86,75.12-43.37,8.08,14-82.16,36.32-74.25,50,6.5,11.26,76.42-57.95,82.41-47.58,7.54,13.07-86.06,44.18-78.57,57.16,9.41,16.3,95.19-70.64,102-58.88,9.78,16.95-108.37,55.92-102.62,65.87,7.15,12.38,101.77-84,112.71-65.07,10.52,18.22-124.19,56.83-113,76.23,9.2,15.94,114.86-95.94,127.69-73.72,11.13,19.28-139.17,69.93-132.13,82.13,9.35,16.2,127.13-96,136.94-79.06s-142,59.7-129,82.06C325.69,455,437,348.93,449.14,370c9.71,16.82-130.5,54-118.36,75.08,6.4,11.08,104.38-82.8,114.14-65.9,7,12.05-109.32,51-102.13,63.42,6.74,11.67,91.29-75.11,101-58.31,8.67,15-89.19,43.7-80,59.6,4.52,7.83,77.88-57.81,83.44-48.17,6.4,11.08-75.79,33.65-68.46,46.35,5.71,9.89,65.43-49.63,70.56-40.74,5.8,10.05-62.23,37.18-58.74,43.22,4.05,7,50.85-38.24,54.7-31.58,4.29,7.42-45.36,24.13-40.76,32.11,2.18,3.78,38.57-27.66,40.91-23.62,3,5.13-38.64,17.91-35.17,23.92,2,3.55,33.41-22.38,34.75-20.06,2.36,4.09-24,15.81-22.2,18.9.86,1.48,20.62-13.2,21.18-12.23,1.4,2.43-16.41,11.17-15.29,13.1.22.37,20-11.9,20.14-11.63"/><text class="cls-5" transform="translate(357.59 400)"><tspan class="cls-11">V<tspan class="cls-9" x="12.22" y="0">i</tspan><tspan class="cls-12" x="16.08" y="0">ew</tspan></tspan><tspan x="-18.77" y="25.2">t</tspan><tspan class="cls-13" x="-10.12" y="25.2">e</tspan><tspan class="cls-6" x="2.44" y="25.2">m</tspan><tspan class="cls-14" x="17.6" y="25.2">p</tspan><tspan class="cls-15" x="28.1" y="25.2">l</tspan><tspan x="31.71" y="25.2">ate</tspan></text><path class="cls-16" d="M511.62,326.33c.26.46,19.91-11.91,20.09-11.6C533,317,509.49,326.39,511,329c.58,1,19.22-12.71,19.92-11.5,1.89,3.28-20.7,12.26-19.39,14.53.74,1.29,23.74-16.58,25-14.42,2,3.41-21.43,14.11-20.07,16.47,1.58,2.73,26.66-19.15,28.29-16.33,3.13,5.42-36,22.25-33.33,26.79s48.38-34.19,51.09-29.5-53.25,22.69-48.67,30.63c3,5.27,46-33.72,49.11-28.35,4.86,8.43-55.49,32.83-50.45,41.57,3.66,6.33,70.8-50.86,75.12-43.37,8.08,14-82.16,36.32-74.25,50,6.5,11.26,76.42-57.95,82.41-47.58,7.54,13.07-86.06,44.18-78.57,57.16,9.41,16.3,95.19-70.64,102-58.88,9.78,16.95-108.37,55.92-102.62,65.87,7.15,12.38,101.77-84,112.71-65.07,10.52,18.22-124.19,56.83-113,76.23,9.2,15.94,114.86-95.94,127.69-73.72,11.13,19.28-139.17,69.93-132.13,82.13,9.35,16.2,127.13-96,136.94-79.06s-142,59.7-129,82.06C525.69,415,637,308.93,649.14,330c9.71,16.82-130.5,54-118.36,75.08,6.4,11.08,104.38-82.8,114.14-65.9,7,12.05-109.32,51-102.13,63.42,6.74,11.67,91.29-75.11,101-58.31,8.67,15-89.19,43.7-80,59.6,4.52,7.83,77.88-57.81,83.44-48.17,6.4,11.08-75.79,33.65-68.46,46.35,5.71,9.89,65.43-49.63,70.56-40.74,5.8,10.05-62.23,37.18-58.74,43.22,4.05,7,50.85-38.24,54.7-31.58,4.29,7.42-45.36,24.13-40.76,32.11,2.18,3.78,38.57-27.66,40.91-23.62,3,5.13-38.64,17.91-35.17,23.92,2,3.55,33.41-22.38,34.75-20.06,2.36,4.09-24,15.81-22.2,18.9.86,1.48,20.62-13.2,21.18-12.23,1.4,2.43-16.41,11.17-15.29,13.1.22.37,20-11.9,20.14-11.63"/><text class="cls-5" transform="translate(551.25 360)">St<tspan class="cls-17" x="19.97" y="0">y</tspan><tspan class="cls-18" x="31.33" y="0">l</tspan><tspan x="35.8" y="0">es</tspan></text><path class="cls-19" d="M345,310.38c.27.4.45.65.41.91s-.24.14-.25.41c-6,3-10.22,8.44-12.43,15.48a41.85,41.85,0,0,0-1.4,5.27,39.15,39.15,0,0,0-.49,5.85,18.6,18.6,0,0,0,1.15,7.82c.27.82.86,2,1.32,2.06.71,0,2.37-1,3-1.24a12.63,12.63,0,0,1,3-1,1,1,0,0,1,.16,1.56c.14,2-.55,3.73-.74,5.52-.26,2.39-.06,5.2-.33,7.49a5.76,5.76,0,0,0-.41,1.89,2,2,0,0,1-1.73.49C330.79,360,326,356,320,353.69c-.27-1.1.79-.94,1.56-1.15,1.3-.36,3.28-1.43,4.53-1.73-1.92-2.3-2.6-5.71-3.21-9.22a37.57,37.57,0,0,1,0-10.87,95.22,95.22,0,0,1,1.48-10.13,39.26,39.26,0,0,1,7.66-16.3c1.44-1.72,3.69-2.9,5.43-4a25,25,0,0,0,2.55-.25,1.37,1.37,0,0,0,.49.49c.11.36,0,.46,0,.91a49.6,49.6,0,0,0,2.63,6.18C343.78,308.69,344.27,309.27,345,310.38Zm-1.48.33c.08-.55-.85-1.68-1.15-2.22a36.28,36.28,0,0,1-3.13-7.08,11.73,11.73,0,0,0-5.85,3.62c-2.21,2.41-3.79,5.74-5.43,9.22a29.78,29.78,0,0,0-1.81,5.52,41.4,41.4,0,0,0-1.24,5.76c-.36,3.54-1.09,7.89-1,11.69s1.17,9.81,3.13,12.6c.74.19,1.2,1.26,1.48,1.4s-.26.41-.33.66c-2.29-.51-3.8.8-5.76,1.48,3.68,2,7.16,3.9,10.62,6a14.22,14.22,0,0,0,3.79,1.81,7.57,7.57,0,0,0,.49-2.8c.1-2.61.08-5.26.41-7.66a13.14,13.14,0,0,0,.33-3.29c-1.48.4-2.9,1.25-4.12,1.65-.23.75-1.35.86-2.06.49-.21-.3-.07-.49-.16-.82-2.85-5.09-2.46-11.14-1.81-16.55a27.76,27.76,0,0,1,.82-3.46c.23-.87.71-1.59,1-2.39a41.17,41.17,0,0,1,1.56-4.45,25.85,25.85,0,0,1,2.06-3.29,26.44,26.44,0,0,1,6.67-6.67C342.56,311.56,343.47,311,343.51,310.71Z"/><path class="cls-19" d="M402,359.44c-.27-.4-.45-.65-.41-.91s.24-.14.25-.41c6-3,10.22-8.44,12.43-15.48a41.85,41.85,0,0,0,1.4-5.27,39.15,39.15,0,0,0,.49-5.85,18.6,18.6,0,0,0-1.15-7.82c-.27-.82-.86-2-1.32-2.06-.71,0-2.37,1-3,1.24a12.63,12.63,0,0,1-3,1,1,1,0,0,1-.16-1.56c-.14-2,.55-3.73.74-5.52.26-2.39.06-5.2.33-7.49a5.76,5.76,0,0,0,.41-1.89,2,2,0,0,1,1.73-.49c5.55,2.93,10.37,6.93,16.3,9.22.27,1.1-.79.94-1.56,1.15-1.3.36-3.28,1.43-4.53,1.73,1.92,2.3,2.6,5.71,3.21,9.22a37.57,37.57,0,0,1,0,10.87,95.22,95.22,0,0,1-1.48,10.13,39.26,39.26,0,0,1-7.66,16.3c-1.44,1.72-3.69,2.9-5.43,4a25,25,0,0,0-2.55.25,1.37,1.37,0,0,0-.49-.49c-.11-.36,0-.46,0-.91a49.6,49.6,0,0,0-2.63-6.18C403.26,361.13,402.78,360.55,402,359.44Zm1.48-.33c-.08.55.85,1.68,1.15,2.22a36.28,36.28,0,0,1,3.13,7.08,11.73,11.73,0,0,0,5.85-3.62c2.21-2.41,3.79-5.74,5.43-9.22a29.78,29.78,0,0,0,1.81-5.52,41.4,41.4,0,0,0,1.24-5.76c.36-3.54,1.09-7.89,1-11.69S422,322.79,420,320c-.74-.19-1.2-1.26-1.48-1.4s.26-.41.33-.66c2.29.51,3.8-.8,5.76-1.48-3.68-2-7.16-3.9-10.62-6a14.22,14.22,0,0,0-3.79-1.81,7.57,7.57,0,0,0-.49,2.8c-.1,2.61-.08,5.26-.41,7.66a13.14,13.14,0,0,0-.33,3.29c1.48-.4,2.9-1.25,4.12-1.65.23-.75,1.35-.86,2.06-.49.21.3.07.49.16.82,2.85,5.09,2.46,11.14,1.81,16.55a27.76,27.76,0,0,1-.82,3.46c-.23.87-.71,1.59-1,2.39a41.17,41.17,0,0,1-1.56,4.45,25.85,25.85,0,0,1-2.06,3.29,26.44,26.44,0,0,1-6.67,6.67C404.49,358.25,403.58,358.82,403.53,359.11Z"/><path class="cls-19" d="M499.94,369.53c.21.81-.19,1.27-.21,1.93-.28-.26-.53.1-1,0-.21.35.4.83,0,1.18-10.63,1.92-21.06,4.54-30.08,8.49a3.24,3.24,0,0,0,1.4.21,65.5,65.5,0,0,1-9.67,3.22,1.54,1.54,0,0,0-.54.54c6.76-.16,17.31-2.61,24.93-.11.18.39.5.64.43,1.29-.55.49-1.07.29-1.83.21-4.43-.45-8.67-.08-13.54-.11a46,46,0,0,0-4.62.21c-2.16.21-4,.85-5.8.75-1.48-.08-3.4-.7-2.9-2,.37-.13.62-.38,1-.54,3.26-3.8,6.71-7.4,8.7-12.46a1.68,1.68,0,0,1,2.15,1.07c-1.58,2.69-2.9,4.57-4.73,7.2,4.23-1.71,9.92-3.93,13.54-5.59.19,0,.25.18.22.43.19,0,.38-.42,0-.32a1.93,1.93,0,0,1,1.5-.43c-.23-.75,2-.22,2.36-1.07.19.08,0,.2,0,.32.33-.09.34-.21.21-.54a29.61,29.61,0,0,0,4-1.29c.13.34-.17.26-.21.43.76-.7,1.49-.67,2.69-1.18.34-.09.22.28.43.32.09-.14-.2-.52.22-.11.15-.11,0-.18.22-.32.13,0,.09.2.11.32a1.76,1.76,0,0,1,.86-.75c.33.11-.13.29-.11.43.21,0,.7-.25.43.11.5-.19-.13-.22-.11-.54,1.24-.07,2.49-.82,3.87-.86,0,.17-.1.18-.11.32.09-.07.19-.13.22,0,.14,0,.14-.32,0-.32.13-.13.53-.53.75-.21.24-.06-.13-.17.11-.32C496.38,369.49,499.43,367.5,499.94,369.53Z"/><text class="cls-20" transform="translate(472.51 60)"><tspan class="cls-21">A</tspan><tspan x="10.84" y="0">ction</tspan></text><path class="cls-19" d="M494.08,120.28c.45-.5,1.82-.29,2.35.4.3.4,0,.65.08,1.21a28.81,28.81,0,0,0,2.1,5.67,32.48,32.48,0,0,0,4,7.12c.91,1.24,2.08,2.29,3,3.48,1.4,1.83,2.19,3.83,3.32,5.58a1.21,1.21,0,0,1-1.21,1.54c-2.7-1-5.4-.8-8.09-1.94-.33,1.51-.24,3.45-1,4.69a4.68,4.68,0,0,1-.65,3.4c.14,1.62-.81,3.29-1,4.86-.5.41-.32,1.24-.73,1.38-.1,2.08-1.54,4.44-2.1,6.64-1.38,1.94-1.92,4.2-3.4,5.5-.14.16.21.32,0,.49-4.66,7-13,12.18-20.07,17.32-.38.24.3.49-.08.73-1.45.74-2.43-1-3.56-2.1-.25-2.75-3.14-5.57-5.18-8.42.12-.19-.25-.38.08-.57-1.23-.64-1.25-2.63-2-3.8.74-.86.86-1,1.86-.57,6.67.86,15-5.82,20-11.74,1-1.2,1.74-2.56,2.67-3.8,1.3-1.74,3-3.27,4-5.1a26.44,26.44,0,0,0,2.91-8.26,66.22,66.22,0,0,1-9-2,2.52,2.52,0,0,1-.49-1.62c.24-.21.49,0,.73-.08,5.84-5.33,8.71-13.51,11.25-19.35.07-.17,0-.36,0-.34C494,120.37,494.35,120.27,494.08,120.28Zm1.05,4c-.11-.09-.22-.17-.32,0A50.33,50.33,0,0,1,485,141a35.19,35.19,0,0,0,6.39,1.38c1.07-.95,1.72-.27,2.27-.16.3.47.19,1.16.57,1.38-.89.69-.62,1.63-.81,2.43a30.64,30.64,0,0,1-1.78,5c-1.12,2.64-3.65,5.24-5.59,7.85-.38.52-.67,1.54-1.21,1.21.06,1-1,1.61-1.54,2.35-4.1,5.57-12.22,11.29-18.21,12.55a4.25,4.25,0,0,0-2.43,0c1.44,3.9,5.32,6.93,6.88,10.77a96,96,0,0,0,16.84-13,40.41,40.41,0,0,0,7.85-14.49,73.63,73.63,0,0,0,1.94-7.61c.52-2.67,1.3-5.27,1.3-7.61,0-.71-.49-2.12.49-2.43.42-.13,1.17.58,1.62.81a15.54,15.54,0,0,0,6.56,1.54C503.27,137.15,496.81,130.85,495.13,124.24Z"/><path class="cls-19" d="M293.68,178.61c0,.67-1.08,1.49-1.95,1.37-.5-.07-.46-.46-.92-.8a28.81,28.81,0,0,0-5.49-2.52,32.48,32.48,0,0,0-7.9-2.18c-1.52-.23-3.09-.15-4.58-.34-2.28-.3-4.25-1.16-6.3-1.6a1.21,1.21,0,0,1-.23-1.95c2.59-1.23,4.38-3.25,7.1-4.35-.83-1.31-2.27-2.61-2.63-4a4.68,4.68,0,0,1-1.95-2.86c-1.24-1-1.75-2.9-2.75-4.12.06-.64-.65-1.1-.46-1.49-1.4-1.55-2-4.23-3.21-6.18-.4-2.34-1.61-4.33-1.49-6.3,0-.21-.38-.08-.34-.34-1.68-8.28.58-17.8,1.95-26.44.1-.44-.55-.13-.46-.57.51-1.55,2.46-1,4-1,2.12,1.76,6.16,1.72,9.62,2.29,0,.22.44.09.34.46,1.32-.41,2.74,1,4.12,1.26.09,1.13.13,1.35-.92,1.72-5.33,4.11-6.52,14.75-5.84,22.44.14,1.55.58,3,.8,4.58.31,2.15.21,4.41.8,6.41a26.44,26.44,0,0,0,3.78,7.9,66.22,66.22,0,0,1,7.78-4.92,2.52,2.52,0,0,1,1.49.8c0,.32-.36.32-.46.57-.36,7.9,3.4,15.71,5.72,21.64.07.17.23.28.23.24C293.67,178.49,293.49,178.81,293.68,178.61Zm-3.55-2.06c.14,0,.27,0,.23-.23a50.33,50.33,0,0,1-4.92-18.77,35.19,35.19,0,0,0-5.49,3.55c-.09,1.43-1,1.41-1.49,1.72-.54-.11-1-.68-1.37-.57.14-1.11-.71-1.59-1.14-2.29a30.64,30.64,0,0,1-2.29-4.81c-1.07-2.66-1.13-6.28-1.6-9.5-.1-.63-.62-1.56,0-1.72-.73-.65-.43-1.84-.57-2.75-1-6.84.66-16.62,4-21.75a4.25,4.25,0,0,0,1.72-1.72c-3.78-1.74-8.66-1.14-12.48-2.75A96,96,0,0,0,262,136a40.41,40.41,0,0,0,4.69,15.8,73.63,73.63,0,0,0,4,6.75c1.53,2.26,2.8,4.65,4.46,6.3.51.5,1.85,1.16,1.37,2.06-.21.4-1.24.41-1.72.57a15.54,15.54,0,0,0-5.72,3.55C275.24,173.18,284.27,173.07,290.13,176.55Z"/><path class="cls-22" d="M279.23,28.85c.13.23,11.72-7,11.83-6.83,2.57,4.46-26.43,21.79-23.6,26.69,1.65,2.86,29.77-20.21,31.08-17.94,2.53,4.39-39.2,23.11-37.11,26.73,1.37,2.37,33.76-25,36.14-20.86,4.55,7.88-48,31.3-44.51,37.3,2.87,5,43.86-32,46.74-27C306.11,57.9,240.48,81,244.45,87.9c3.85,6.67,56.49-45.11,61.9-35.74,5.27,9.13-76.45,36.69-70.66,46.72,3.16,5.48,66.69-52.8,72.88-42.08,5.7,9.87-72.54,36.12-66.51,46.57,4,7,67.35-50.92,72.56-41.89,5.71,9.89-71.25,33.31-65.42,43.4,4.06,7,62-45.42,66.2-38.22,3.54,6.14-42.38,27.3-38,34.85,3.65,6.32,42.92-31.81,46-26.54,2.26,3.92-31.21,24-29.4,27.14,2.21,3.83,31.68-22.74,33.61-19.4,1.46,2.52-21.83,16.23-20.12,19.2.69,1.19,20.72-13.79,21.51-12.42,1.24,2.15-11.8,11.73-10.62,13.79.17.3,11.09-6.77,11.25-6.49"/><text class="cls-5" transform="translate(262.86 75)"><tspan class="cls-23">D</tspan><tspan x="9.89" y="0">ata</tspan></text></g></svg>