<svg xmlns="http://www.w3.org/2000/svg" viewBox="0 0 800 480"><defs><style>.cls-1,.cls-28,.cls-29,.cls-30{fill:none;}.cls-2{fill:#f3f3f3;}.cls-3{fill:#eee;}.cls-4{font-size:36px;}.cls-17,.cls-32,.cls-4{fill:#fff;}.cls-17,.cls-4{font-family:AppleSpice, AppleSpice;}.cls-5{letter-spacing:0.05em;}.cls-6{letter-spacing:0.02em;}.cls-7{letter-spacing:0em;}.cls-8{letter-spacing:0.01em;}.cls-9{letter-spacing:-0.02em;}.cls-10{letter-spacing:0.03em;}.cls-11{letter-spacing:0em;}.cls-12{letter-spacing:-0.03em;}.cls-13{letter-spacing:0.03em;}.cls-14{letter-spacing:0.04em;}.cls-15{letter-spacing:-0.02em;}.cls-16{fill:#f7f7f7;}.cls-17{font-size:21px;}.cls-18{letter-spacing:0.02em;}.cls-19{letter-spacing:0.04em;}.cls-20{letter-spacing:0em;}.cls-21{letter-spacing:0.02em;}.cls-22{letter-spacing:-0.02em;}.cls-23{letter-spacing:0.02em;}.cls-24{letter-spacing:0em;}.cls-25{letter-spacing:-0.02em;}.cls-26{letter-spacing:0.03em;}.cls-27{letter-spacing:0.01em;}.cls-28{stroke:#8dc63f;}.cls-28,.cls-29,.cls-30{stroke-linecap:round;stroke-linejoin:round;stroke-width:3px;}.cls-29{stroke:#d1d3d4;}.cls-30{stroke:#27aae1;}.cls-31{fill:#f2f2f2;}.cls-33{fill:#ebebeb;}</style></defs><title>Observable</title><g id="Слой_1" data-name="Слой 1"><g id="Background"><rect class="cls-1" width="800" height="480"/></g></g><g id="Слой_2" data-name="Слой 2"><path class="cls-2" d="M576.13,160.29c-.69-1.39-4.21-2-5.95-2.48a86.71,86.71,0,0,0-9.08-2.29c.77,1.2,2.64,1.1,3.87,1.43,1.71.46,3.76,1.25,5.28,1.47.07.18,0,.43.07.61.9.35,2.5.78,3.35,1.17.46.21,1.47.87,1.55,1.26.22,1.09-2.06,3.1-3.08,4.24-1.52,1.71-3,3.2-3.73,4.89a6.93,6.93,0,0,0-1.64,1.2c-.56-.28-1.33.18-1.66.84,1.47.5,2.06-1.37,3.13-1l.15-.55c2.71-1.71,4.82-4.5,6.66-7.75A2.62,2.62,0,0,0,576.13,160.29ZM568.92,170c1.05-1.31,2.23-2.4,3.28-3.71A10.21,10.21,0,0,1,568.92,170Z"/><path class="cls-2" d="M571.21,163.07c0,.19-.16.16-.2.3-10.23-.73-18.11,1.44-27.75,1.76a2.22,2.22,0,0,1,.14-.91c9.86.17,17.78-2.11,27.69-1.54C571.15,162.79,571.06,163,571.21,163.07Z"/><path class="cls-2" d="M569.58,163.8c-.14.61-1.15.25-1.61.26-2.51.08-5.81.53-8,.73-.7-.1-1.51-.21-1.52-.07-.53.21-1.31,0-1.75.34a15.12,15.12,0,0,0-3.5.21,37.07,37.07,0,0,0-4.82,1.15c-2.11-.22-4.45,1.53-6.45,1a1.3,1.3,0,0,1,1.67-.48c1.39-1,4.14-.87,5.92-1.67,2.07.09,3.49-.76,5.75-.65C559.42,163.89,564.84,164.2,569.58,163.8Z"/><path class="cls-3" d="M634.7,413c.22.12.41-.09.41.13-2.06-.15-5.84-.92-7.43-.53-.35-.08-.35-.34-.59-.48-.45.13-.17.45-.48.59-.9-.78-1.57.27-1.53-.33-.33.18-.28,0-.3.5-.28-.28-.69.22-.68-.21a.39.39,0,0,0,.49-.14c-1.33-.2-3.35.6-4.17.49,0,0,.09-.36-.05-.31s-.2.8-.44.46c-.14-.59-1.93.71-2.2-.09-.3.78-1.06-.14-1.65.53,0-.16.26-.15.08-.27a18.37,18.37,0,0,1-5.47.83c-.64,0-1.25.5-1.65.53s-.61-.26-.65.05c0-.12-.2,0-.39-.08-.48-.06-3,.52-4.71.32-.39.08.12.48-.31.5-.22-.12-.41.1-.41-.13s.67-.09.26-.36c-2.11.66-5.25.28-6.81,1.3.06-.17.23-.13.26-.37a12.64,12.64,0,0,0-2.2.36c-1.92.43-4.45-.05-5.1,1.09.27.13.15.45.42.58.78-.48,2.55.09,3.32-.16.53-.17-.32-.37.26-.36.19,0,.87.84,1.13.2,4.52.69,8.25-.94,12.17-.83.36-.15.25-.38.44-.46.07.49.71-.22.81.25a.66.66,0,0,0,0-.45c.18.13.28.31.46.44a106.23,106.23,0,0,1,14.76-1.51c.44-.54,2.25,0,2.25,0-.3.49-1-.51-1.57.26a65.93,65.93,0,0,0-8,.79c-6.22.36-10.91,2.49-17.35,2.19-.16.31.16.37-.08.72,4.15.71,9-.79,13-1.74,0,.17.17.21.36.26,1.79-.91,4.23-.59,6.18-1.2.82.08,2,.15,2.29-.18,4.27-.16,5.7-.81,10.1-.87.07-.15.1-.39.26-.36,1.47.34,3.28-.52,5.12-.19,0-.55.76-.09.48-.59.2.4.5,0,1,.3.29-.56-.31,0-.19-.36.38-.21.35.3.77.39,2.05-.66,3.87.4,6.06-.34.3.48,1.67.76,2-.13C641.62,412.3,638.1,413.09,634.7,413ZM597,416.61c.05-.34.59.27.53-.28s-.33,0-.54-.17c.34-.81.78.56.81.25C598.07,416.71,597,417,597,416.61Zm1.13-.34A.75.75,0,0,1,598,416C598.13,416.08,598.11,416.17,598.1,416.26Zm1.69-.12c-.36.25-1.3.71-1.64.21h-.06v-.09a.37.37,0,0,0,.05.09c.46,0,0-.55.56-.1.36.08-.11-.29.17-.54a4.53,4.53,0,0,1,1.66-.08c-.38.49-1.4-.22-1.65.53C599.34,416.39,599.54,415.66,599.79,416.15Zm1.39-.16a1.23,1.23,0,0,1-1.25.2c.61-.32.82-.05,1.43-.3C601.32,416.15,601.14,416.13,601.18,416Zm2.1-.54a1.75,1.75,0,0,1,1.43-.3C604.35,415.47,603.71,415.25,603.28,415.45Zm19.31-1.28c-.21.47-1.49.6-2,.13,0-.13.2-.06.31-.05-.05-.48-.73,0-.77-.39-.39.51.76.21.37.71-.46,0-.48-.28-.59-.48-.19.08-.08.31-.44.46-.5,0-.52-.33-.73-.53-.5.32-1.28.08-1.66.61a7.69,7.69,0,0,0,1.57-.34c.17.18.06.5.06.76-.54-.14.11-.2-.14-.49-.29-.05-.22.58-.48.59-.4-.18-.75.11-1-.3,0,.3-.58.25-1.16.38-.3-.46-1-.2-1.31-.11-1.18.39-4.25-.31-4.88.86a.92.92,0,0,0-.72-.08c-.29-.23.52-.14.67-.24-.48-.26-1.63.06-2.29.18.82-.67,2.36-.63,3.94-.71.17,0,.19-.21.26-.36.41.7.84-.39,1.13.2a3.24,3.24,0,0,1,2.2-.36c.33,0-.1-.26.26-.36a54.79,54.79,0,0,1,6-.66c0-.3.21-.33.3-.5.17.18-.1.19,0,.59,2.08-.85,5.91-.19,7.32-.55.22-.31.36.53.68.21.24.34-.85-.05-.89.47-.19-.12.11-.16.13-.41-.69.28-1.72-.11-2.24.49,0-.75-.69.21-.91-.43a22.91,22.91,0,0,1-4,.39c-.06.26.43.23.46.44.08-.21.29-.32.71-.37.52.21-.3.42.28.53C622.71,415,622.87,414.32,622.59,414.17Zm7.47.39c-.34-.17-.3-.66-.59,0-1.67-.77-3.19.33-4.77-.45,0,.55.52.27.91.43-.08.35-1,.07-1.09-.34a1.64,1.64,0,0,1-1.39.16c.92-1.08,3.36.25,4.53-.67,2.37.68,3.26-.33,5.58.25C632.31,414.37,630.81,413.76,630.06,414.56Zm8.35-.53c-1-.58-1.56.08-2.88-.3a3.59,3.59,0,0,1,2.56-.1,5.54,5.54,0,0,1,3,0C640.32,414.19,639.1,413.11,638.41,414Z"/><text class="cls-4" transform="translate(515.33 79.67)">Ob<tspan class="cls-5" x="37.44" y="0">s</tspan><tspan class="cls-6" x="55.83" y="0">e</tspan><tspan class="cls-7" x="77.11" y="0">rv</tspan><tspan class="cls-8" x="112.25" y="0">a</tspan><tspan class="cls-9" x="131.83" y="0">b</tspan><tspan class="cls-10" x="149.18" y="0">l</tspan><tspan class="cls-11" x="156.85" y="0">e</tspan></text><text class="cls-4" transform="translate(86.67 97)"><tspan class="cls-12">G</tspan><tspan class="cls-13" x="18.22" y="0">e</tspan><tspan class="cls-14" x="40.14" y="0">n</tspan><tspan class="cls-6" x="58" y="0">e</tspan><tspan x="79.27" y="0">rator</tspan></text><text class="cls-4" transform="translate(94 359)">Function</text><text class="cls-4" transform="translate(523.33 376.33)">Pro<tspan class="cls-15" x="58.57" y="0">m</tspan><tspan class="cls-7" x="83.09" y="0">i</tspan><tspan class="cls-5" x="88.45" y="0">s</tspan><tspan class="cls-11" x="106.85" y="0">e</tspan></text><path class="cls-16" d="M398,381.92c-1.65-1.31-6.18-.2-9-.58-1-10.82-3.7-20.2-3.86-31.67a1.73,1.73,0,0,0-2.45-.12,50.42,50.42,0,0,0,.58,7.36c.36,2.48,1,5.06.82,6.54-.51-3.41-1.31-7.9-1.87-11.57a1.91,1.91,0,0,0-2.57-.35c2.24,9.33,3.43,19.31,5.38,29.8-1.29-.08-2,.32-2.8-.12-.58.76-1.77.93-1.17,2-.78,0-1,.61-1.4,1.05,4.22,5.48,7.22,12.18,9.93,19.16a2,2,0,0,0,2.1-.35,34.6,34.6,0,0,1,2.8-11.45c1-2.3,2.25-4.27,3-6.43C397.94,384.23,398.46,382.46,398,381.92Zm-12-7.36c.58,1,0,1.3,0,0Zm-1.29-8.06c-.33-.49-.28-1.83-.58-2.92A5.38,5.38,0,0,1,384.73,366.5Zm0,.47c.54,1,.53,2.59.82,3.86C384.94,369.87,385.06,368.19,384.73,367ZM382,383.44c1.54.95,2.13,2.85,2.92,4.56C383.93,386.53,383,384.94,382,383.44Zm3.86.82c-.43-.67-1.38-.26-1.52-1.05,1.07-.16,1.46,0,2.69-.12-.13.27.21.92.23,1.4,1.27,2,1.46,5.35,1.87,8.53C388,389.65,387.18,387.29,385.9,384.26Zm4.91,4.09c-.34-2-.78-3.61-1.05-5.26.23.28.56-.19.82.12-.3.3.16.79.23,1.4C391,385.91,390.74,387.55,390.8,388.35Zm2.1.7A29.9,29.9,0,0,0,393,383c.48.12.56,0,1.17,0A32.54,32.54,0,0,1,392.91,389.05Z"/><text class="cls-17" transform="translate(499.33 245.67)"><tspan class="cls-18">a</tspan><tspan x="11.68" y="0">s</tspan><tspan class="cls-19" x="21.31" y="0">y</tspan><tspan class="cls-20" x="32.55" y="0">nc</tspan><tspan class="cls-21" x="52.71" y="0">h</tspan><tspan x="64.22" y="0">ronous</tspan></text><text class="cls-17" transform="translate(390.31 214.22) rotate(-90)"><tspan class="cls-22">m</tspan><tspan x="14.41" y="0">u</tspan><tspan class="cls-23" x="24.91" y="0">l</tspan><tspan class="cls-24" x="29.15" y="0">ti</tspan><tspan class="cls-25" x="40.93" y="0">p</tspan><tspan class="cls-26" x="51.43" y="0">l</tspan><tspan x="55.9" y="0">e</tspan></text><text class="cls-17" transform="translate(379.7 290.99) rotate(90)">s<tspan class="cls-27" x="9.64" y="0">i</tspan><tspan x="12.89" y="0">ng</tspan><tspan class="cls-26" x="33.35" y="0">l</tspan><tspan x="37.82" y="0">e</tspan></text><path class="cls-16" d="M690,230.84a34.6,34.6,0,0,1-11.45-2.8c-2.3-1-4.27-2.25-6.43-3-1-.36-2.74-.88-3.27-.47-1.31,1.65-.2,6.18-.58,9-10.82,1-20.2,3.7-31.67,3.86a1.73,1.73,0,0,0-.12,2.45,50.42,50.42,0,0,0,7.36-.58c2.48-.36,5.06-1,6.54-.82-3.41.51-7.9,1.31-11.57,1.87a1.91,1.91,0,0,0-.35,2.57c9.33-2.24,19.31-3.43,29.8-5.37-.08,1.29.32,2-.12,2.8.76.58.93,1.77,2,1.17,0,.78.61,1,1.05,1.4,5.48-4.22,12.18-7.22,19.16-9.93A2,2,0,0,0,690,230.84Zm-39.49,7.59a5.38,5.38,0,0,1,2.92-.58C653,238.18,651.62,238.13,650.53,238.43Zm3.39-.58c1-.54,2.59-.53,3.86-.82C656.82,237.63,655.14,237.51,653.92,237.85Zm7.59-1.29c1-.58,1.3,0,0,0Zm8.41-8.18a32.54,32.54,0,0,1,6.08,1.29,29.9,29.9,0,0,0-6.08-.12C670,229.07,669.89,229,669.92,228.38Zm.23,3.62c.3.3.79-.16,1.4-.23,1.3-.17,2.94.06,3.74,0-2,.34-3.61.78-5.26,1.05C670.32,232.59,669.85,232.27,670.16,232Zm.23,8.53c.95-1.54,2.85-2.13,4.56-2.92C673.48,238.64,671.89,239.54,670.39,240.53Zm.82-3.86c-.67.43-.26,1.38-1.05,1.52-.16-1.07,0-1.46-.12-2.69.27.13.92-.21,1.4-.23,2-1.27,5.35-1.46,8.53-1.87C676.59,234.55,674.24,235.4,671.21,236.68Z"/><path class="cls-16" d="M383.57,94.88c.58-.76,1.77-.93,1.17-2,.78,0,1-.61,1.4-1.05-4.22-5.48-7.22-12.18-9.93-19.16a2,2,0,0,0-2.1.35,34.6,34.6,0,0,1-2.8,11.45c-1,2.3-2.25,4.27-3,6.43-.36,1-.88,2.74-.47,3.27,1.65,1.31,6.18.2,9,.58,1,10.82,3.7,20.2,3.86,31.66a1.73,1.73,0,0,0,2.45.12,50.42,50.42,0,0,0-.58-7.36c-.36-2.48-1-5.06-.82-6.54.51,3.41,1.31,7.9,1.87,11.57a1.91,1.91,0,0,0,2.57.35c-2.24-9.33-3.43-19.31-5.37-29.8C382.06,94.84,382.77,94.45,383.57,94.88Zm-10.75-1.75c-.48-.12-.56,0-1.17,0a32.54,32.54,0,0,1,1.29-6.08A29.9,29.9,0,0,0,372.83,93.13Zm2.45-.23c.3-.3-.16-.79-.23-1.4-.17-1.3.06-2.94,0-3.74.34,2,.78,3.61,1.05,5.26C375.86,92.73,375.54,93.21,375.28,92.9Zm8.53-.23c-1.54-.95-2.13-2.85-2.92-4.56C381.91,89.57,382.82,91.16,383.81,92.66Zm-4,8.88c-.58-1,0-1.3,0,0ZM378.78,93c.13-.27-.21-.92-.23-1.4-1.27-2-1.46-5.35-1.87-8.53,1.14,3.38,2,5.73,3.27,8.76.43.67,1.38.26,1.52,1.05C380.4,93.05,380,92.9,378.78,93Zm2.34,16.59c.33.49.28,1.83.58,2.92A5.37,5.37,0,0,1,381.12,109.61Zm0-.47c-.54-1-.53-2.59-.82-3.86C380.91,106.24,380.78,107.92,381.12,109.14Z"/><text class="cls-17" transform="translate(135.33 259)">s<tspan class="cls-19" x="9.64" y="0">y</tspan><tspan class="cls-20" x="20.87" y="0">nc</tspan><tspan class="cls-21" x="41.03" y="0">h</tspan><tspan x="52.54" y="0">ronous</tspan></text><path class="cls-16" d="M102.13,249.78a50.42,50.42,0,0,0-7.36.58c-2.48.36-5.06,1-6.54.82,3.41-.51,7.9-1.31,11.57-1.87a1.91,1.91,0,0,0,.35-2.57c-9.33,2.24-19.31,3.43-29.8,5.37.08-1.29-.32-2,.12-2.8-.76-.58-.93-1.77-2-1.17,0-.78-.61-1-1.05-1.4C61.95,251,55.25,254,48.27,256.67a2,2,0,0,0,.35,2.1,34.6,34.6,0,0,1,11.45,2.8c2.3,1,4.27,2.25,6.43,3,1,.36,2.74.88,3.27.47,1.31-1.65.2-6.18.58-9,10.82-1,20.2-3.7,31.67-3.86A1.73,1.73,0,0,0,102.13,249.78Zm-33.89-.7c-.95,1.54-2.85,2.13-4.56,2.92C65.16,251,66.75,250.07,68.25,249.08Zm-9.58,7.13c3.38-1.14,5.73-2,8.76-3.27.67-.43.26-1.38,1.05-1.52.16,1.07,0,1.46.12,2.69-.27-.13-.92.21-1.4.23C65.15,255.61,61.85,255.79,58.67,256.21Zm9.81,1.4c-.3-.3-.79.16-1.4.23-1.3.17-2.94-.06-3.74,0,2-.34,3.61-.78,5.26-1.05C68.32,257,68.79,257.35,68.48,257.61Zm.23,3.62a32.54,32.54,0,0,1-6.08-1.29,29.9,29.9,0,0,0,6.08.12C68.59,260.54,68.75,260.62,68.72,261.23Zm8.41-8.18c-1,.58-1.3,0,0,0Zm3.74-.47c1-.6,2.63-.48,3.86-.82C83.71,252.31,82.13,252.3,80.87,252.59Zm4.32-.82c.49-.33,1.83-.28,2.92-.58A5.38,5.38,0,0,1,85.19,251.77Z"/><polyline class="cls-28" points="479.94 400.33 483.55 398.25 477.26 406.13 488.57 399.6 481.15 408.46 494.79 400.58 481.14 411.9 504.07 398.66 479.35 415.71 507.13 399.67 481.83 417.33 511.36 400.28 477.78 422.12 507.19 405.14 481.39 423.58 507.71 408.38 477.88 429.4 509.97 410.87 485.69 427.97 507.75 415.23 492.39 428.65 512.24 417.19 497.62 428.63 507.33 423.02 502.85 429 513.05 423.11 504.69 430.88 513.86 425.59"/><polyline class="cls-29" points="566.27 400.33 569.88 398.25 563.59 406.13 574.9 399.6 567.48 408.46 581.13 400.58 567.47 411.9 590.4 398.66 565.68 415.71 593.47 399.67 568.16 417.33 597.69 400.28 564.12 422.12 593.52 405.14 567.72 423.58 594.05 408.38 564.21 429.4 596.3 410.87 572.02 427.97 594.09 415.23 578.72 428.65 598.57 417.19 583.95 428.63 593.67 423.02 589.18 429 599.39 423.11 591.02 430.88 600.19 425.59"/><polyline class="cls-30" points="634.8 400.33 638.41 398.25 632.12 406.13 643.43 399.6 636.01 408.46 649.65 400.58 636 411.9 658.93 398.66 634.21 415.71 661.99 399.67 636.69 417.33 666.22 400.28 632.64 422.12 662.05 405.14 636.25 423.58 662.58 408.38 632.74 429.4 664.83 410.87 640.55 427.97 662.61 415.23 647.25 428.65 667.1 417.19 652.48 428.63 662.2 423.02 657.71 429 667.92 423.11 659.55 430.88 668.72 425.59"/><path class="cls-31" d="M555.78,418.35c-.37-.09,0-.25-.1-.62a1.18,1.18,0,0,0-1.13.31c0-.36-.3-.46-.31-.82-2.42-3.75-4.65-7.91-7.52-11-.52-.56-1.25-1.49-2.16-1.24a1.6,1.6,0,0,0,1,1.55,56.82,56.82,0,0,0,4.74,6.49,31.44,31.44,0,0,0,2.47,4.12,6.91,6.91,0,0,1-2.89-1.13c-2.85-1.3-7.32-2.35-11-3.3-1.48-.38-3.08-.53-4.43-1-4.68-1.73-9.07.23-13.19-.1-2.07-.16-3.7-.91-5.77-1.13-.09.4-.22.38-.1.82,1.14.24,2.19,0,3.71.62-.25.23-1,0-1,.41.17.1.24.28.1.41,1.76.37,4.47-.37,6.29.1.82.21,1.77.89,2.58.62a6.28,6.28,0,0,1-1.44-.62c3.41-.14,6.94,1.16,10.72,1.65,2.36.3,4.66.55,6.8,1,.44.1,1.24.19,1.24.21.65-.13,1.29.3,2.16.52a17.37,17.37,0,0,1,3.5.93c1.3,0,2.12,1.22,3.2,1.75-3.62,1.43-7.33,3-11.75,3.3.1.42-.25.66,0,.93,3.88-.32,8.3-2.39,13.19-3.3-.13-.34.33-.08.21-.41.35-.24-.54-.33-.21-.52S555.62,418.73,555.78,418.35Zm-9.17-10.92c.41-.06.72.47.93.72a42.66,42.66,0,0,1,4.95,7.73A76.73,76.73,0,0,0,546.61,407.43ZM539,413c.31.11-1.43-.05-1.65-.52C537.82,412.71,538.48,412.77,539,413Zm-7.61-1.7c.1-.19.41-.1.6,0s-.74.09-.93-.1C531,411.05,531.45,411.08,531.38,411.3Zm6.27,2.62c-4.34-.63-9.38-1.95-14-1.86,1.6-.18,3.57-.55,5.46-.62,3.43-.12,7.33,1.38,11.13,2.27.64.15,1.26.36,1.86.52,1.64.43,3.34.57,4.84,1.44A59.67,59.67,0,0,0,537.64,413.92Z"/><polyline class="cls-28" points="55.71 391.24 59.32 389.16 53.03 397.04 64.34 390.51 56.92 399.36 70.57 391.49 56.91 402.81 79.84 389.57 55.12 406.62 82.91 390.57 57.61 408.24 87.13 391.19 53.56 413.02 82.96 396.05 57.16 414.49 83.49 399.29 53.65 420.31 85.74 401.78 61.46 418.88 83.53 406.14 68.16 419.56 88.01 408.1 73.39 419.54 83.11 413.93 78.62 419.91 88.83 414.02 80.46 421.79 89.63 416.5"/><path class="cls-31" d="M131.56,409.26c-.37-.09,0-.25-.1-.62a1.18,1.18,0,0,0-1.13.31c0-.36-.3-.46-.31-.82-2.42-3.75-4.65-7.91-7.52-11-.52-.56-1.25-1.49-2.16-1.24a1.6,1.6,0,0,0,1,1.55,56.8,56.8,0,0,0,4.74,6.49,31.43,31.43,0,0,0,2.47,4.12,6.91,6.91,0,0,1-2.89-1.13c-2.85-1.3-7.32-2.35-11-3.3-1.48-.38-3.08-.53-4.43-1-4.68-1.73-9.07.23-13.19-.1-2.07-.16-3.7-.91-5.77-1.13-.09.4-.22.38-.1.82,1.14.24,2.19,0,3.71.62-.25.23-1,0-1,.41.17.1.24.28.1.41,1.76.37,4.47-.37,6.29.1.82.21,1.77.89,2.58.62a6.28,6.28,0,0,1-1.44-.62c3.41-.14,6.94,1.16,10.72,1.65,2.36.3,4.66.55,6.8,1,.44.1,1.24.19,1.24.21.65-.13,1.29.3,2.16.52a17.37,17.37,0,0,1,3.5.93c1.3,0,2.12,1.22,3.2,1.75-3.62,1.43-7.33,3-11.75,3.3.1.42-.25.66,0,.93,3.88-.32,8.3-2.39,13.19-3.3-.13-.34.33-.08.21-.41.35-.24-.54-.33-.21-.52S131.39,409.64,131.56,409.26Zm-9.17-10.92c.41-.06.72.47.93.72a42.65,42.65,0,0,1,4.95,7.73A76.72,76.72,0,0,0,122.39,398.33Zm-7.63,5.57c.31.11-1.43-.05-1.65-.52C113.59,403.62,114.26,403.68,114.76,403.9Zm-7.61-1.7c.1-.19.41-.1.6,0s-.74.09-.93-.1C106.78,402,107.22,402,107.15,402.2Zm6.27,2.62c-4.34-.63-9.38-1.95-14-1.86,1.6-.18,3.57-.55,5.46-.62,3.43-.12,7.33,1.38,11.13,2.27.64.15,1.26.36,1.86.52,1.64.43,3.34.57,4.84,1.44A59.67,59.67,0,0,0,113.42,404.83Z"/><polyline class="cls-30" points="134.61 393.75 138.22 391.67 131.93 399.55 143.23 393.02 135.81 401.88 149.46 394 135.8 405.33 158.74 392.08 134.01 409.13 161.8 393.09 136.5 410.75 166.02 393.7 132.45 415.54 161.85 398.56 136.06 417 162.38 401.81 132.54 422.82 164.63 404.3 140.35 421.39 162.42 408.65 147.05 422.07 166.9 410.61 152.28 422.05 162 416.44 157.51 422.42 167.72 416.53 159.35 424.3 168.52 419.01"/><path class="cls-32" d="M182.58,132.25a35,35,0,0,0-11.75,1.16,21.88,21.88,0,0,0-8,4.79,81.25,81.25,0,0,0-5.95,6.68c-1.37,1.63-2.76,2.81-3.34,4.79-.85.62-1.75,3-.44,4.06,1.2.37,3-1.38,1.89-2.47,5.36-8,11.65-15.7,22.06-16.4a44,44,0,0,1,5.22.15c2.9.16,7.9,1.27,9.58,4.06,1.45,2.41,2.21,7.11,1.89,10a17.79,17.79,0,0,1-2.61,7.4c-.28.47-1.29,1.46-1.31,1.74-.09,1.25,1.4,1.5.87,2.47-1.65-3.31-3.82-8-6.38-11.61-1-1.4-2.61-4.9-4.21-2.32,1.26,3.32,3.45,4.84,5.22,7.55.9,2.68,2.1,5.05,3,7.69.12.41-.21.37-.15.73.56.8.94,1.77,2,2,1.9-1.6,4.21-4.44,6.82-6.67,1.18-1,2.32-1.84,3.48-2.9s3.91-2.27,2.18-4.21c-1.72-.33-2.81,1.15-4.21,2.47-.94.88-1.93,1.93-2.76,2.61a17.08,17.08,0,0,0-2.32,1.89c-.16-.17.21-1,.73-1-.27-1,.54-1.9.87-2.9,2.71-8.34-.09-20.73-9.87-21-.44-.47-2.05-.86-2.61-.29C182.36,132.63,182.63,132.5,182.58,132.25Z"/><polyline class="cls-28" points="47.41 163.57 51.02 161.49 44.73 169.37 56.04 162.84 48.62 171.7 62.26 163.82 48.61 175.15 71.54 161.9 46.82 178.95 74.61 162.91 49.3 180.57 78.83 163.52 45.26 185.36 74.66 168.38 48.86 186.82 75.19 171.63 45.35 192.64 77.44 174.12 53.16 191.21 75.22 178.47 59.86 191.89 79.71 180.43 65.09 191.87 74.81 186.26 70.32 192.24 80.53 186.35 72.16 194.12 81.33 188.83"/><path class="cls-31" d="M123.26,181.59c-.37-.09,0-.25-.1-.62a1.18,1.18,0,0,0-1.13.31c0-.36-.3-.46-.31-.82-2.42-3.75-4.65-7.91-7.52-11-.52-.56-1.25-1.49-2.16-1.24a1.6,1.6,0,0,0,1,1.55,56.82,56.82,0,0,0,4.74,6.49,31.44,31.44,0,0,0,2.47,4.12,6.91,6.91,0,0,1-2.89-1.13c-2.85-1.3-7.32-2.35-11-3.3-1.48-.38-3.08-.53-4.43-1-4.68-1.73-9.07.23-13.19-.1-2.07-.16-3.7-.91-5.77-1.13-.09.4-.22.38-.1.82,1.14.24,2.19,0,3.71.62-.25.23-1,0-1,.41.17.1.24.28.1.41,1.76.37,4.47-.37,6.29.1.82.21,1.77.89,2.58.62a6.28,6.28,0,0,1-1.44-.62c3.41-.14,6.94,1.16,10.72,1.65,2.36.3,4.66.55,6.8,1,.44.1,1.24.19,1.24.21.65-.13,1.29.3,2.16.52a17.38,17.38,0,0,1,3.5.93c1.3,0,2.12,1.22,3.2,1.75-3.62,1.43-7.33,3-11.75,3.3.1.42-.25.66,0,.93,3.88-.32,8.3-2.39,13.19-3.3-.13-.34.33-.08.21-.41.35-.24-.54-.33-.21-.52S123.09,182,123.26,181.59Zm-9.17-10.92c.41-.06.72.47.93.72a42.65,42.65,0,0,1,4.95,7.73A76.72,76.72,0,0,0,114.08,170.67Zm-7.63,5.57c.31.11-1.43-.05-1.65-.52C105.29,176,106,176,106.46,176.23Zm-7.61-1.7c.1-.19.41-.1.6,0s-.74.09-.93-.1C98.48,174.29,98.92,174.33,98.85,174.54Zm6.27,2.62c-4.34-.63-9.38-1.95-14-1.86,1.6-.18,3.57-.55,5.46-.62,3.43-.12,7.33,1.38,11.13,2.27.64.15,1.26.36,1.86.52,1.64.43,3.34.57,4.84,1.44A59.66,59.66,0,0,0,105.12,177.16Z"/><polyline class="cls-30" points="126.3 166.09 129.91 164 123.62 171.89 134.93 165.36 127.51 174.21 141.16 166.33 127.5 177.66 150.44 164.42 125.71 181.46 153.5 165.42 128.2 183.08 157.72 166.04 124.15 187.87 153.55 170.89 127.75 189.34 154.08 174.14 124.24 195.16 156.33 176.63 132.05 193.72 154.12 180.99 138.75 194.41 158.6 182.95 143.98 194.39 153.7 188.78 149.21 194.76 159.42 188.86 151.05 196.64 160.22 191.34"/><polyline class="cls-30" points="177.16 166.09 180.77 164 174.48 171.89 185.78 165.36 178.37 174.21 192.01 166.33 178.35 177.66 201.29 164.42 176.57 181.46 204.35 165.42 179.05 183.08 208.57 166.04 175 187.87 204.41 170.89 178.61 189.34 204.93 174.14 175.09 195.16 207.19 176.63 182.91 193.72 204.97 180.99 189.61 194.41 209.46 182.95 194.84 194.39 204.55 188.78 200.07 194.76 210.27 188.86 201.91 196.64 211.07 191.34"/><polyline class="cls-30" points="233.08 167.68 239.44 164.01 229.91 173.76 244.44 165.37 233.79 176.09 250.65 166.35 233.78 179.53 259.83 164.49 231.99 183.34 260.77 166.72 234.48 184.96 263.88 167.98 230.43 189.75 259.83 172.77 234.22 191.11 260.35 176.02 232.75 195.74 262.6 178.51 241.62 193.7 260.38 182.87 248.31 194.39 264.86 184.83 253.53 194.37 259.96 190.66 258.5 194.75 265.18 190.89"/><path class="cls-32" d="M238,227.26a35,35,0,0,1-11.75-1.16,21.88,21.88,0,0,1-8-4.79,81.25,81.25,0,0,1-5.95-6.68c-1.37-1.63-2.76-2.81-3.34-4.79-.85-.62-1.75-3-.44-4.06,1.2-.37,3,1.38,1.89,2.47,5.36,8,11.65,15.7,22.06,16.4a44,44,0,0,0,5.22-.15c2.9-.16,7.9-1.27,9.58-4.06,1.45-2.41,2.21-7.11,1.89-10a17.79,17.79,0,0,0-2.61-7.4c-.28-.47-1.29-1.46-1.31-1.74-.09-1.25,1.4-1.5.87-2.47-1.65,3.31-3.82,8-6.38,11.61-1,1.4-2.61,4.9-4.21,2.32,1.26-3.32,3.45-4.84,5.22-7.55.9-2.68,2.1-5.05,3-7.69.12-.41-.21-.37-.15-.73.56-.8.94-1.77,2-2,1.9,1.6,4.21,4.44,6.82,6.67,1.18,1,2.32,1.84,3.48,2.9s3.91,2.27,2.18,4.21c-1.72.33-2.81-1.15-4.21-2.47-.94-.88-1.93-1.93-2.76-2.61a17.08,17.08,0,0,1-2.32-1.89c-.16.17.21,1,.73,1-.27,1,.54,1.9.87,2.9,2.71,8.34-.09,20.73-9.87,21-.44.47-2.05.86-2.61.29C237.79,226.89,238.06,227,238,227.26Z"/><polyline class="cls-28" points="431.9 148.57 435.5 146.49 429.22 154.37 440.52 147.84 433.1 156.7 446.75 148.82 433.09 160.15 456.03 146.9 431.31 163.95 459.09 147.91 433.79 165.57 463.31 148.52 429.74 170.36 459.14 153.38 433.35 171.82 459.67 156.63 429.83 177.64 461.92 159.12 437.64 176.21 459.71 163.47 444.34 176.89 464.19 165.43 449.57 176.87 459.29 171.26 454.81 177.24 465.01 171.35 456.64 179.12 465.81 173.83"/><polyline class="cls-29" points="518.23 148.57 521.84 146.49 515.55 154.37 526.86 147.84 519.44 156.7 533.08 148.82 519.43 160.15 542.36 146.9 517.64 163.95 545.42 147.91 520.12 165.57 549.65 148.52 516.07 170.36 545.48 153.38 519.68 171.82 546 156.63 516.16 177.64 548.26 159.12 523.98 176.21 546.04 163.47 530.68 176.89 550.53 165.43 535.91 176.87 545.62 171.26 541.14 177.24 551.35 171.35 542.98 179.12 552.14 173.83"/><polyline class="cls-30" points="581.81 150.25 585.41 148.16 579.13 156.04 590.43 149.52 583.01 158.37 596.66 150.49 583 161.82 605.94 148.57 581.22 165.62 609 149.58 583.7 167.24 613.22 150.19 579.65 172.03 609.05 155.05 583.26 173.5 609.58 158.3 579.74 179.31 611.83 160.79 587.55 177.88 609.62 165.14 594.25 178.56 614.1 167.1 599.48 178.54 609.2 172.93 604.71 178.91 614.92 173.02 606.55 180.79 615.72 175.5"/><path class="cls-31" d="M507.74,166.59c-.37-.09,0-.25-.1-.62a1.18,1.18,0,0,0-1.13.31c0-.36-.3-.46-.31-.82-2.42-3.75-4.65-7.91-7.52-11-.52-.56-1.25-1.49-2.16-1.24a1.6,1.6,0,0,0,1,1.55,56.8,56.8,0,0,0,4.74,6.49,31.43,31.43,0,0,0,2.47,4.12,6.91,6.91,0,0,1-2.89-1.13c-2.85-1.3-7.32-2.35-11-3.3-1.48-.38-3.08-.53-4.43-1-4.68-1.73-9.07.23-13.19-.1-2.07-.16-3.7-.91-5.77-1.13-.09.4-.22.38-.1.82,1.14.24,2.19,0,3.71.62-.25.23-1,0-1,.41.17.1.24.28.1.41,1.76.37,4.47-.37,6.29.1.82.21,1.77.89,2.58.62a6.28,6.28,0,0,1-1.44-.62c3.41-.14,6.94,1.16,10.72,1.65,2.36.3,4.66.55,6.8,1,.44.1,1.24.19,1.24.21.65-.13,1.29.3,2.16.52a17.37,17.37,0,0,1,3.5.93c1.3,0,2.12,1.22,3.2,1.75-3.62,1.43-7.33,3-11.75,3.3.1.42-.25.66,0,.93,3.88-.32,8.3-2.39,13.19-3.3-.13-.34.33-.08.21-.41.35-.24-.54-.33-.21-.52S507.57,167,507.74,166.59Zm-9.17-10.92c.41-.06.72.47.93.72a42.65,42.65,0,0,1,4.95,7.73A76.72,76.72,0,0,0,498.57,155.67Zm-7.63,5.57c.31.11-1.43-.05-1.65-.52C489.78,161,490.44,161,490.94,161.23Zm-7.61-1.7c.1-.19.41-.1.6,0s-.74.09-.93-.1C483,159.29,483.4,159.33,483.34,159.54Zm6.27,2.62c-4.34-.63-9.38-1.95-14-1.86,1.6-.18,3.57-.55,5.46-.62,3.43-.12,7.33,1.38,11.13,2.27.64.15,1.26.36,1.86.52,1.64.43,3.34.57,4.84,1.44A59.67,59.67,0,0,0,489.6,162.16Z"/><polyline class="cls-30" points="626.81 107.72 630.42 105.63 624.13 113.52 635.43 106.99 628.01 115.84 641.66 107.96 628 119.29 650.94 106.05 626.22 123.09 654 107.05 628.7 124.71 658.22 107.67 624.65 129.5 654.06 112.52 628.26 130.97 654.58 115.77 624.74 136.79 656.83 118.26 632.55 135.35 654.62 122.62 639.25 136.03 659.1 124.58 644.48 136.01 654.2 130.41 649.72 136.39 659.92 130.49 651.55 138.27 660.72 132.97"/><polyline class="cls-30" points="687.27 139.48 690.88 137.4 684.59 145.28 695.9 138.75 688.48 147.6 702.13 139.73 688.47 151.05 711.4 137.81 686.68 154.86 714.47 138.82 689.16 156.48 718.69 139.43 685.12 161.26 714.52 144.29 688.72 162.73 715.05 147.53 685.21 168.55 717.3 150.02 693.02 167.12 715.09 154.38 699.72 167.8 719.57 156.34 704.95 167.78 714.67 162.17 710.18 168.15 720.39 162.26 712.02 170.03 721.19 164.74"/><path class="cls-32" d="M735.74,213.14c-10.38-6.33-16.29-17-28.86-21.06,2.34,12.31-5.59,19-14.83,24.72a34.63,34.63,0,0,1-15.39,5.12c-.53,1-2.44,1-3.57,1.18a148.62,148.62,0,0,1-35.22,2.76c-12.91-.64-22.42-3.1-31.74-5.23-4.82-1.11-9.6-2.17-14.07-3.51-.89-.27-3.84-1.07-3-1.7-.49.17-.71.57-1.64.39-15.91-4.63-30.27-11.16-44.21-17.79-2.07-.34-4.56-1.14-4.84-2.55-.12-.6,2-2.18,3.87-2.21,2.19,0,3.71,1.74,4.84,2.34,8.06,4.31,17.66,7.26,27.24,10.31,26.5,8.45,58.44,12.46,90.16,11.28,10.41-.39,21.23-1.3,29.85-5.52,4.75-3.72,6.51-11.46,7.31-18.44.16-1.36.69-3.25-1.26-3.94-3.21.9-5.53,2.52-8,4-2.58.85-6.71,2.83-9.09,3.78-.47.19-.95.62-1.38.8-1.06.45-2.34.72-3.3,1.19-2.88,1.38-5.48,6.25-8.26,3.17-.21.27-2.15.9-1.91.18-.84-.07-.82-.75-1.33-1.05.14-2.09,2.07-2.28,3.91-3.45s4-3,6.39-4.64c2.57-1.73,4.78-2.93,6.13-5.06,3.44-5.39,5.6-12.83,15.57-11.72a5,5,0,0,1,3.31-1.6c7.22,7.16,15,15.68,22.81,23,7.81,4.23,14.51,9.26,21.42,14.14-1.59,5.09-5.06,1.85-8.17-.33C737.59,212.21,737.08,213,735.74,213.14ZM710.5,189.25c-1.19-1-1.67-2.56-3.46-3.15A4.56,4.56,0,0,0,710.5,189.25ZM699,180.62c-1.24-.14-1.29.67-1.93,1,1,1.16,2.78,1.75,4,2.74,2.66-1.14,3.95.65,6,1.54A21,21,0,0,0,699,180.62ZM687.54,192c3.67-1.32,6.47-3.32,9.94-4.8-.29-.93-1.75-1-2.68-1.48C692.84,188.17,689.89,189.84,687.54,192ZM602.7,216c.13,1.2,2.19,1,3.24,1.29,8.56,2,18.77,4.4,29.56,5.2A138.84,138.84,0,0,0,673.43,220c-4-.26-10.63.28-15.27.38C637,220.87,619.06,218.65,602.7,216Z"/><path class="cls-33" d="M613,112.15c-.49-1.69-2.73-1.27-4.12-1.88a65.29,65.29,0,0,0-8.69-6.41c-1.38-1.39-3.2-2-4.85-3.06-3.79-2.42-7.18-6.68-11.72-7.78.74,1.92,3.21,1.76,4.07,3.54A10.19,10.19,0,0,1,591,98.73c-1.1,0-1.33-1-2.19-1.24a7.13,7.13,0,0,1-1.4.55c.39,2.21,3.44,2.35,5.34,3.84a13.16,13.16,0,0,0,1.39,1.52c.52,0,.67.32,1-.1-.51.6.28.42.3,1a70.81,70.81,0,0,1,5.83,4.62c-2.56-1-6.26-.84-9.84-1.13-.16.52-.95-.32-.76.69-.73,0,.37-.72-.26-.6-7.35.15-13.72,3.21-19.4,5-.67.25,0,.46-.33.86-.25-1.12-3.27,1.25-4.79,1.91-1,.43-2.15.47-3,.91s-1.64,1.25-2.53,1.69-2.17.51-3,.91c-.39.18-.44.8-1,.51a1.91,1.91,0,0,0,.16.28c.23.12.22.32,0,0a.69.69,0,0,0-.35-.05,22.08,22.08,0,0,0-3.58,1.59,77.11,77.11,0,0,0-10.86,7.67c-1.69,1.4-3.83,2.49-3.56,3.86-.22-.12-.26-.45-.66-.35-3.69,5.29-9.52,9.54-10,16.9.24-.06.37,0,.43.17,1.13.3.4-.93,1.38-.75.16-7.25,6.24-11.22,9.6-16.45,2.17-1.7,4.31-3.49,6.54-5.18s4.69-3,6.79-4.79c2.84-.65,5.29-2.59,8.12-3.88,7.55-3.46,16.46-8,25.41-9.27,8.61-1.23,16.32-.55,21.3,4a74.36,74.36,0,0,0-17.43,3.95c-.25.09-.37.08-.84-.13a190.22,190.22,0,0,0-20.51,8.59c.17.64-.3.76-.07,1.46,5.42-.12,10.39-4.09,16.23-5.7,4.32-1.19,10.14-2.52,13.37-3.15a14.42,14.42,0,0,0,6.74-3.13c.75.61,1.46-.48,2.63-.67,1.47-.24,3.35.78,4.1-.39a2.26,2.26,0,0,0-1-1.36C611.27,112.64,612.68,112.86,613,112.15Zm-18.85-10.82c.94,1.15,3.21,1.91,3.41,3.19C596.74,103.18,594.29,102.64,594.12,101.32Zm-13.8,20.17c7.23-2.76,15.05-5.88,23.2-6.37C596.46,118.74,587.06,119.73,580.32,121.49Zm19.94-16.62c.53,1,2.55,1.33,2.49,2.25C602.19,106.2,600.16,105.85,600.26,104.88Zm7.74,7.33c-.52-1.29-2.84-1.59-2.94-2.62C605.87,110.52,608.29,110.72,608,112.21Z"/></g></svg>