<svg xmlns="http://www.w3.org/2000/svg" viewBox="0 0 800 480"><defs><style>.cls-1,.cls-10,.cls-14,.cls-2{fill:none;}.cls-2{stroke:#231f20;}.cls-10,.cls-14,.cls-2{stroke-linecap:round;stroke-linejoin:round;stroke-width:5px;}.cls-3{font-size:36px;}.cls-11,.cls-21,.cls-22,.cls-3{fill:#fff;}.cls-11,.cls-22,.cls-3{font-family:AppleSpice, AppleSpice;}.cls-4{letter-spacing:-0.02em;}.cls-5{letter-spacing:0.02em;}.cls-6{letter-spacing:0.02em;}.cls-7{letter-spacing:0em;}.cls-8{letter-spacing:0.04em;}.cls-9{letter-spacing:0.03em;}.cls-10{stroke:#1b75bc;}.cls-11{font-size:21px;}.cls-12{letter-spacing:0.02em;}.cls-13{letter-spacing:0.04em;}.cls-14{stroke:#ef4136;}.cls-15{letter-spacing:-0.03em;}.cls-16{letter-spacing:0.05em;}.cls-17{letter-spacing:0.02em;}.cls-18{letter-spacing:0.01em;}.cls-19{letter-spacing:0.03em;}.cls-20{letter-spacing:0.02em;}.cls-22{font-size:24px;}.cls-23{letter-spacing:-0.03em;}.cls-24{letter-spacing:0.03em;}.cls-25{letter-spacing:-0.01em;}.cls-26{letter-spacing:0.05em;}.cls-27{letter-spacing:-0.01em;}</style></defs><title>UnidirectionalDataFlow</title><g id="Слой_1" data-name="Слой 1"><g id="Background"><rect class="cls-1" width="800" height="480"/></g></g><g id="Слой_2" data-name="Слой 2"><path class="cls-2" d="M514.93,210.64c1.52,2.63,41.5-28.16,43.32-25,3.4,5.89-65,28.94-59,39.2C502.93,231.26,570,170,576,180.5c4.33,7.49-84.08,34.66-77,46.89,6.5,11.27,78.94-56.14,83.52-48.22,6.07,10.51-102.45,40.1-92.19,57.87,9.32,16.14,94.25-70,101-58.3,6.44,11.16-114.2,54.4-107,66.84,9.31,16.12,108.65-81.9,117-67.52,11.39,19.72-131.21,53.4-119.82,73.13C493,271.25,598.57,159.41,609,177.51c9,15.56-143.17,68.62-131.74,88.42,13,22.43,138.93-109.67,151.68-87.57,8.21,14.22-161.14,84-151.62,100.43C490.41,301.42,628.64,153.63,645,182c14.1,24.42-180.36,83.52-170.42,100.75,15.93,27.6,159.56-121.21,172.16-99.39,17,29.37-180,89.19-170.71,105.23,17.5,30.32,162.86-121.6,174.8-100.92C666.11,214.09,461,270.51,477.61,299.28c11.53,20,178.53-126.73,188.77-109,13.83,23.95-212.73,81.92-193.76,114.78,11.16,19.34,177.31-140.83,194-112C676.93,211,461,288.75,473.38,310.1,485,330.23,661.21,169.23,675.25,193.55c16.43,28.47-211.65,92.5-196.95,118,20.09,34.79,183.34-136.18,196.48-113.44C696.1,235,460.55,296.62,475.51,322.52,491,349.41,668.23,179.45,682,203.3c17.12,29.65-219.74,98.56-201.82,129.6,17.05,29.54,194.36-156.69,213.62-123.33C708.46,235,467.39,301.66,485.89,333.7c20.5,35.51,192.92-149.31,209.34-120.86C710,238.41,459.73,300.48,482,339.14c13.73,23.77,199.29-150.66,214.71-124,12.13,21-219.87,109.4-207,131.7C502.2,368.41,685.15,185.82,706,222c22.32,38.66-224.8,109.21-213,129.68,14.39,24.93,194-154.6,212.46-122.67,22.84,39.55-224.19,108.32-212.59,128.42,17.54,30.37,194.19-163.16,216.29-124.88,15,25.9-228,101.37-209,134.28,12.66,21.92,193-157.46,212.9-122.92,10.8,18.71-219,100.4-205.39,124,11.08,19.2,193.7-149.08,209.83-121.14C734.12,275.46,498,348,514,375.72c20.47,35.45,191.56-144.26,206.14-119,17.11,29.63-217.25,92.6-201.94,119.12,13.43,23.26,190.51-147.39,206.7-119.34C740,282.58,504,347,521.2,376.69,531.71,394.88,700,228.16,719.61,262.14c16,27.69-209.22,97.09-194.15,123.19,13.38,23.18,182.18-143.77,198.89-114.83C745.1,306.44,515.15,357,533.51,388.83,547.61,413.24,710.31,257.52,723,279.45c19.1,33.09-198.57,82.81-180.19,114.65,17.66,30.59,163.85-131.66,179.9-103.87,10.24,17.74-186.54,85.4-174.94,105.49C557.94,413.39,710.92,273,723.24,294.4c13.12,22.73-183,78.55-167.23,105.87,16.35,28.32,157.2-124,171.61-99.08,15.8,27.36-160.7,79.68-149.6,98.92,9.13,15.81,132-93.34,139.44-80.51,8.89,15.4-137.38,66.09-126.66,84.67,12,20.78,111.66-87.91,121.81-70.33,10.89,18.86-118.42,50.16-107.79,68.58,5,8.6,96.66-67.18,101.59-58.65,9.54,16.52-109.26,41.36-98.57,59.87,9,15.51,92.07-67,98.06-56.62,4.6,8-71.64,35.43-64.65,47.53,1.44,2.5,38.05-28.88,41-23.7"/><text class="cls-3" transform="translate(567.04 280)">Ch<tspan class="cls-4" x="35.75" y="0">i</tspan><tspan class="cls-5" x="40.46" y="0">l</tspan><tspan x="47.92" y="0">d</tspan><tspan x="-54.16" y="43.2">Co</tspan><tspan class="cls-6" x="-16.61" y="43.2">m</tspan><tspan class="cls-7" x="9.38" y="43.2">po</tspan><tspan class="cls-8" x="48.91" y="43.2">n</tspan><tspan class="cls-9" x="66.76" y="43.2">e</tspan><tspan x="88.68" y="43.2">nt</tspan></text><path class="cls-10" d="M171.62,246.33c.26.46,19.91-11.91,20.09-11.6C193,237,169.49,246.39,171,249c.58,1,19.22-12.71,19.92-11.5,1.89,3.28-20.7,12.26-19.39,14.53.74,1.29,23.74-16.58,25-14.42,2,3.41-21.43,14.11-20.07,16.47,1.58,2.73,26.66-19.15,28.29-16.33,3.13,5.42-36,22.25-33.33,26.79s48.38-34.19,51.09-29.5-53.25,22.69-48.67,30.63c3,5.27,46-33.72,49.11-28.35,4.86,8.43-55.49,32.83-50.45,41.57,3.66,6.33,70.8-50.86,75.12-43.37,8.08,14-82.16,36.32-74.25,50,6.5,11.26,76.42-57.95,82.41-47.58,7.54,13.07-86.06,44.18-78.57,57.16,9.41,16.3,95.19-70.64,102-58.88,9.78,16.95-108.37,55.92-102.62,65.87,7.15,12.38,101.77-84,112.71-65.07,10.52,18.22-124.19,56.83-113,76.23,9.2,15.94,114.86-95.94,127.69-73.72,11.13,19.28-139.17,69.93-132.13,82.13,9.35,16.2,127.13-96,136.94-79.06s-142,59.7-129,82.06C185.69,335,297,228.93,309.14,250c9.71,16.82-130.5,54-118.36,75.08,6.4,11.08,104.38-82.8,114.14-65.9,7,12.05-109.32,51-102.13,63.42,6.74,11.67,91.29-75.11,101-58.31,8.67,15-89.19,43.7-80,59.6,4.52,7.83,77.88-57.81,83.44-48.17,6.4,11.08-75.79,33.65-68.46,46.35,5.71,9.89,65.43-49.63,70.56-40.74,5.8,10.05-62.23,37.18-58.74,43.22,4.05,7,50.85-38.24,54.7-31.58,4.29,7.42-45.36,24.13-40.76,32.11,2.18,3.78,38.57-27.66,40.91-23.62,3,5.13-38.64,17.91-35.17,23.92,2,3.55,33.41-22.38,34.75-20.06,2.36,4.09-24,15.81-22.2,18.9.86,1.48,20.62-13.2,21.18-12.23,1.4,2.43-16.41,11.17-15.29,13.1.22.37,20-11.9,20.14-11.63"/><text class="cls-11" transform="translate(189.18 280)">Co<tspan class="cls-12" x="21.9" y="0">m</tspan><tspan x="37.06" y="0">po</tspan><tspan class="cls-13" x="60.12" y="0">n</tspan><tspan class="cls-9" x="70.54" y="0">e</tspan><tspan x="83.33" y="0">nt</tspan><tspan x="25.73" y="25.2">state</tspan></text><path class="cls-14" d="M251.62,86.33c.26.46,19.91-11.91,20.09-11.6C273,77,249.49,86.39,251,89c.58,1,19.22-12.71,19.92-11.5,1.89,3.28-20.7,12.26-19.39,14.53.74,1.29,23.74-16.58,25-14.42,2,3.41-21.43,14.11-20.07,16.47,1.58,2.73,26.66-19.15,28.29-16.33,3.13,5.42-36,22.25-33.33,26.79S299.79,70.34,302.5,75s-53.25,22.69-48.67,30.63c3,5.27,46-33.72,49.11-28.35,4.86,8.43-55.49,32.83-50.45,41.57,3.66,6.33,70.8-50.86,75.12-43.37,8.08,14-82.16,36.32-74.25,50,6.5,11.26,76.42-57.95,82.41-47.58,7.54,13.07-86.06,44.18-78.57,57.16,9.41,16.3,95.19-70.64,102-58.88C369,93.18,250.82,132.16,256.56,142.1c7.15,12.38,101.77-84,112.71-65.07,10.52,18.22-124.19,56.83-113,76.23C265.49,169.2,371.14,57.33,384,79.55c11.13,19.28-139.17,69.93-132.13,82.13,9.35,16.2,127.13-96,136.94-79.06s-142,59.7-129,82.06C265.69,175,377,68.93,389.14,90c9.71,16.82-130.5,54-118.36,75.08,6.4,11.08,104.38-82.8,114.14-65.9,7,12.05-109.32,51-102.13,63.42,6.74,11.67,91.29-75.11,101-58.31,8.67,15-89.19,43.7-80,59.6,4.52,7.83,77.88-57.81,83.44-48.17,6.4,11.08-75.79,33.65-68.46,46.35,5.71,9.89,65.43-49.63,70.56-40.74,5.8,10.05-62.23,37.18-58.74,43.22,4.05,7,50.85-38.24,54.7-31.58,4.29,7.42-45.36,24.13-40.76,32.11,2.18,3.78,38.57-27.66,40.91-23.62,3,5.13-38.64,17.91-35.17,23.92,2,3.55,33.41-22.38,34.75-20.06,2.36,4.09-24,15.81-22.2,18.9.86,1.48,20.62-13.2,21.18-12.23,1.4,2.43-16.41,11.17-15.29,13.1.22.37,20-11.9,20.14-11.63"/><text class="cls-11" transform="translate(292.51 120)"><tspan class="cls-15">A</tspan><tspan x="10.84" y="0">ction</tspan><tspan x="-12.86" y="25.2">h</tspan><tspan class="cls-16" x="-1.71" y="25.2">a</tspan><tspan class="cls-17" x="10.45" y="25.2">n</tspan><tspan class="cls-18" x="20.59" y="25.2">d</tspan><tspan class="cls-19" x="31.32" y="25.2">l</tspan><tspan class="cls-20" x="35.79" y="25.2">e</tspan><tspan x="48.2" y="25.2">rs</tspan></text><path class="cls-21" d="M219.58,150.38c.27.4.45.65.41.91s-.24.14-.25.41c-6,3-10.22,8.44-12.43,15.48a41.85,41.85,0,0,0-1.4,5.27,39.15,39.15,0,0,0-.49,5.85,18.6,18.6,0,0,0,1.15,7.82c.27.82.86,2,1.32,2.06.71,0,2.37-1,3-1.24a12.63,12.63,0,0,1,3-1,1,1,0,0,1,.16,1.56c.14,2-.55,3.73-.74,5.52-.26,2.39-.06,5.2-.33,7.49a5.76,5.76,0,0,0-.41,1.89,2,2,0,0,1-1.73.49c-5.55-2.93-10.37-6.93-16.3-9.22-.27-1.1.79-.94,1.56-1.15,1.3-.36,3.28-1.43,4.53-1.73-1.92-2.3-2.6-5.71-3.21-9.22a37.57,37.57,0,0,1,0-10.87A95.22,95.22,0,0,1,199,160.59a39.26,39.26,0,0,1,7.66-16.3c1.44-1.72,3.69-2.9,5.43-4a25,25,0,0,0,2.55-.25,1.37,1.37,0,0,0,.49.49c.11.36,0,.46,0,.91a49.6,49.6,0,0,0,2.63,6.18C218.37,148.69,218.86,149.27,219.58,150.38Zm-1.48.33c.08-.55-.85-1.68-1.15-2.22a36.28,36.28,0,0,1-3.13-7.08A11.73,11.73,0,0,0,208,145c-2.21,2.41-3.79,5.74-5.43,9.22a29.78,29.78,0,0,0-1.81,5.52,41.4,41.4,0,0,0-1.24,5.76c-.36,3.54-1.09,7.89-1,11.69s1.17,9.81,3.13,12.6c.74.19,1.2,1.26,1.48,1.4s-.26.41-.33.66c-2.29-.51-3.8.8-5.76,1.48,3.68,2,7.16,3.9,10.62,6a14.22,14.22,0,0,0,3.79,1.81,7.57,7.57,0,0,0,.49-2.8c.1-2.61.08-5.26.41-7.66a13.14,13.14,0,0,0,.33-3.29c-1.48.4-2.9,1.25-4.12,1.65-.23.75-1.35.86-2.06.49-.21-.3-.07-.49-.16-.82-2.85-5.09-2.46-11.14-1.81-16.55a27.76,27.76,0,0,1,.82-3.46c.23-.87.71-1.59,1-2.39a41.17,41.17,0,0,1,1.56-4.45,25.85,25.85,0,0,1,2.06-3.29,26.44,26.44,0,0,1,6.67-6.67C217.15,151.56,218.06,151,218.1,150.71Z"/><path class="cls-21" d="M440.2,132.29c-.45-.5-.09-1.84.66-2.29.43-.25.65.07,1.22.05a28.81,28.81,0,0,0,5.86-1.48,32.48,32.48,0,0,0,7.52-3.26c1.33-.77,2.5-1.82,3.78-2.6,2-1.2,4-1.76,5.91-2.7a1.21,1.21,0,0,1,1.4,1.37c-1.25,2.58-1.38,5.28-2.8,7.84,1.47.5,3.4.61,4.56,1.47a4.68,4.68,0,0,1,3.31,1c1.62,0,3.19,1.16,4.72,1.49.35.54,1.2.45,1.29.87,2.06.33,4.25,2,6.37,2.81,1.78,1.58,4,2.36,5.11,4,.15.16.34-.17.48.05,6.5,5.4,10.71,14.23,15.06,21.82.2.4.52-.24.72.16.58,1.52-1.3,2.3-2.48,3.31-2.76,0-5.88,2.52-8.93,4.24-.17-.14-.4.21-.55-.14-.77,1.15-2.75,1-4,1.6-.78-.83-.95-1-.36-1.91,1.57-6.54-4.17-15.58-9.52-21.14-1.08-1.12-2.35-2-3.49-3.06-1.59-1.48-2.93-3.3-4.64-4.49a26.44,26.44,0,0,0-7.89-3.79,66.22,66.22,0,0,1-3,8.71,2.52,2.52,0,0,1-1.66.31c-.18-.26.08-.48,0-.73-4.67-6.38-12.5-10.11-18-13.27-.16-.09-.36-.07-.33,0C440.28,132.38,440.22,132,440.2,132.29Zm4.06-.62c-.1.1-.19.2,0,.32a50.33,50.33,0,0,1,15.6,11.54,35.19,35.19,0,0,0,2.06-6.21c-.83-1.17-.08-1.74.08-2.27.5-.25,1.17-.07,1.43-.42.59,1,1.55.8,2.33,1.07a30.64,30.64,0,0,1,4.8,2.31c2.5,1.4,4.81,4.19,7.2,6.4.47.43,1.46.83,1.08,1.34,1,0,1.49,1.16,2.17,1.78,5.09,4.68,9.91,13.36,10.51,19.46a4.25,4.25,0,0,0-.26,2.41c4-1,7.46-4.55,11.44-5.68a96,96,0,0,0-11.06-18.13A40.41,40.41,0,0,0,478,136.23a73.63,73.63,0,0,0-7.36-2.75c-2.6-.8-5.1-1.86-7.43-2.11-.71-.07-2.16.25-2.36-.74-.09-.44.71-1.1,1-1.52a15.54,15.54,0,0,0,2.24-6.35C458,125,451,130.72,444.26,131.68Z"/><path class="cls-21" d="M430.1,300c.67.08,1.27,1.33,1,2.16-.16.47-.54.37-1,.76a28.81,28.81,0,0,0-3.47,5,32.48,32.48,0,0,0-3.56,7.38c-.5,1.45-.7,3-1.16,4.44-.71,2.19-1.91,4-2.71,5.9a1.21,1.21,0,0,1-2-.13c-.74-2.77-2.41-4.9-3-7.76-1.44.59-3,1.76-4.41,1.87a4.68,4.68,0,0,1-3.17,1.4c-1.25,1-3.17,1.2-4.55,2-.62-.18-1.2.44-1.55.18-1.77,1.1-4.53,1.25-6.66,2-2.38,0-4.55.81-6.46.33-.21,0-.15.36-.4.28-8.44.16-17.41-3.77-25.66-6.67-.41-.17-.23.52-.65.35-1.43-.78-.52-2.6-.29-4.13,2.12-1.77,2.8-5.75,4-9,.22,0,.17-.42.51-.26-.17-1.37,1.46-2.52,2-3.83,1.13.12,1.35.12,1.52,1.21,3.09,6,13.34,9.07,21,9.78,1.55.14,3.09,0,4.65,0,2.17.08,4.37.58,6.45.37a26.44,26.44,0,0,0,8.45-2.29,66.22,66.22,0,0,1-3.44-8.54,2.52,2.52,0,0,1,1.06-1.32c.31.08.25.41.48.55,7.71,1.77,16.07-.52,22.31-1.74.18,0,.32-.18.28-.19C430,300,430.25,300.22,430.1,300Zm-2.67,3.12c0-.14,0-.27-.18-.27a50.33,50.33,0,0,1-19.35,1.46,35.19,35.19,0,0,0,2.5,6c1.39.34,1.2,1.27,1.42,1.77-.21.51-.84.82-.81,1.25-1.07-.34-1.7.41-2.46.71a30.64,30.64,0,0,1-5.14,1.39c-2.81.58-6.38,0-9.63-.13-.64,0-1.65.33-1.69-.31-.77.6-1.89.1-2.81.07-6.91-.21-16.23-3.64-20.67-7.86a4.25,4.25,0,0,0-1.38-2c-2.39,3.4-2.68,8.32-4.95,11.78a96,96,0,0,0,20.22,6.49,40.41,40.41,0,0,0,16.38-1.77,73.63,73.63,0,0,0,7.36-2.73c2.49-1.1,5.07-1.92,7-3.26.58-.41,1.47-1.61,2.27-1,.35.27.18,1.29.25,1.79a15.54,15.54,0,0,0,2.46,6.27C421.43,317.16,422.95,308.26,427.43,303.12Z"/><text class="cls-22" transform="translate(320 380)"><tspan class="cls-23">@</tspan><tspan class="cls-24" x="19.25" y="0">I</tspan><tspan x="31.94" y="0">n</tspan><tspan class="cls-25" x="42.98" y="0">p</tspan><tspan x="55.1" y="0">ut</tspan></text><text class="cls-22" transform="translate(500 120)"><tspan class="cls-26">@</tspan><tspan x="21.22" y="0">Out</tspan><tspan class="cls-27" x="56.06" y="0">p</tspan><tspan x="68.18" y="0">ut</tspan></text><text class="cls-11" transform="translate(60 180)">state u<tspan class="cls-9" x="65.25" y="0">p</tspan><tspan class="cls-18" x="76.84" y="0">d</tspan><tspan x="87.57" y="0">ate</tspan></text></g></svg>